<ttFont>
<head>
    <!-- Most of this table will be recalculated by the compiler -->
    <tableVersion value="1.0"/>
    <fontRevision value="1.106"/>
    <checkSumAdjustment value="0xef09b2a2"/>
    <magicNumber value="0x5f0f3cf5"/>
    <flags value="00000000 00000001"/>
    <unitsPerEm value="1000"/>
    <created value="Mon Sep 16 15:13:32 2019"/>
    <modified value="Mon Sep 16 15:22:46 2019"/>
    <xMin value="-156"/>
    <yMin value="-349"/>
    <xMax value="1971"/>
    <yMax value="1315"/>
    <macStyle value="00000000 00000000"/>
    <lowestRecPPEM value="6"/>
    <fontDirectionHint value="2"/>
    <indexToLocFormat value="0"/>
    <glyphDataFormat value="0"/>
  </head>
    <TTGlyph name=".notdef" xMin="-1" yMin="-180" xMax="449" yMax="720">
      <contour>
        <pt x="-1" y="-180" on="1"/>
        <pt x="-1" y="720" on="1"/>
        <pt x="449" y="720" on="1"/>
        <pt x="449" y="-180" on="1"/>
      </contour>
      <contour>
        <pt x="224" y="324" on="1"/>
        <pt x="385" y="675" on="1"/>
        <pt x="63" y="675" on="1"/>
      </contour>
      <contour>
        <pt x="44" y="-68" on="1"/>
        <pt x="199" y="270" on="1"/>
        <pt x="44" y="608" on="1"/>
      </contour>
      <contour>
        <pt x="404" y="-68" on="1"/>
        <pt x="404" y="608" on="1"/>
        <pt x="249" y="270" on="1"/>
      </contour>
      <contour>
        <pt x="63" y="-135" on="1"/>
        <pt x="385" y="-135" on="1"/>
        <pt x="224" y="216" on="1"/>
      </contour>
    </TTGlyph>
    <TTGlyph name="A" xMin="67" yMin="0" xMax="768" yMax="700">
      <contour>
        <pt x="67" y="0" on="1"/>
        <pt x="359" y="700" on="1"/>
        <pt x="476" y="700" on="1"/>
        <pt x="768" y="0" on="1"/>
        <pt x="718" y="0" on="1"/>
        <pt x="628" y="215" on="1"/>
        <pt x="206" y="215" on="1"/>
        <pt x="116" y="0" on="1"/>
      </contour>
      <contour>
        <pt x="391" y="656" on="1"/>
        <pt x="224" y="258" on="1"/>
        <pt x="610" y="258" on="1"/>
        <pt x="444" y="656" on="1"/>
      </contour>
    </TTGlyph>
    <TTGlyph name="A.sc" xMin="65" yMin="0" xMax="673" yMax="567">
      <component glyphName="a.sc" x="0" y="0" flags="0x204"/>
    </TTGlyph>
    <TTGlyph name="AE" xMin="51" yMin="0" xMax="1233" yMax="700">
      <contour>
        <pt x="662" y="0" on="1"/>
        <pt x="662" y="215" on="1"/>
        <pt x="258" y="215" on="1"/>
        <pt x="107" y="0" on="1"/>
        <pt x="51" y="0" on="1"/>
        <pt x="542" y="700" on="1"/>
        <pt x="1212" y="700" on="1"/>
        <pt x="1216" y="657" on="1"/>
        <pt x="710" y="657" on="1"/>
        <pt x="710" y="384" on="1"/>
        <pt x="1133" y="384" on="1"/>
        <pt x="1133" y="340" on="1"/>
        <pt x="710" y="340" on="1"/>
        <pt x="710" y="43" on="1"/>
        <pt x="1233" y="43" on="1"/>
        <pt x="1230" y="0" on="1"/>
      </contour>
      <contour>
        <pt x="568" y="656" on="1"/>
        <pt x="288" y="258" on="1"/>
        <pt x="662" y="258" on="1"/>
        <pt x="662" y="656" on="1"/>
      </contour>
    </TTGlyph>
    <TTGlyph name="AE.sc" xMin="43" yMin="0" xMax="1029" yMax="567">
      <component glyphName="ae.sc" x="0" y="0" flags="0x204"/>
    </TTGlyph>
    <TTGlyph name="AEacute" xMin="51" yMin="0" xMax="1233" yMax="983">
      <component glyphName="AE" x="0" y="0" flags="0x204"/>
      <component glyphName="acute" x="504" y="176" flags="0x4"/>
    </TTGlyph>
    <TTGlyph name="AEacute.sc" xMin="43" yMin="0" xMax="1029" yMax="850">
      <component glyphName="aeacute.sc" x="0" y="0" flags="0x204"/>
    </TTGlyph>
    <TTGlyph name="Aacute" xMin="67" yMin="0" xMax="768" yMax="983">
      <component glyphName="A" x="0" y="0" flags="0x204"/>
      <component glyphName="acute" x="233" y="176" flags="0x4"/>
    </TTGlyph>
    <TTGlyph name="Aacute.sc" xMin="65" yMin="0" xMax="673" yMax="850">
      <component glyphName="aacute.sc" x="0" y="0" flags="0x204"/>
    </TTGlyph>
    <TTGlyph name="Abreve" xMin="67" yMin="0" xMax="768" yMax="988">
      <component glyphName="A" x="0" y="0" flags="0x204"/>
      <component glyphName="breve" x="169" y="176" flags="0x4"/>
    </TTGlyph>
    <TTGlyph name="Abreve.sc" xMin="65" yMin="0" xMax="673" yMax="855">
      <component glyphName="abreve.sc" x="0" y="0" flags="0x204"/>
    </TTGlyph>
    <TTGlyph name="Acircumflex" xMin="67" yMin="0" xMax="768" yMax="986">
      <component glyphName="A" x="0" y="0" flags="0x204"/>
      <component glyphName="circumflex" x="169" y="176" flags="0x4"/>
    </TTGlyph>
    <TTGlyph name="Acircumflex.sc" xMin="65" yMin="0" xMax="673" yMax="853">
      <component glyphName="acircumflex.sc" x="0" y="0" flags="0x204"/>
    </TTGlyph>
    <TTGlyph name="Adieresis" xMin="67" yMin="0" xMax="768" yMax="891">
      <component glyphName="A" x="0" y="0" flags="0x204"/>
      <component glyphName="dieresis" x="169" y="176" flags="0x4"/>
    </TTGlyph>
    <TTGlyph name="Adieresis.sc" xMin="65" yMin="0" xMax="673" yMax="758">
      <component glyphName="adieresis.sc" x="0" y="0" flags="0x204"/>
    </TTGlyph>
    <TTGlyph name="Agrave" xMin="67" yMin="0" xMax="768" yMax="983">
      <component glyphName="A" x="0" y="0" flags="0x204"/>
      <component glyphName="grave" x="106" y="176" flags="0x4"/>
    </TTGlyph>
    <TTGlyph name="Agrave.sc" xMin="65" yMin="0" xMax="673" yMax="850">
      <component glyphName="agrave.sc" x="0" y="0" flags="0x204"/>
    </TTGlyph>
    <TTGlyph name="Amacron" xMin="67" yMin="0" xMax="768" yMax="874">
      <component glyphName="A" x="0" y="0" flags="0x204"/>
      <component glyphName="macron" x="169" y="176" flags="0x4"/>
    </TTGlyph>
    <TTGlyph name="Amacron.sc" xMin="65" yMin="0" xMax="673" yMax="741">
      <component glyphName="amacron.sc" x="0" y="0" flags="0x204"/>
    </TTGlyph>
    <TTGlyph name="Aogonek" xMin="67" yMin="-289" xMax="814" yMax="700">
      <contour>
        <pt x="67" y="0" on="1"/>
        <pt x="359" y="700" on="1"/>
        <pt x="476" y="700" on="1"/>
        <pt x="768" y="0" on="1"/>
        <pt x="710" y="-59" on="1"/>
        <pt x="662" y="-108" on="0"/>
        <pt x="631" y="-161" on="0"/>
        <pt x="631" y="-186" on="1"/>
        <pt x="631" y="-222" on="0"/>
        <pt x="684" y="-252" on="0"/>
        <pt x="719" y="-252" on="1"/>
        <pt x="744" y="-252" on="0"/>
        <pt x="793" y="-238" on="0"/>
        <pt x="814" y="-222" on="1"/>
        <pt x="814" y="-263" on="1"/>
        <pt x="792" y="-276" on="0"/>
        <pt x="741" y="-289" on="0"/>
        <pt x="713" y="-289" on="1"/>
        <pt x="656" y="-289" on="0"/>
        <pt x="588" y="-239" on="0"/>
        <pt x="588" y="-192" on="1"/>
        <pt x="588" y="-159" on="0"/>
        <pt x="630" y="-89" on="0"/>
        <pt x="681" y="-38" on="1"/>
        <pt x="718" y="-1" on="1"/>
        <pt x="628" y="215" on="1"/>
        <pt x="206" y="215" on="1"/>
        <pt x="116" y="0" on="1"/>
      </contour>
      <contour>
        <pt x="392" y="656" on="1"/>
        <pt x="224" y="258" on="1"/>
        <pt x="610" y="258" on="1"/>
        <pt x="444" y="656" on="1"/>
      </contour>
    </TTGlyph>
    <TTGlyph name="Aogonek.sc" xMin="65" yMin="-289" xMax="719" yMax="567">
      <component glyphName="aogonek.sc" x="0" y="0" flags="0x204"/>
    </TTGlyph>
    <TTGlyph name="Aring" xMin="67" yMin="0" xMax="768" yMax="1060">
      <component glyphName="A" x="0" y="0" flags="0x204"/>
      <component glyphName="ring" x="113" y="176" flags="0x4"/>
    </TTGlyph>
    <TTGlyph name="Aring.sc" xMin="65" yMin="0" xMax="673" yMax="927">
      <component glyphName="aring.sc" x="0" y="0" flags="0x204"/>
    </TTGlyph>
    <TTGlyph name="Aringacute" xMin="67" yMin="0" xMax="768" yMax="1315">
      <component glyphName="A" x="0" y="0" flags="0x204"/>
      <component glyphName="ring" x="113" y="176" flags="0x4"/>
      <component glyphName="acute" x="225" y="508" flags="0x4"/>
    </TTGlyph>
    <TTGlyph name="Aringacute.sc" xMin="65" yMin="0" xMax="673" yMax="1182">
      <component glyphName="aringacute.sc" x="0" y="0" flags="0x204"/>
    </TTGlyph>
    <TTGlyph name="Atilde" xMin="67" yMin="0" xMax="768" yMax="931">
      <component glyphName="A" x="0" y="0" flags="0x204"/>
      <component glyphName="tilde" x="169" y="176" flags="0x4"/>
    </TTGlyph>
    <TTGlyph name="Atilde.sc" xMin="65" yMin="0" xMax="673" yMax="798">
      <component glyphName="atilde.sc" x="0" y="0" flags="0x204"/>
    </TTGlyph>
    <TTGlyph name="B" xMin="133" yMin="0" xMax="738" yMax="700">
      <contour>
        <pt x="133" y="0" on="1"/>
        <pt x="133" y="700" on="1"/>
        <pt x="501" y="700" on="1"/>
        <pt x="607" y="700" on="0"/>
        <pt x="723" y="610" on="0"/>
        <pt x="723" y="526" on="1"/>
        <pt x="723" y="462" on="0"/>
        <pt x="646" y="375" on="0"/>
        <pt x="567" y="362" on="1"/>
        <pt x="650" y="346" on="0"/>
        <pt x="738" y="257" on="0"/>
        <pt x="738" y="190" on="1"/>
        <pt x="738" y="94" on="0"/>
        <pt x="606" y="0" on="0"/>
        <pt x="483" y="0" on="1"/>
      </contour>
      <contour>
        <pt x="180" y="379" on="1"/>
        <pt x="488" y="379" on="1"/>
        <pt x="580" y="379" on="0"/>
        <pt x="676" y="454" on="0"/>
        <pt x="676" y="520" on="1"/>
        <pt x="676" y="588" on="0"/>
        <pt x="581" y="658" on="0"/>
        <pt x="500" y="658" on="1"/>
        <pt x="180" y="658" on="1"/>
      </contour>
      <contour>
        <pt x="180" y="42" on="1"/>
        <pt x="482" y="43" on="1"/>
        <pt x="587" y="43" on="0"/>
        <pt x="691" y="119" on="0"/>
        <pt x="691" y="193" on="1"/>
        <pt x="691" y="259" on="0"/>
        <pt x="586" y="339" on="0"/>
        <pt x="490" y="339" on="1"/>
        <pt x="180" y="339" on="1"/>
      </contour>
    </TTGlyph>
    <TTGlyph name="B.sc" xMin="135" yMin="0" xMax="650" yMax="567">
      <component glyphName="b.sc" x="0" y="0" flags="0x204"/>
    </TTGlyph>
    <TTGlyph name="C" xMin="80" yMin="-13" xMax="726" yMax="713">
      <contour>
        <pt x="453" y="-13" on="1"/>
        <pt x="365" y="-13" on="0"/>
        <pt x="225" y="41" on="0"/>
        <pt x="130" y="136" on="0"/>
        <pt x="80" y="270" on="0"/>
        <pt x="80" y="349" on="1"/>
        <pt x="80" y="426" on="0"/>
        <pt x="133" y="560" on="0"/>
        <pt x="232" y="657" on="0"/>
        <pt x="372" y="713" on="0"/>
        <pt x="459" y="713" on="1"/>
        <pt x="544" y="713" on="0"/>
        <pt x="677" y="659" on="0"/>
        <pt x="726" y="623" on="1"/>
        <pt x="726" y="571" on="1"/>
        <pt x="725" y="571" on="1"/>
        <pt x="671" y="611" on="0"/>
        <pt x="542" y="669" on="0"/>
        <pt x="458" y="669" on="1"/>
        <pt x="384" y="669" on="0"/>
        <pt x="261" y="621" on="0"/>
        <pt x="175" y="535" on="0"/>
        <pt x="128" y="418" on="0"/>
        <pt x="128" y="349" on="1"/>
        <pt x="128" y="279" on="0"/>
        <pt x="173" y="161" on="0"/>
        <pt x="257" y="78" on="0"/>
        <pt x="379" y="31" on="0"/>
        <pt x="455" y="31" on="1"/>
        <pt x="536" y="31" on="0"/>
        <pt x="672" y="88" on="0"/>
        <pt x="725" y="128" on="1"/>
        <pt x="726" y="128" on="1"/>
        <pt x="726" y="76" on="1"/>
        <pt x="677" y="40" on="0"/>
        <pt x="538" y="-13" on="0"/>
      </contour>
    </TTGlyph>
    <TTGlyph name="C.sc" xMin="83" yMin="-11" xMax="633" yMax="578">
      <component glyphName="c.sc" x="0" y="0" flags="0x204"/>
    </TTGlyph>
    <TTGlyph name="Cacute" xMin="80" yMin="-13" xMax="726" yMax="996">
      <component glyphName="C" x="0" y="0" flags="0x204"/>
      <component glyphName="acute" x="260" y="189" flags="0x4"/>
    </TTGlyph>
    <TTGlyph name="Cacute.sc" xMin="83" yMin="-11" xMax="633" yMax="861">
      <component glyphName="cacute.sc" x="0" y="0" flags="0x204"/>
    </TTGlyph>
    <TTGlyph name="Ccaron" xMin="80" yMin="-13" xMax="726" yMax="999">
      <component glyphName="C" x="0" y="0" flags="0x204"/>
      <component glyphName="caron" x="207" y="189" flags="0x4"/>
    </TTGlyph>
    <TTGlyph name="Ccaron.sc" xMin="83" yMin="-11" xMax="633" yMax="864">
      <component glyphName="ccaron.sc" x="0" y="0" flags="0x204"/>
    </TTGlyph>
    <TTGlyph name="Ccedilla" xMin="80" yMin="-193" xMax="726" yMax="713">
      <contour>
        <pt x="726" y="76" on="1"/>
        <pt x="680" y="42" on="0"/>
        <pt x="552" y="-9" on="0"/>
        <pt x="474" y="-13" on="1"/>
        <pt x="343" y="-193" on="1"/>
        <pt x="281" y="-193" on="1"/>
        <pt x="281" y="-191" on="1"/>
        <pt x="431" y="-13" on="1"/>
        <pt x="348" y="-10" on="0"/>
        <pt x="217" y="47" on="0"/>
        <pt x="127" y="142" on="0"/>
        <pt x="80" y="273" on="0"/>
        <pt x="80" y="349" on="1"/>
        <pt x="80" y="426" on="0"/>
        <pt x="133" y="560" on="0"/>
        <pt x="232" y="657" on="0"/>
        <pt x="372" y="713" on="0"/>
        <pt x="459" y="713" on="1"/>
        <pt x="544" y="713" on="0"/>
        <pt x="677" y="659" on="0"/>
        <pt x="726" y="623" on="1"/>
        <pt x="726" y="571" on="1"/>
        <pt x="725" y="571" on="1"/>
        <pt x="671" y="611" on="0"/>
        <pt x="542" y="669" on="0"/>
        <pt x="458" y="669" on="1"/>
        <pt x="384" y="669" on="0"/>
        <pt x="261" y="621" on="0"/>
        <pt x="175" y="535" on="0"/>
        <pt x="128" y="418" on="0"/>
        <pt x="128" y="349" on="1"/>
        <pt x="128" y="279" on="0"/>
        <pt x="173" y="161" on="0"/>
        <pt x="257" y="78" on="0"/>
        <pt x="379" y="31" on="0"/>
        <pt x="455" y="31" on="1"/>
        <pt x="536" y="31" on="0"/>
        <pt x="672" y="88" on="0"/>
        <pt x="725" y="128" on="1"/>
        <pt x="726" y="128" on="1"/>
      </contour>
    </TTGlyph>
    <TTGlyph name="Ccedilla.sc" xMin="83" yMin="-193" xMax="633" yMax="578">
      <component glyphName="ccedilla.sc" x="0" y="0" flags="0x204"/>
    </TTGlyph>
    <TTGlyph name="Cdotaccent" xMin="80" yMin="-13" xMax="726" yMax="906">
      <component glyphName="C" x="0" y="0" flags="0x204"/>
      <component glyphName="dotaccent" x="207" y="189" flags="0x4"/>
    </TTGlyph>
    <TTGlyph name="Cdotaccent.sc" xMin="83" yMin="-11" xMax="633" yMax="771">
      <component glyphName="cdotaccent.sc" x="0" y="0" flags="0x204"/>
    </TTGlyph>
    <TTGlyph name="D" xMin="133" yMin="0" xMax="789" yMax="700">
      <contour>
        <pt x="133" y="0" on="1"/>
        <pt x="133" y="700" on="1"/>
        <pt x="436" y="700" on="1"/>
        <pt x="608" y="700" on="0"/>
        <pt x="789" y="513" on="0"/>
        <pt x="789" y="351" on="1"/>
        <pt x="789" y="270" on="0"/>
        <pt x="743" y="140" on="0"/>
        <pt x="654" y="49" on="0"/>
        <pt x="522" y="0" on="0"/>
        <pt x="436" y="0" on="1"/>
      </contour>
      <contour>
        <pt x="181" y="43" on="1"/>
        <pt x="435" y="43" on="1"/>
        <pt x="583" y="43" on="0"/>
        <pt x="740" y="204" on="0"/>
        <pt x="740" y="350" on="1"/>
        <pt x="740" y="496" on="0"/>
        <pt x="583" y="657" on="0"/>
        <pt x="436" y="657" on="1"/>
        <pt x="181" y="657" on="1"/>
      </contour>
    </TTGlyph>
    <TTGlyph name="D.sc" xMin="135" yMin="0" xMax="686" yMax="567">
      <component glyphName="d.sc" x="0" y="0" flags="0x204"/>
    </TTGlyph>
    <TTGlyph name="Dcaron" xMin="133" yMin="0" xMax="789" yMax="986">
      <component glyphName="D" x="0" y="0" flags="0x204"/>
      <component glyphName="caron" x="179" y="176" flags="0x4"/>
    </TTGlyph>
    <TTGlyph name="Dcaron.sc" xMin="135" yMin="0" xMax="686" yMax="853">
      <component glyphName="dcaron.sc" x="0" y="0" flags="0x204"/>
    </TTGlyph>
    <TTGlyph name="Dcroat" xMin="34" yMin="0" xMax="819" yMax="700">
      <component glyphName="Eth" x="0" y="0" flags="0x204"/>
    </TTGlyph>
    <TTGlyph name="Dcroat.sc" xMin="47" yMin="0" xMax="709" yMax="567">
      <component glyphName="dcroat.sc" x="0" y="0" flags="0x204"/>
    </TTGlyph>
    <TTGlyph name="E" xMin="133" yMin="0" xMax="704" yMax="700">
      <contour>
        <pt x="133" y="0" on="1"/>
        <pt x="133" y="700" on="1"/>
        <pt x="683" y="700" on="1"/>
        <pt x="687" y="657" on="1"/>
        <pt x="181" y="657" on="1"/>
        <pt x="181" y="384" on="1"/>
        <pt x="604" y="384" on="1"/>
        <pt x="604" y="340" on="1"/>
        <pt x="181" y="340" on="1"/>
        <pt x="181" y="43" on="1"/>
        <pt x="704" y="43" on="1"/>
        <pt x="701" y="0" on="1"/>
      </contour>
    </TTGlyph>
    <TTGlyph name="E.sc" xMin="135" yMin="0" xMax="620" yMax="567">
      <component glyphName="e.sc" x="0" y="0" flags="0x204"/>
    </TTGlyph>
    <TTGlyph name="Eacute" xMin="133" yMin="0" xMax="704" yMax="983">
      <component glyphName="E" x="0" y="0" flags="0x204"/>
      <component glyphName="acute" x="223" y="176" flags="0x4"/>
    </TTGlyph>
    <TTGlyph name="Eacute.sc" xMin="135" yMin="0" xMax="620" yMax="850">
      <component glyphName="eacute.sc" x="0" y="0" flags="0x204"/>
    </TTGlyph>
    <TTGlyph name="Ebreve" xMin="133" yMin="0" xMax="704" yMax="988">
      <component glyphName="E" x="0" y="0" flags="0x204"/>
      <component glyphName="breve" x="170" y="176" flags="0x4"/>
    </TTGlyph>
    <TTGlyph name="Ebreve.sc" xMin="135" yMin="0" xMax="620" yMax="855">
      <component glyphName="ebreve.sc" x="0" y="0" flags="0x204"/>
    </TTGlyph>
    <TTGlyph name="Ecaron" xMin="133" yMin="0" xMax="704" yMax="986">
      <component glyphName="E" x="0" y="0" flags="0x204"/>
      <component glyphName="caron" x="170" y="176" flags="0x4"/>
    </TTGlyph>
    <TTGlyph name="Ecaron.sc" xMin="135" yMin="0" xMax="620" yMax="853">
      <component glyphName="ecaron.sc" x="0" y="0" flags="0x204"/>
    </TTGlyph>
    <TTGlyph name="Ecircumflex" xMin="133" yMin="0" xMax="704" yMax="986">
      <component glyphName="E" x="0" y="0" flags="0x204"/>
      <component glyphName="circumflex" x="170" y="176" flags="0x4"/>
    </TTGlyph>
    <TTGlyph name="Ecircumflex.sc" xMin="135" yMin="0" xMax="620" yMax="853">
      <component glyphName="ecircumflex.sc" x="0" y="0" flags="0x204"/>
    </TTGlyph>
    <TTGlyph name="Edieresis" xMin="133" yMin="0" xMax="704" yMax="891">
      <component glyphName="E" x="0" y="0" flags="0x204"/>
      <component glyphName="dieresis" x="170" y="176" flags="0x4"/>
    </TTGlyph>
    <TTGlyph name="Edieresis.sc" xMin="135" yMin="0" xMax="620" yMax="758">
      <component glyphName="edieresis.sc" x="0" y="0" flags="0x204"/>
    </TTGlyph>
    <TTGlyph name="Edotaccent" xMin="133" yMin="0" xMax="704" yMax="893">
      <component glyphName="E" x="0" y="0" flags="0x204"/>
      <component glyphName="dotaccent" x="170" y="176" flags="0x4"/>
    </TTGlyph>
    <TTGlyph name="Edotaccent.sc" xMin="135" yMin="0" xMax="620" yMax="760">
      <component glyphName="edotaccent.sc" x="0" y="0" flags="0x204"/>
    </TTGlyph>
    <TTGlyph name="Egrave" xMin="133" yMin="0" xMax="704" yMax="983">
      <component glyphName="E" x="0" y="0" flags="0x204"/>
      <component glyphName="grave" x="118" y="176" flags="0x4"/>
    </TTGlyph>
    <TTGlyph name="Egrave.sc" xMin="135" yMin="0" xMax="620" yMax="850">
      <component glyphName="egrave.sc" x="0" y="0" flags="0x204"/>
    </TTGlyph>
    <TTGlyph name="Emacron" xMin="133" yMin="0" xMax="704" yMax="874">
      <component glyphName="E" x="0" y="0" flags="0x204"/>
      <component glyphName="macron" x="170" y="176" flags="0x4"/>
    </TTGlyph>
    <TTGlyph name="Emacron.sc" xMin="135" yMin="0" xMax="620" yMax="741">
      <component glyphName="emacron.sc" x="0" y="0" flags="0x204"/>
    </TTGlyph>
    <TTGlyph name="Eogonek" xMin="133" yMin="-289" xMax="747" yMax="700">
      <contour>
        <pt x="133" y="0" on="1"/>
        <pt x="133" y="700" on="1"/>
        <pt x="683" y="700" on="1"/>
        <pt x="687" y="657" on="1"/>
        <pt x="181" y="657" on="1"/>
        <pt x="181" y="384" on="1"/>
        <pt x="604" y="384" on="1"/>
        <pt x="604" y="340" on="1"/>
        <pt x="181" y="340" on="1"/>
        <pt x="181" y="43" on="1"/>
        <pt x="704" y="43" on="1"/>
        <pt x="701" y="0" on="1"/>
        <pt x="643" y="-59" on="1"/>
        <pt x="595" y="-108" on="0"/>
        <pt x="564" y="-161" on="0"/>
        <pt x="564" y="-186" on="1"/>
        <pt x="564" y="-222" on="0"/>
        <pt x="617" y="-252" on="0"/>
        <pt x="652" y="-252" on="1"/>
        <pt x="677" y="-252" on="0"/>
        <pt x="726" y="-238" on="0"/>
        <pt x="747" y="-222" on="1"/>
        <pt x="747" y="-263" on="1"/>
        <pt x="725" y="-276" on="0"/>
        <pt x="674" y="-289" on="0"/>
        <pt x="646" y="-289" on="1"/>
        <pt x="589" y="-289" on="0"/>
        <pt x="521" y="-239" on="0"/>
        <pt x="521" y="-192" on="1"/>
        <pt x="521" y="-159" on="0"/>
        <pt x="563" y="-89" on="0"/>
        <pt x="614" y="-38" on="1"/>
        <pt x="653" y="0" on="1"/>
      </contour>
    </TTGlyph>
    <TTGlyph name="Eogonek.sc" xMin="135" yMin="-289" xMax="663" yMax="567">
      <component glyphName="eogonek.sc" x="0" y="0" flags="0x204"/>
    </TTGlyph>
    <TTGlyph name="Eth" xMin="34" yMin="0" xMax="819" yMax="700">
      <contour>
        <pt x="163" y="0" on="1"/>
        <pt x="163" y="331" on="1"/>
        <pt x="34" y="331" on="1"/>
        <pt x="38" y="370" on="1"/>
        <pt x="163" y="370" on="1"/>
        <pt x="163" y="700" on="1"/>
        <pt x="466" y="700" on="1"/>
        <pt x="637" y="700" on="0"/>
        <pt x="819" y="513" on="0"/>
        <pt x="819" y="351" on="1"/>
        <pt x="819" y="270" on="0"/>
        <pt x="773" y="140" on="0"/>
        <pt x="684" y="49" on="0"/>
        <pt x="551" y="0" on="0"/>
        <pt x="466" y="0" on="1"/>
      </contour>
      <contour>
        <pt x="211" y="43" on="1"/>
        <pt x="465" y="43" on="1"/>
        <pt x="613" y="43" on="0"/>
        <pt x="769" y="204" on="0"/>
        <pt x="769" y="350" on="1"/>
        <pt x="769" y="496" on="0"/>
        <pt x="613" y="657" on="0"/>
        <pt x="466" y="657" on="1"/>
        <pt x="211" y="657" on="1"/>
        <pt x="211" y="370" on="1"/>
        <pt x="463" y="370" on="1"/>
        <pt x="463" y="331" on="1"/>
        <pt x="211" y="331" on="1"/>
      </contour>
    </TTGlyph>
    <TTGlyph name="Eth.sc" xMin="47" yMin="0" xMax="709" yMax="567">
      <component glyphName="eth.sc" x="0" y="0" flags="0x204"/>
    </TTGlyph>
    <TTGlyph name="Euro" xMin="50" yMin="-13" xMax="713" yMax="713">
      <contour>
        <pt x="50" y="238" on="1"/>
        <pt x="54" y="273" on="1"/>
        <pt x="176" y="273" on="1"/>
        <pt x="174" y="289" on="0"/>
        <pt x="172" y="321" on="0"/>
        <pt x="172" y="337" on="1"/>
        <pt x="172" y="356" on="0"/>
        <pt x="175" y="392" on="0"/>
        <pt x="178" y="410" on="1"/>
        <pt x="72" y="410" on="1"/>
        <pt x="76" y="445" on="1"/>
        <pt x="185" y="445" on="1"/>
        <pt x="199" y="504" on="0"/>
        <pt x="259" y="603" on="0"/>
        <pt x="345" y="674" on="0"/>
        <pt x="457" y="713" on="0"/>
        <pt x="523" y="713" on="1"/>
        <pt x="577" y="713" on="0"/>
        <pt x="673" y="690" on="0"/>
        <pt x="713" y="668" on="1"/>
        <pt x="713" y="623" on="1"/>
        <pt x="712" y="623" on="1"/>
        <pt x="668" y="648" on="0"/>
        <pt x="574" y="672" on="0"/>
        <pt x="523" y="672" on="1"/>
        <pt x="411" y="672" on="0"/>
        <pt x="257" y="546" on="0"/>
        <pt x="230" y="445" on="1"/>
        <pt x="583" y="445" on="1"/>
        <pt x="583" y="410" on="1"/>
        <pt x="223" y="410" on="1"/>
        <pt x="220" y="393" on="0"/>
        <pt x="217" y="358" on="0"/>
        <pt x="217" y="339" on="1"/>
        <pt x="217" y="322" on="0"/>
        <pt x="220" y="289" on="0"/>
        <pt x="222" y="273" on="1"/>
        <pt x="583" y="273" on="1"/>
        <pt x="583" y="238" on="1"/>
        <pt x="230" y="238" on="1"/>
        <pt x="255" y="142" on="0"/>
        <pt x="403" y="28" on="0"/>
        <pt x="514" y="28" on="1"/>
        <pt x="567" y="28" on="0"/>
        <pt x="665" y="51" on="0"/>
        <pt x="712" y="73" on="1"/>
        <pt x="713" y="73" on="1"/>
        <pt x="713" y="28" on="1"/>
        <pt x="668" y="9" on="0"/>
        <pt x="568" y="-13" on="0"/>
        <pt x="511" y="-13" on="1"/>
        <pt x="378" y="-13" on="0"/>
        <pt x="208" y="126" on="0"/>
        <pt x="183" y="238" on="1"/>
      </contour>
    </TTGlyph>
    <TTGlyph name="Euro.tab" xMin="31" yMin="-13" xMax="662" yMax="713">
      <contour>
        <pt x="31" y="238" on="1"/>
        <pt x="35" y="273" on="1"/>
        <pt x="148" y="273" on="1"/>
        <pt x="146" y="289" on="0"/>
        <pt x="144" y="321" on="0"/>
        <pt x="144" y="337" on="1"/>
        <pt x="144" y="356" on="0"/>
        <pt x="147" y="393" on="0"/>
        <pt x="149" y="410" on="1"/>
        <pt x="52" y="410" on="1"/>
        <pt x="57" y="445" on="1"/>
        <pt x="156" y="445" on="1"/>
        <pt x="170" y="504" on="0"/>
        <pt x="229" y="603" on="0"/>
        <pt x="312" y="674" on="0"/>
        <pt x="421" y="713" on="0"/>
        <pt x="484" y="713" on="1"/>
        <pt x="530" y="713" on="0"/>
        <pt x="622" y="691" on="0"/>
        <pt x="662" y="669" on="1"/>
        <pt x="662" y="624" on="1"/>
        <pt x="661" y="624" on="1"/>
        <pt x="617" y="648" on="0"/>
        <pt x="525" y="672" on="0"/>
        <pt x="483" y="672" on="1"/>
        <pt x="376" y="672" on="0"/>
        <pt x="229" y="546" on="0"/>
        <pt x="203" y="445" on="1"/>
        <pt x="532" y="445" on="1"/>
        <pt x="532" y="410" on="1"/>
        <pt x="196" y="410" on="1"/>
        <pt x="193" y="393" on="0"/>
        <pt x="190" y="358" on="0"/>
        <pt x="190" y="339" on="1"/>
        <pt x="190" y="322" on="0"/>
        <pt x="193" y="289" on="0"/>
        <pt x="195" y="273" on="1"/>
        <pt x="532" y="273" on="1"/>
        <pt x="532" y="238" on="1"/>
        <pt x="202" y="238" on="1"/>
        <pt x="227" y="142" on="0"/>
        <pt x="368" y="28" on="0"/>
        <pt x="474" y="28" on="1"/>
        <pt x="519" y="28" on="0"/>
        <pt x="615" y="50" on="0"/>
        <pt x="661" y="72" on="1"/>
        <pt x="662" y="72" on="1"/>
        <pt x="662" y="27" on="1"/>
        <pt x="617" y="8" on="0"/>
        <pt x="521" y="-13" on="0"/>
        <pt x="472" y="-13" on="1"/>
        <pt x="344" y="-13" on="0"/>
        <pt x="180" y="126" on="0"/>
        <pt x="155" y="238" on="1"/>
      </contour>
    </TTGlyph>
    <TTGlyph name="F" xMin="133" yMin="0" xMax="685" yMax="700">
      <contour>
        <pt x="133" y="0" on="1"/>
        <pt x="133" y="700" on="1"/>
        <pt x="682" y="700" on="1"/>
        <pt x="685" y="657" on="1"/>
        <pt x="181" y="657" on="1"/>
        <pt x="181" y="378" on="1"/>
        <pt x="607" y="378" on="1"/>
        <pt x="607" y="334" on="1"/>
        <pt x="181" y="334" on="1"/>
        <pt x="181" y="0" on="1"/>
      </contour>
    </TTGlyph>
    <TTGlyph name="F.sc" xMin="135" yMin="0" xMax="595" yMax="567">
      <component glyphName="f.sc" x="0" y="0" flags="0x204"/>
    </TTGlyph>
    <TTGlyph name="G" xMin="80" yMin="-19" xMax="808" yMax="713">
      <contour>
        <pt x="449" y="-19" on="1"/>
        <pt x="366" y="-19" on="0"/>
        <pt x="229" y="32" on="0"/>
        <pt x="133" y="125" on="0"/>
        <pt x="80" y="258" on="0"/>
        <pt x="80" y="339" on="1"/>
        <pt x="80" y="419" on="0"/>
        <pt x="135" y="557" on="0"/>
        <pt x="235" y="656" on="0"/>
        <pt x="377" y="713" on="0"/>
        <pt x="464" y="713" on="1"/>
        <pt x="540" y="713" on="0"/>
        <pt x="687" y="666" on="0"/>
        <pt x="738" y="623" on="1"/>
        <pt x="738" y="570" on="1"/>
        <pt x="737" y="570" on="1"/>
        <pt x="683" y="618" on="0"/>
        <pt x="541" y="669" on="0"/>
        <pt x="463" y="669" on="1"/>
        <pt x="387" y="669" on="0"/>
        <pt x="262" y="620" on="0"/>
        <pt x="176" y="533" on="0"/>
        <pt x="128" y="412" on="0"/>
        <pt x="128" y="341" on="1"/>
        <pt x="128" y="270" on="0"/>
        <pt x="173" y="153" on="0"/>
        <pt x="257" y="70" on="0"/>
        <pt x="377" y="24" on="0"/>
        <pt x="452" y="24" on="1"/>
        <pt x="593" y="24" on="0"/>
        <pt x="757" y="181" on="0"/>
        <pt x="761" y="315" on="1"/>
        <pt x="421" y="315" on="1"/>
        <pt x="421" y="356" on="1"/>
        <pt x="808" y="356" on="1"/>
        <pt x="808" y="328" on="1"/>
        <pt x="807" y="247" on="0"/>
        <pt x="755" y="118" on="0"/>
        <pt x="662" y="29" on="0"/>
        <pt x="530" y="-19" on="0"/>
      </contour>
    </TTGlyph>
    <TTGlyph name="G.sc" xMin="83" yMin="-16" xMax="690" yMax="578">
      <component glyphName="g.sc" x="0" y="0" flags="0x204"/>
    </TTGlyph>
    <TTGlyph name="Gbreve" xMin="80" yMin="-19" xMax="808" yMax="1001">
      <component glyphName="G" x="0" y="0" flags="0x204"/>
      <component glyphName="breve" x="193" y="189" flags="0x4"/>
    </TTGlyph>
    <TTGlyph name="Gbreve.sc" xMin="83" yMin="-16" xMax="690" yMax="866">
      <component glyphName="gbreve.sc" x="0" y="0" flags="0x204"/>
    </TTGlyph>
    <TTGlyph name="Gdotaccent" xMin="80" yMin="-19" xMax="808" yMax="906">
      <component glyphName="G" x="0" y="0" flags="0x204"/>
      <component glyphName="dotaccent" x="193" y="189" flags="0x4"/>
    </TTGlyph>
    <TTGlyph name="Gdotaccent.sc" xMin="83" yMin="-16" xMax="690" yMax="771">
      <component glyphName="gdotaccent.sc" x="0" y="0" flags="0x204"/>
    </TTGlyph>
    <TTGlyph name="H" xMin="133" yMin="0" xMax="741" yMax="700">
      <contour>
        <pt x="133" y="0" on="1"/>
        <pt x="133" y="700" on="1"/>
        <pt x="181" y="700" on="1"/>
        <pt x="181" y="384" on="1"/>
        <pt x="693" y="384" on="1"/>
        <pt x="693" y="700" on="1"/>
        <pt x="741" y="700" on="1"/>
        <pt x="741" y="0" on="1"/>
        <pt x="693" y="0" on="1"/>
        <pt x="693" y="340" on="1"/>
        <pt x="181" y="340" on="1"/>
        <pt x="181" y="0" on="1"/>
      </contour>
    </TTGlyph>
    <TTGlyph name="H.sc" xMin="135" yMin="0" xMax="656" yMax="567">
      <component glyphName="h.sc" x="0" y="0" flags="0x204"/>
    </TTGlyph>
    <TTGlyph name="Hbar" xMin="34" yMin="0" xMax="900" yMax="700">
      <contour>
        <pt x="163" y="0" on="1"/>
        <pt x="163" y="522" on="1"/>
        <pt x="34" y="522" on="1"/>
        <pt x="37" y="561" on="1"/>
        <pt x="163" y="561" on="1"/>
        <pt x="163" y="700" on="1"/>
        <pt x="211" y="700" on="1"/>
        <pt x="211" y="560" on="1"/>
        <pt x="723" y="560" on="1"/>
        <pt x="723" y="700" on="1"/>
        <pt x="771" y="700" on="1"/>
        <pt x="771" y="561" on="1"/>
        <pt x="897" y="561" on="1"/>
        <pt x="900" y="522" on="1"/>
        <pt x="771" y="522" on="1"/>
        <pt x="771" y="0" on="1"/>
        <pt x="723" y="0" on="1"/>
        <pt x="723" y="309" on="1"/>
        <pt x="211" y="309" on="1"/>
        <pt x="211" y="0" on="1"/>
      </contour>
      <contour>
        <pt x="211" y="353" on="1"/>
        <pt x="723" y="353" on="1"/>
        <pt x="723" y="524" on="1"/>
        <pt x="211" y="524" on="1"/>
      </contour>
    </TTGlyph>
    <TTGlyph name="Hbar.sc" xMin="47" yMin="0" xMax="788" yMax="567">
      <component glyphName="hbar.sc" x="0" y="0" flags="0x204"/>
    </TTGlyph>
    <TTGlyph name="I" xMin="138" yMin="0" xMax="186" yMax="700">
      <contour>
        <pt x="138" y="0" on="1"/>
        <pt x="138" y="700" on="1"/>
        <pt x="186" y="700" on="1"/>
        <pt x="186" y="0" on="1"/>
      </contour>
    </TTGlyph>
    <TTGlyph name="I.sc" xMin="139" yMin="0" xMax="185" yMax="567">
      <component glyphName="i.sc" x="0" y="0" flags="0x204"/>
    </TTGlyph>
    <TTGlyph name="Iacute" xMin="138" yMin="0" xMax="342" yMax="983">
      <component glyphName="I" x="0" y="0" flags="0x204"/>
      <component glyphName="acute" x="-22" y="176" flags="0x4"/>
    </TTGlyph>
    <TTGlyph name="Iacute.sc" xMin="139" yMin="0" xMax="342" yMax="850">
      <component glyphName="iacute.sc" x="0" y="0" flags="0x204"/>
    </TTGlyph>
    <TTGlyph name="Ibreve" xMin="-1" yMin="0" xMax="325" yMax="988">
      <component glyphName="I" x="0" y="0" flags="0x204"/>
      <component glyphName="breve" x="-88" y="176" flags="0x4"/>
    </TTGlyph>
    <TTGlyph name="Ibreve.sc" xMin="-1" yMin="0" xMax="325" yMax="855">
      <component glyphName="ibreve.sc" x="0" y="0" flags="0x204"/>
    </TTGlyph>
    <TTGlyph name="Icircumflex" xMin="-21" yMin="0" xMax="345" yMax="986">
      <component glyphName="I" x="0" y="0" flags="0x204"/>
      <component glyphName="circumflex" x="-88" y="176" flags="0x4"/>
    </TTGlyph>
    <TTGlyph name="Icircumflex.sc" xMin="-21" yMin="0" xMax="345" yMax="853">
      <component glyphName="icircumflex.sc" x="0" y="0" flags="0x204"/>
    </TTGlyph>
    <TTGlyph name="Idieresis" xMin="-2" yMin="0" xMax="326" yMax="891">
      <component glyphName="I" x="0" y="0" flags="0x204"/>
      <component glyphName="dieresis" x="-88" y="176" flags="0x4"/>
    </TTGlyph>
    <TTGlyph name="Idieresis.sc" xMin="-2" yMin="0" xMax="326" yMax="758">
      <component glyphName="idieresis.sc" x="0" y="0" flags="0x204"/>
    </TTGlyph>
    <TTGlyph name="Idotaccent" xMin="123" yMin="0" xMax="201" yMax="893">
      <component glyphName="I" x="0" y="0" flags="0x204"/>
      <component glyphName="dotaccent" x="-88" y="176" flags="0x4"/>
    </TTGlyph>
    <TTGlyph name="Idotaccent.sc" xMin="123" yMin="0" xMax="201" yMax="760">
      <component glyphName="idotaccent.sc" x="0" y="0" flags="0x204"/>
    </TTGlyph>
    <TTGlyph name="Igrave" xMin="-18" yMin="0" xMax="186" yMax="983">
      <component glyphName="I" x="0" y="0" flags="0x204"/>
      <component glyphName="grave" x="-154" y="176" flags="0x4"/>
    </TTGlyph>
    <TTGlyph name="Igrave.sc" xMin="-18" yMin="0" xMax="185" yMax="850">
      <component glyphName="igrave.sc" x="0" y="0" flags="0x204"/>
    </TTGlyph>
    <TTGlyph name="Imacron" xMin="-14" yMin="0" xMax="338" yMax="874">
      <component glyphName="I" x="0" y="0" flags="0x204"/>
      <component glyphName="macron" x="-88" y="176" flags="0x4"/>
    </TTGlyph>
    <TTGlyph name="Imacron.sc" xMin="-14" yMin="0" xMax="338" yMax="741">
      <component glyphName="imacron.sc" x="0" y="0" flags="0x204"/>
    </TTGlyph>
    <TTGlyph name="Iogonek" xMin="5" yMin="-289" xMax="231" yMax="700">
      <contour>
        <pt x="231" y="-263" on="1"/>
        <pt x="209" y="-276" on="0"/>
        <pt x="158" y="-289" on="0"/>
        <pt x="130" y="-289" on="1"/>
        <pt x="73" y="-289" on="0"/>
        <pt x="5" y="-239" on="0"/>
        <pt x="5" y="-192" on="1"/>
        <pt x="5" y="-159" on="0"/>
        <pt x="47" y="-89" on="0"/>
        <pt x="98" y="-38" on="1"/>
        <pt x="138" y="1" on="1"/>
        <pt x="138" y="700" on="1"/>
        <pt x="186" y="700" on="1"/>
        <pt x="186" y="0" on="1"/>
        <pt x="185" y="0" on="1"/>
        <pt x="127" y="-59" on="1"/>
        <pt x="79" y="-108" on="0"/>
        <pt x="48" y="-161" on="0"/>
        <pt x="48" y="-186" on="1"/>
        <pt x="48" y="-222" on="0"/>
        <pt x="101" y="-252" on="0"/>
        <pt x="136" y="-252" on="1"/>
        <pt x="161" y="-252" on="0"/>
        <pt x="210" y="-238" on="0"/>
        <pt x="231" y="-222" on="1"/>
      </contour>
    </TTGlyph>
    <TTGlyph name="Iogonek.sc" xMin="5" yMin="-289" xMax="231" yMax="567">
      <component glyphName="iogonek.sc" x="0" y="0" flags="0x204"/>
    </TTGlyph>
    <TTGlyph name="J" xMin="78" yMin="-14" xMax="608" yMax="700">
      <contour>
        <pt x="347" y="-14" on="1"/>
        <pt x="281" y="-14" on="0"/>
        <pt x="144" y="28" on="0"/>
        <pt x="78" y="74" on="1"/>
        <pt x="78" y="126" on="1"/>
        <pt x="79" y="126" on="1"/>
        <pt x="145" y="75" on="0"/>
        <pt x="282" y="29" on="0"/>
        <pt x="347" y="29" on="1"/>
        <pt x="448" y="29" on="0"/>
        <pt x="560" y="132" on="0"/>
        <pt x="560" y="237" on="1"/>
        <pt x="560" y="657" on="1"/>
        <pt x="232" y="657" on="1"/>
        <pt x="235" y="700" on="1"/>
        <pt x="608" y="700" on="1"/>
        <pt x="608" y="230" on="1"/>
        <pt x="608" y="109" on="0"/>
        <pt x="470" y="-14" on="0"/>
      </contour>
    </TTGlyph>
    <TTGlyph name="J.sc" xMin="85" yMin="-12" xMax="537" yMax="567">
      <component glyphName="j.sc" x="0" y="0" flags="0x204"/>
    </TTGlyph>
    <TTGlyph name="K" xMin="133" yMin="0" xMax="761" yMax="700">
      <contour>
        <pt x="133" y="0" on="1"/>
        <pt x="133" y="700" on="1"/>
        <pt x="181" y="700" on="1"/>
        <pt x="181" y="380" on="1"/>
        <pt x="386" y="380" on="1"/>
        <pt x="680" y="700" on="1"/>
        <pt x="737" y="700" on="1"/>
        <pt x="425" y="360" on="1"/>
        <pt x="761" y="0" on="1"/>
        <pt x="701" y="0" on="1"/>
        <pt x="384" y="336" on="1"/>
        <pt x="181" y="336" on="1"/>
        <pt x="181" y="0" on="1"/>
      </contour>
    </TTGlyph>
    <TTGlyph name="K.sc" xMin="135" yMin="0" xMax="667" yMax="567">
      <component glyphName="k.sc" x="0" y="0" flags="0x204"/>
    </TTGlyph>
    <TTGlyph name="L" xMin="133" yMin="0" xMax="649" yMax="700">
      <contour>
        <pt x="133" y="0" on="1"/>
        <pt x="133" y="700" on="1"/>
        <pt x="181" y="700" on="1"/>
        <pt x="181" y="44" on="1"/>
        <pt x="649" y="44" on="1"/>
        <pt x="645" y="0" on="1"/>
      </contour>
    </TTGlyph>
    <TTGlyph name="L.sc" xMin="135" yMin="0" xMax="576" yMax="567">
      <component glyphName="l.sc" x="0" y="0" flags="0x204"/>
    </TTGlyph>
    <TTGlyph name="Lacute" xMin="133" yMin="0" xMax="649" yMax="983">
      <component glyphName="L" x="0" y="0" flags="0x204"/>
      <component glyphName="acute" x="-27" y="176" flags="0x4"/>
    </TTGlyph>
    <TTGlyph name="Lacute.sc" xMin="135" yMin="0" xMax="576" yMax="850">
      <component glyphName="lacute.sc" x="0" y="0" flags="0x204"/>
    </TTGlyph>
    <TTGlyph name="Lcaron" xMin="133" yMin="0" xMax="649" yMax="700">
      <component glyphName="L" x="0" y="0" flags="0x204"/>
      <component glyphName="caron.alt" x="126" y="-89" flags="0x4"/>
    </TTGlyph>
    <TTGlyph name="Lcaron.sc" xMin="135" yMin="0" xMax="576" yMax="567">
      <component glyphName="lcaron.sc" x="0" y="0" flags="0x204"/>
    </TTGlyph>
    <TTGlyph name="Ldot" xMin="133" yMin="0" xMax="649" yMax="700">
      <contour>
        <pt x="133" y="0" on="1"/>
        <pt x="133" y="700" on="1"/>
        <pt x="181" y="700" on="1"/>
        <pt x="181" y="44" on="1"/>
        <pt x="649" y="44" on="1"/>
        <pt x="645" y="0" on="1"/>
      </contour>
      <contour>
        <pt x="509" y="379" on="1"/>
        <pt x="492" y="379" on="0"/>
        <pt x="471" y="400" on="0"/>
        <pt x="471" y="415" on="1"/>
        <pt x="471" y="428" on="0"/>
        <pt x="492" y="450" on="0"/>
        <pt x="509" y="450" on="1"/>
        <pt x="528" y="450" on="0"/>
        <pt x="549" y="428" on="0"/>
        <pt x="549" y="415" on="1"/>
        <pt x="549" y="400" on="0"/>
        <pt x="528" y="379" on="0"/>
      </contour>
    </TTGlyph>
    <TTGlyph name="Ldot.sc" xMin="135" yMin="0" xMax="576" yMax="567">
      <component glyphName="ldot.sc" x="0" y="0" flags="0x204"/>
    </TTGlyph>
    <TTGlyph name="Lslash" xMin="32" yMin="0" xMax="669" yMax="700">
      <contour>
        <pt x="154" y="0" on="1"/>
        <pt x="154" y="270" on="1"/>
        <pt x="32" y="199" on="1"/>
        <pt x="32" y="245" on="1"/>
        <pt x="154" y="316" on="1"/>
        <pt x="154" y="700" on="1"/>
        <pt x="202" y="700" on="1"/>
        <pt x="202" y="344" on="1"/>
        <pt x="496" y="514" on="1"/>
        <pt x="496" y="468" on="1"/>
        <pt x="202" y="297" on="1"/>
        <pt x="202" y="44" on="1"/>
        <pt x="669" y="44" on="1"/>
        <pt x="666" y="0" on="1"/>
      </contour>
    </TTGlyph>
    <TTGlyph name="Lslash.sc" xMin="49" yMin="0" xMax="599" yMax="567">
      <component glyphName="lslash.sc" x="0" y="0" flags="0x204"/>
    </TTGlyph>
    <TTGlyph name="M" xMin="133" yMin="0" xMax="895" yMax="700">
      <contour>
        <pt x="133" y="0" on="1"/>
        <pt x="133" y="700" on="1"/>
        <pt x="212" y="700" on="1"/>
        <pt x="514" y="160" on="1"/>
        <pt x="816" y="700" on="1"/>
        <pt x="895" y="700" on="1"/>
        <pt x="895" y="0" on="1"/>
        <pt x="848" y="0" on="1"/>
        <pt x="848" y="636" on="1"/>
        <pt x="832" y="636" on="1"/>
        <pt x="517" y="73" on="1"/>
        <pt x="510" y="73" on="1"/>
        <pt x="195" y="636" on="1"/>
        <pt x="180" y="636" on="1"/>
        <pt x="180" y="0" on="1"/>
      </contour>
    </TTGlyph>
    <TTGlyph name="M.sc" xMin="135" yMin="0" xMax="783" yMax="567">
      <component glyphName="m.sc" x="0" y="0" flags="0x204"/>
    </TTGlyph>
    <TTGlyph name="N" xMin="133" yMin="0" xMax="742" yMax="700">
      <contour>
        <pt x="133" y="0" on="1"/>
        <pt x="133" y="700" on="1"/>
        <pt x="208" y="700" on="1"/>
        <pt x="681" y="62" on="1"/>
        <pt x="695" y="62" on="1"/>
        <pt x="695" y="700" on="1"/>
        <pt x="742" y="700" on="1"/>
        <pt x="742" y="0" on="1"/>
        <pt x="669" y="0" on="1"/>
        <pt x="194" y="641" on="1"/>
        <pt x="180" y="641" on="1"/>
        <pt x="180" y="0" on="1"/>
      </contour>
    </TTGlyph>
    <TTGlyph name="N.sc" xMin="135" yMin="0" xMax="665" yMax="567">
      <component glyphName="n.sc" x="0" y="0" flags="0x204"/>
    </TTGlyph>
    <TTGlyph name="Nacute" xMin="133" yMin="0" xMax="742" yMax="958">
      <component glyphName="N" x="0" y="0" flags="0x204"/>
      <component glyphName="acute" x="257" y="151" flags="0x4"/>
    </TTGlyph>
    <TTGlyph name="Nacute.sc" xMin="135" yMin="0" xMax="665" yMax="827">
      <component glyphName="nacute.sc" x="0" y="0" flags="0x204"/>
    </TTGlyph>
    <TTGlyph name="Ncaron" xMin="133" yMin="0" xMax="742" yMax="961">
      <component glyphName="N" x="0" y="0" flags="0x204"/>
      <component glyphName="caron" x="204" y="151" flags="0x4"/>
    </TTGlyph>
    <TTGlyph name="Ncaron.sc" xMin="135" yMin="0" xMax="665" yMax="830">
      <component glyphName="ncaron.sc" x="0" y="0" flags="0x204"/>
    </TTGlyph>
    <TTGlyph name="Ntilde" xMin="133" yMin="0" xMax="742" yMax="931">
      <component glyphName="N" x="0" y="0" flags="0x204"/>
      <component glyphName="tilde" x="204" y="176" flags="0x4"/>
    </TTGlyph>
    <TTGlyph name="Ntilde.sc" xMin="135" yMin="0" xMax="665" yMax="798">
      <component glyphName="ntilde.sc" x="0" y="0" flags="0x204"/>
    </TTGlyph>
    <TTGlyph name="O" xMin="80" yMin="-19" xMax="837" yMax="719">
      <contour>
        <pt x="458" y="-19" on="1"/>
        <pt x="371" y="-19" on="0"/>
        <pt x="231" y="33" on="0"/>
        <pt x="133" y="129" on="0"/>
        <pt x="80" y="266" on="0"/>
        <pt x="80" y="350" on="1"/>
        <pt x="80" y="432" on="0"/>
        <pt x="133" y="569" on="0"/>
        <pt x="231" y="665" on="0"/>
        <pt x="372" y="719" on="0"/>
        <pt x="458" y="719" on="1"/>
        <pt x="545" y="719" on="0"/>
        <pt x="685" y="667" on="0"/>
        <pt x="784" y="571" on="0"/>
        <pt x="837" y="434" on="0"/>
        <pt x="837" y="350" on="1"/>
        <pt x="837" y="268" on="0"/>
        <pt x="783" y="131" on="0"/>
        <pt x="685" y="35" on="0"/>
        <pt x="544" y="-19" on="0"/>
      </contour>
      <contour>
        <pt x="458" y="24" on="1"/>
        <pt x="533" y="24" on="0"/>
        <pt x="656" y="70" on="0"/>
        <pt x="741" y="155" on="0"/>
        <pt x="788" y="276" on="0"/>
        <pt x="788" y="350" on="1"/>
        <pt x="788" y="424" on="0"/>
        <pt x="742" y="545" on="0"/>
        <pt x="656" y="630" on="0"/>
        <pt x="534" y="676" on="0"/>
        <pt x="458" y="676" on="1"/>
        <pt x="383" y="676" on="0"/>
        <pt x="260" y="630" on="0"/>
        <pt x="175" y="545" on="0"/>
        <pt x="128" y="424" on="0"/>
        <pt x="128" y="350" on="1"/>
        <pt x="128" y="276" on="0"/>
        <pt x="174" y="155" on="0"/>
        <pt x="260" y="70" on="0"/>
        <pt x="382" y="24" on="0"/>
      </contour>
    </TTGlyph>
    <TTGlyph name="O.sc" xMin="83" yMin="-18" xMax="714" yMax="585">
      <component glyphName="o.sc" x="0" y="0" flags="0x204"/>
    </TTGlyph>
    <TTGlyph name="OE" xMin="81" yMin="0" xMax="1260" yMax="700">
      <contour>
        <pt x="81" y="349" on="1"/>
        <pt x="81" y="430" on="0"/>
        <pt x="127" y="560" on="0"/>
        <pt x="216" y="651" on="0"/>
        <pt x="348" y="700" on="0"/>
        <pt x="434" y="700" on="1"/>
        <pt x="1239" y="700" on="1"/>
        <pt x="1243" y="657" on="1"/>
        <pt x="737" y="657" on="1"/>
        <pt x="737" y="384" on="1"/>
        <pt x="1160" y="384" on="1"/>
        <pt x="1160" y="340" on="1"/>
        <pt x="737" y="340" on="1"/>
        <pt x="737" y="43" on="1"/>
        <pt x="1260" y="43" on="1"/>
        <pt x="1257" y="0" on="1"/>
        <pt x="434" y="0" on="1"/>
        <pt x="262" y="0" on="0"/>
        <pt x="81" y="187" on="0"/>
      </contour>
      <contour>
        <pt x="689" y="657" on="1"/>
        <pt x="435" y="657" on="1"/>
        <pt x="287" y="657" on="0"/>
        <pt x="131" y="496" on="0"/>
        <pt x="131" y="350" on="1"/>
        <pt x="131" y="204" on="0"/>
        <pt x="287" y="43" on="0"/>
        <pt x="434" y="43" on="1"/>
        <pt x="689" y="43" on="1"/>
      </contour>
    </TTGlyph>
    <TTGlyph name="OE.sc" xMin="85" yMin="0" xMax="1076" yMax="567">
      <component glyphName="oe.sc" x="0" y="0" flags="0x204"/>
    </TTGlyph>
    <TTGlyph name="Oacute" xMin="80" yMin="-19" xMax="837" yMax="1002">
      <component glyphName="O" x="0" y="0" flags="0x204"/>
      <component glyphName="acute" x="261" y="195" flags="0x4"/>
    </TTGlyph>
    <TTGlyph name="Oacute.sc" xMin="83" yMin="-18" xMax="714" yMax="868">
      <component glyphName="oacute.sc" x="0" y="0" flags="0x204"/>
    </TTGlyph>
    <TTGlyph name="Obreve" xMin="80" yMin="-19" xMax="837" yMax="1007">
      <component glyphName="O" x="0" y="0" flags="0x204"/>
      <component glyphName="breve" x="208" y="195" flags="0x4"/>
    </TTGlyph>
    <TTGlyph name="Obreve.sc" xMin="83" yMin="-18" xMax="714" yMax="873">
      <component glyphName="obreve.sc" x="0" y="0" flags="0x204"/>
    </TTGlyph>
    <TTGlyph name="Ocircumflex" xMin="80" yMin="-19" xMax="837" yMax="1005">
      <component glyphName="O" x="0" y="0" flags="0x204"/>
      <component glyphName="circumflex" x="208" y="195" flags="0x4"/>
    </TTGlyph>
    <TTGlyph name="Ocircumflex.sc" xMin="83" yMin="-18" xMax="714" yMax="871">
      <component glyphName="ocircumflex.sc" x="0" y="0" flags="0x204"/>
    </TTGlyph>
    <TTGlyph name="Odieresis" xMin="80" yMin="-19" xMax="837" yMax="910">
      <component glyphName="O" x="0" y="0" flags="0x204"/>
      <component glyphName="dieresis" x="208" y="195" flags="0x4"/>
    </TTGlyph>
    <TTGlyph name="Odieresis.sc" xMin="83" yMin="-18" xMax="714" yMax="776">
      <component glyphName="odieresis.sc" x="0" y="0" flags="0x204"/>
    </TTGlyph>
    <TTGlyph name="Ograve" xMin="80" yMin="-19" xMax="837" yMax="1002">
      <component glyphName="O" x="0" y="0" flags="0x204"/>
      <component glyphName="grave" x="156" y="195" flags="0x4"/>
    </TTGlyph>
    <TTGlyph name="Ograve.sc" xMin="83" yMin="-18" xMax="714" yMax="868">
      <component glyphName="ograve.sc" x="0" y="0" flags="0x204"/>
    </TTGlyph>
    <TTGlyph name="Ohungarumlaut" xMin="80" yMin="-19" xMax="837" yMax="1002">
      <component glyphName="O" x="0" y="0" flags="0x204"/>
      <component glyphName="hungarumlaut" x="281" y="195" flags="0x4"/>
    </TTGlyph>
    <TTGlyph name="Ohungarumlaut.sc" xMin="83" yMin="-18" xMax="714" yMax="868">
      <component glyphName="ohungarumlaut.sc" x="0" y="0" flags="0x204"/>
    </TTGlyph>
    <TTGlyph name="Omacron" xMin="80" yMin="-19" xMax="837" yMax="893">
      <component glyphName="O" x="0" y="0" flags="0x204"/>
      <component glyphName="macron" x="208" y="195" flags="0x4"/>
    </TTGlyph>
    <TTGlyph name="Omacron.sc" xMin="83" yMin="-18" xMax="714" yMax="759">
      <component glyphName="omacron.sc" x="0" y="0" flags="0x204"/>
    </TTGlyph>
    <TTGlyph name="Oslash" xMin="80" yMin="-61" xMax="837" yMax="761">
      <contour>
        <pt x="83" y="-61" on="1"/>
        <pt x="193" y="70" on="1"/>
        <pt x="139" y="118" on="0"/>
        <pt x="80" y="261" on="0"/>
        <pt x="80" y="350" on="1"/>
        <pt x="80" y="432" on="0"/>
        <pt x="133" y="569" on="0"/>
        <pt x="231" y="665" on="0"/>
        <pt x="372" y="719" on="0"/>
        <pt x="458" y="719" on="1"/>
        <pt x="527" y="719" on="0"/>
        <pt x="644" y="686" on="0"/>
        <pt x="690" y="655" on="1"/>
        <pt x="780" y="761" on="1"/>
        <pt x="834" y="761" on="1"/>
        <pt x="723" y="630" on="1"/>
        <pt x="777" y="582" on="0"/>
        <pt x="837" y="439" on="0"/>
        <pt x="837" y="350" on="1"/>
        <pt x="837" y="268" on="0"/>
        <pt x="783" y="131" on="0"/>
        <pt x="685" y="35" on="0"/>
        <pt x="544" y="-19" on="0"/>
        <pt x="458" y="-19" on="1"/>
        <pt x="389" y="-19" on="0"/>
        <pt x="272" y="14" on="0"/>
        <pt x="226" y="45" on="1"/>
        <pt x="137" y="-61" on="1"/>
      </contour>
      <contour>
        <pt x="127" y="350" on="1"/>
        <pt x="127" y="272" on="0"/>
        <pt x="178" y="148" on="0"/>
        <pt x="224" y="105" on="1"/>
        <pt x="662" y="620" on="1"/>
        <pt x="622" y="648" on="0"/>
        <pt x="518" y="677" on="0"/>
        <pt x="458" y="677" on="1"/>
        <pt x="383" y="677" on="0"/>
        <pt x="260" y="631" on="0"/>
        <pt x="174" y="546" on="0"/>
        <pt x="127" y="424" on="0"/>
      </contour>
      <contour>
        <pt x="458" y="23" on="1"/>
        <pt x="533" y="23" on="0"/>
        <pt x="656" y="69" on="0"/>
        <pt x="742" y="154" on="0"/>
        <pt x="789" y="276" on="0"/>
        <pt x="789" y="350" on="1"/>
        <pt x="789" y="428" on="0"/>
        <pt x="739" y="552" on="0"/>
        <pt x="693" y="595" on="1"/>
        <pt x="255" y="80" on="1"/>
        <pt x="295" y="52" on="0"/>
        <pt x="398" y="23" on="0"/>
      </contour>
    </TTGlyph>
    <TTGlyph name="Oslash.sc" xMin="72" yMin="-51" xMax="725" yMax="618">
      <component glyphName="oslash.sc" x="0" y="0" flags="0x204"/>
    </TTGlyph>
    <TTGlyph name="Oslashacute" xMin="80" yMin="-61" xMax="837" yMax="999">
      <component glyphName="Oslash" x="0" y="0" flags="0x204"/>
      <component glyphName="acute" x="261" y="192" flags="0x4"/>
    </TTGlyph>
    <TTGlyph name="Oslashacute.sc" xMin="72" yMin="-51" xMax="725" yMax="863">
      <component glyphName="oslashacute.sc" x="0" y="0" flags="0x204"/>
    </TTGlyph>
    <TTGlyph name="Otilde" xMin="80" yMin="-19" xMax="837" yMax="950">
      <component glyphName="O" x="0" y="0" flags="0x204"/>
      <component glyphName="tilde" x="208" y="195" flags="0x4"/>
    </TTGlyph>
    <TTGlyph name="Otilde.sc" xMin="83" yMin="-18" xMax="714" yMax="816">
      <component glyphName="otilde.sc" x="0" y="0" flags="0x204"/>
    </TTGlyph>
    <TTGlyph name="P" xMin="133" yMin="0" xMax="717" yMax="700">
      <contour>
        <pt x="133" y="0" on="1"/>
        <pt x="133" y="700" on="1"/>
        <pt x="446" y="700" on="1"/>
        <pt x="580" y="700" on="0"/>
        <pt x="717" y="582" on="0"/>
        <pt x="717" y="473" on="1"/>
        <pt x="717" y="360" on="0"/>
        <pt x="576" y="237" on="0"/>
        <pt x="444" y="237" on="1"/>
        <pt x="181" y="237" on="1"/>
        <pt x="181" y="0" on="1"/>
      </contour>
      <contour>
        <pt x="181" y="281" on="1"/>
        <pt x="445" y="281" on="1"/>
        <pt x="558" y="281" on="0"/>
        <pt x="669" y="380" on="0"/>
        <pt x="669" y="470" on="1"/>
        <pt x="669" y="560" on="0"/>
        <pt x="557" y="657" on="0"/>
        <pt x="444" y="657" on="1"/>
        <pt x="181" y="657" on="1"/>
      </contour>
    </TTGlyph>
    <TTGlyph name="P.sc" xMin="135" yMin="0" xMax="638" yMax="567">
      <component glyphName="p.sc" x="0" y="0" flags="0x204"/>
    </TTGlyph>
    <TTGlyph name="Q" xMin="80" yMin="-27" xMax="869" yMax="719">
      <contour>
        <pt x="458" y="719" on="1"/>
        <pt x="545" y="719" on="0"/>
        <pt x="685" y="667" on="0"/>
        <pt x="784" y="571" on="0"/>
        <pt x="837" y="434" on="0"/>
        <pt x="837" y="350" on="1"/>
        <pt x="837" y="278" on="0"/>
        <pt x="795" y="154" on="0"/>
        <pt x="756" y="107" on="1"/>
        <pt x="869" y="25" on="1"/>
        <pt x="869" y="-27" on="1"/>
        <pt x="868" y="-27" on="1"/>
        <pt x="726" y="76" on="1"/>
        <pt x="677" y="31" on="0"/>
        <pt x="541" y="-19" on="0"/>
        <pt x="458" y="-19" on="1"/>
        <pt x="371" y="-19" on="0"/>
        <pt x="231" y="33" on="0"/>
        <pt x="133" y="129" on="0"/>
        <pt x="80" y="266" on="0"/>
        <pt x="80" y="350" on="1"/>
        <pt x="80" y="432" on="0"/>
        <pt x="133" y="569" on="0"/>
        <pt x="231" y="665" on="0"/>
        <pt x="372" y="719" on="0"/>
      </contour>
      <contour>
        <pt x="458" y="676" on="1"/>
        <pt x="383" y="676" on="0"/>
        <pt x="260" y="630" on="0"/>
        <pt x="175" y="545" on="0"/>
        <pt x="128" y="424" on="0"/>
        <pt x="128" y="350" on="1"/>
        <pt x="128" y="276" on="0"/>
        <pt x="175" y="155" on="0"/>
        <pt x="260" y="70" on="0"/>
        <pt x="383" y="24" on="0"/>
        <pt x="458" y="24" on="1"/>
        <pt x="530" y="24" on="0"/>
        <pt x="647" y="65" on="0"/>
        <pt x="690" y="103" on="1"/>
        <pt x="460" y="269" on="1"/>
        <pt x="486" y="304" on="1"/>
        <pt x="719" y="133" on="1"/>
        <pt x="753" y="175" on="0"/>
        <pt x="789" y="284" on="0"/>
        <pt x="789" y="350" on="1"/>
        <pt x="789" y="424" on="0"/>
        <pt x="742" y="545" on="0"/>
        <pt x="657" y="630" on="0"/>
        <pt x="534" y="676" on="0"/>
      </contour>
    </TTGlyph>
    <TTGlyph name="Q.sc" xMin="83" yMin="-27" xMax="726" yMax="585">
      <component glyphName="q.sc" x="0" y="0" flags="0x204"/>
    </TTGlyph>
    <TTGlyph name="R" xMin="133" yMin="0" xMax="741" yMax="700">
      <contour>
        <pt x="133" y="0" on="1"/>
        <pt x="133" y="700" on="1"/>
        <pt x="476" y="700" on="1"/>
        <pt x="598" y="700" on="0"/>
        <pt x="723" y="583" on="0"/>
        <pt x="723" y="483" on="1"/>
        <pt x="723" y="398" on="0"/>
        <pt x="625" y="282" on="0"/>
        <pt x="528" y="270" on="1"/>
        <pt x="741" y="0" on="1"/>
        <pt x="684" y="0" on="1"/>
        <pt x="478" y="264" on="1"/>
        <pt x="181" y="264" on="1"/>
        <pt x="181" y="0" on="1"/>
      </contour>
      <contour>
        <pt x="181" y="307" on="1"/>
        <pt x="476" y="307" on="1"/>
        <pt x="529" y="307" on="0"/>
        <pt x="605" y="335" on="0"/>
        <pt x="653" y="382" on="0"/>
        <pt x="675" y="446" on="0"/>
        <pt x="675" y="482" on="1"/>
        <pt x="675" y="518" on="0"/>
        <pt x="653" y="582" on="0"/>
        <pt x="605" y="629" on="0"/>
        <pt x="529" y="657" on="0"/>
        <pt x="476" y="657" on="1"/>
        <pt x="181" y="657" on="1"/>
      </contour>
    </TTGlyph>
    <TTGlyph name="R.sc" xMin="135" yMin="0" xMax="647" yMax="567">
      <component glyphName="r.sc" x="0" y="0" flags="0x204"/>
    </TTGlyph>
    <TTGlyph name="R_p" xMin="163" yMin="-182" xMax="1410" yMax="700">
      <contour>
        <pt x="163" y="0" on="1"/>
        <pt x="163" y="700" on="1"/>
        <pt x="481" y="700" on="1"/>
        <pt x="603" y="700" on="0"/>
        <pt x="728" y="583" on="0"/>
        <pt x="728" y="483" on="1"/>
        <pt x="728" y="398" on="0"/>
        <pt x="629" y="283" on="0"/>
        <pt x="533" y="270" on="1"/>
        <pt x="746" y="0" on="1"/>
        <pt x="690" y="0" on="1"/>
        <pt x="484" y="264" on="1"/>
        <pt x="210" y="264" on="1"/>
        <pt x="210" y="0" on="1"/>
      </contour>
      <contour>
        <pt x="210" y="306" on="1"/>
        <pt x="480" y="306" on="1"/>
        <pt x="587" y="306" on="0"/>
        <pt x="681" y="409" on="0"/>
        <pt x="681" y="482" on="1"/>
        <pt x="681" y="555" on="0"/>
        <pt x="587" y="658" on="0"/>
        <pt x="480" y="658" on="1"/>
        <pt x="210" y="658" on="1"/>
      </contour>
      <contour>
        <pt x="896" y="-182" on="1"/>
        <pt x="896" y="524" on="1"/>
        <pt x="941" y="524" on="1"/>
        <pt x="941" y="433" on="1"/>
        <pt x="974" y="470" on="0"/>
        <pt x="1087" y="537" on="0"/>
        <pt x="1161" y="537" on="1"/>
        <pt x="1212" y="537" on="0"/>
        <pt x="1304" y="501" on="0"/>
        <pt x="1371" y="432" on="0"/>
        <pt x="1410" y="330" on="0"/>
        <pt x="1410" y="264" on="1"/>
        <pt x="1410" y="207" on="0"/>
        <pt x="1369" y="105" on="0"/>
        <pt x="1297" y="30" on="0"/>
        <pt x="1196" y="-14" on="0"/>
        <pt x="1136" y="-14" on="1"/>
        <pt x="1071" y="-14" on="0"/>
        <pt x="977" y="29" on="0"/>
        <pt x="942" y="62" on="1"/>
        <pt x="942" y="-182" on="1"/>
      </contour>
      <contour>
        <pt x="1133" y="26" on="1"/>
        <pt x="1184" y="26" on="0"/>
        <pt x="1270" y="64" on="0"/>
        <pt x="1330" y="128" on="0"/>
        <pt x="1363" y="214" on="0"/>
        <pt x="1363" y="263" on="1"/>
        <pt x="1363" y="322" on="0"/>
        <pt x="1329" y="411" on="0"/>
        <pt x="1272" y="469" on="0"/>
        <pt x="1195" y="498" on="0"/>
        <pt x="1152" y="498" on="1"/>
        <pt x="1088" y="498" on="0"/>
        <pt x="976" y="435" on="0"/>
        <pt x="942" y="393" on="1"/>
        <pt x="942" y="115" on="1"/>
        <pt x="979" y="74" on="0"/>
        <pt x="1071" y="26" on="0"/>
      </contour>
    </TTGlyph>
    <TTGlyph name="Racute" xMin="133" yMin="0" xMax="741" yMax="983">
      <component glyphName="R" x="0" y="0" flags="0x204"/>
      <component glyphName="acute" x="210" y="176" flags="0x4"/>
    </TTGlyph>
    <TTGlyph name="Racute.sc" xMin="135" yMin="0" xMax="647" yMax="850">
      <component glyphName="racute.sc" x="0" y="0" flags="0x204"/>
    </TTGlyph>
    <TTGlyph name="Rcaron" xMin="133" yMin="0" xMax="741" yMax="986">
      <component glyphName="R" x="0" y="0" flags="0x204"/>
      <component glyphName="caron" x="157" y="176" flags="0x4"/>
    </TTGlyph>
    <TTGlyph name="Rcaron.sc" xMin="135" yMin="0" xMax="647" yMax="853">
      <component glyphName="rcaron.sc" x="0" y="0" flags="0x204"/>
    </TTGlyph>
    <TTGlyph name="S" xMin="86" yMin="-16" xMax="686" yMax="716">
      <contour>
        <pt x="402" y="-16" on="1"/>
        <pt x="308" y="-16" on="0"/>
        <pt x="152" y="30" on="0"/>
        <pt x="86" y="67" on="1"/>
        <pt x="86" y="119" on="1"/>
        <pt x="87" y="119" on="1"/>
        <pt x="158" y="76" on="0"/>
        <pt x="319" y="28" on="0"/>
        <pt x="403" y="28" on="1"/>
        <pt x="513" y="28" on="0"/>
        <pt x="637" y="112" on="0"/>
        <pt x="637" y="183" on="1"/>
        <pt x="637" y="246" on="0"/>
        <pt x="531" y="309" on="0"/>
        <pt x="390" y="335" on="1"/>
        <pt x="245" y="362" on="0"/>
        <pt x="112" y="441" on="0"/>
        <pt x="112" y="522" on="1"/>
        <pt x="112" y="563" on="0"/>
        <pt x="151" y="634" on="0"/>
        <pt x="223" y="686" on="0"/>
        <pt x="327" y="716" on="0"/>
        <pt x="391" y="716" on="1"/>
        <pt x="457" y="716" on="0"/>
        <pt x="600" y="681" on="0"/>
        <pt x="662" y="647" on="1"/>
        <pt x="662" y="594" on="1"/>
        <pt x="661" y="594" on="1"/>
        <pt x="598" y="635" on="0"/>
        <pt x="455" y="672" on="0"/>
        <pt x="388" y="672" on="1"/>
        <pt x="286" y="672" on="0"/>
        <pt x="161" y="591" on="0"/>
        <pt x="161" y="526" on="1"/>
        <pt x="161" y="463" on="0"/>
        <pt x="276" y="403" on="0"/>
        <pt x="410" y="378" on="1"/>
        <pt x="558" y="350" on="0"/>
        <pt x="686" y="270" on="0"/>
        <pt x="686" y="186" on="1"/>
        <pt x="686" y="144" on="0"/>
        <pt x="651" y="70" on="0"/>
        <pt x="581" y="16" on="0"/>
        <pt x="474" y="-16" on="0"/>
      </contour>
    </TTGlyph>
    <TTGlyph name="S.sc" xMin="87" yMin="-16" xMax="586" yMax="581">
      <component glyphName="s.sc" x="0" y="0" flags="0x204"/>
    </TTGlyph>
    <TTGlyph name="Sacute" xMin="86" yMin="-16" xMax="686" yMax="999">
      <component glyphName="S" x="0" y="0" flags="0x204"/>
      <component glyphName="acute" x="217" y="192" flags="0x4"/>
    </TTGlyph>
    <TTGlyph name="Sacute.sc" xMin="87" yMin="-16" xMax="586" yMax="864">
      <component glyphName="sacute.sc" x="0" y="0" flags="0x204"/>
    </TTGlyph>
    <TTGlyph name="Scaron" xMin="86" yMin="-16" xMax="686" yMax="1002">
      <component glyphName="S" x="0" y="0" flags="0x204"/>
      <component glyphName="caron" x="164" y="192" flags="0x4"/>
    </TTGlyph>
    <TTGlyph name="Scaron.sc" xMin="87" yMin="-16" xMax="586" yMax="867">
      <component glyphName="scaron.sc" x="0" y="0" flags="0x204"/>
    </TTGlyph>
    <TTGlyph name="Scedilla" xMin="86" yMin="-195" xMax="686" yMax="716">
      <contour>
        <pt x="686" y="186" on="1"/>
        <pt x="686" y="146" on="0"/>
        <pt x="654" y="75" on="0"/>
        <pt x="590" y="21" on="0"/>
        <pt x="492" y="-13" on="0"/>
        <pt x="426" y="-16" on="1"/>
        <pt x="295" y="-195" on="1"/>
        <pt x="233" y="-195" on="1"/>
        <pt x="233" y="-193" on="1"/>
        <pt x="382" y="-16" on="1"/>
        <pt x="295" y="-14" on="0"/>
        <pt x="148" y="32" on="0"/>
        <pt x="86" y="67" on="1"/>
        <pt x="86" y="119" on="1"/>
        <pt x="87" y="119" on="1"/>
        <pt x="158" y="76" on="0"/>
        <pt x="319" y="28" on="0"/>
        <pt x="403" y="28" on="1"/>
        <pt x="513" y="28" on="0"/>
        <pt x="637" y="112" on="0"/>
        <pt x="637" y="183" on="1"/>
        <pt x="637" y="246" on="0"/>
        <pt x="531" y="309" on="0"/>
        <pt x="390" y="335" on="1"/>
        <pt x="245" y="362" on="0"/>
        <pt x="112" y="441" on="0"/>
        <pt x="112" y="522" on="1"/>
        <pt x="112" y="563" on="0"/>
        <pt x="151" y="634" on="0"/>
        <pt x="223" y="686" on="0"/>
        <pt x="327" y="716" on="0"/>
        <pt x="391" y="716" on="1"/>
        <pt x="457" y="716" on="0"/>
        <pt x="600" y="681" on="0"/>
        <pt x="662" y="647" on="1"/>
        <pt x="662" y="594" on="1"/>
        <pt x="661" y="594" on="1"/>
        <pt x="598" y="635" on="0"/>
        <pt x="455" y="672" on="0"/>
        <pt x="388" y="672" on="1"/>
        <pt x="286" y="672" on="0"/>
        <pt x="161" y="591" on="0"/>
        <pt x="161" y="526" on="1"/>
        <pt x="161" y="463" on="0"/>
        <pt x="276" y="403" on="0"/>
        <pt x="410" y="378" on="1"/>
        <pt x="558" y="350" on="0"/>
        <pt x="686" y="270" on="0"/>
      </contour>
    </TTGlyph>
    <TTGlyph name="Scedilla.sc" xMin="87" yMin="-196" xMax="586" yMax="581">
      <component glyphName="scedilla.sc" x="0" y="0" flags="0x204"/>
    </TTGlyph>
    <TTGlyph name="T" xMin="49" yMin="0" xMax="715" yMax="700">
      <contour>
        <pt x="358" y="0" on="1"/>
        <pt x="358" y="656" on="1"/>
        <pt x="49" y="656" on="1"/>
        <pt x="52" y="700" on="1"/>
        <pt x="712" y="700" on="1"/>
        <pt x="715" y="656" on="1"/>
        <pt x="406" y="656" on="1"/>
        <pt x="406" y="0" on="1"/>
      </contour>
    </TTGlyph>
    <TTGlyph name="T.sc" xMin="55" yMin="0" xMax="634" yMax="567">
      <component glyphName="t.sc" x="0" y="0" flags="0x204"/>
    </TTGlyph>
    <TTGlyph name="Tcaron" xMin="49" yMin="0" xMax="715" yMax="986">
      <component glyphName="T" x="0" y="0" flags="0x204"/>
      <component glyphName="caron" x="132" y="176" flags="0x4"/>
    </TTGlyph>
    <TTGlyph name="Tcaron.sc" xMin="55" yMin="0" xMax="634" yMax="853">
      <component glyphName="tcaron.sc" x="0" y="0" flags="0x204"/>
    </TTGlyph>
    <TTGlyph name="Thorn" xMin="133" yMin="0" xMax="723" yMax="700">
      <contour>
        <pt x="133" y="0" on="1"/>
        <pt x="133" y="700" on="1"/>
        <pt x="181" y="700" on="1"/>
        <pt x="181" y="579" on="1"/>
        <pt x="450" y="579" on="1"/>
        <pt x="586" y="579" on="0"/>
        <pt x="723" y="464" on="0"/>
        <pt x="723" y="357" on="1"/>
        <pt x="723" y="246" on="0"/>
        <pt x="582" y="126" on="0"/>
        <pt x="448" y="126" on="1"/>
        <pt x="181" y="126" on="1"/>
        <pt x="181" y="0" on="1"/>
      </contour>
      <contour>
        <pt x="181" y="169" on="1"/>
        <pt x="448" y="169" on="1"/>
        <pt x="562" y="169" on="0"/>
        <pt x="675" y="267" on="0"/>
        <pt x="675" y="354" on="1"/>
        <pt x="675" y="441" on="0"/>
        <pt x="562" y="535" on="0"/>
        <pt x="448" y="535" on="1"/>
        <pt x="181" y="535" on="1"/>
      </contour>
    </TTGlyph>
    <TTGlyph name="Thorn.sc" xMin="135" yMin="0" xMax="643" yMax="567">
      <component glyphName="thorn.sc" x="0" y="0" flags="0x204"/>
    </TTGlyph>
    <TTGlyph name="U" xMin="120" yMin="-18" xMax="742" yMax="700">
      <contour>
        <pt x="432" y="-18" on="1"/>
        <pt x="362" y="-18" on="0"/>
        <pt x="246" y="14" on="0"/>
        <pt x="165" y="82" on="0"/>
        <pt x="120" y="189" on="0"/>
        <pt x="120" y="264" on="1"/>
        <pt x="120" y="700" on="1"/>
        <pt x="168" y="700" on="1"/>
        <pt x="168" y="268" on="1"/>
        <pt x="168" y="202" on="0"/>
        <pt x="207" y="109" on="0"/>
        <pt x="276" y="52" on="0"/>
        <pt x="374" y="26" on="0"/>
        <pt x="432" y="26" on="1"/>
        <pt x="490" y="26" on="0"/>
        <pt x="587" y="52" on="0"/>
        <pt x="657" y="109" on="0"/>
        <pt x="695" y="201" on="0"/>
        <pt x="695" y="267" on="1"/>
        <pt x="695" y="700" on="1"/>
        <pt x="742" y="700" on="1"/>
        <pt x="742" y="265" on="1"/>
        <pt x="742" y="190" on="0"/>
        <pt x="698" y="82" on="0"/>
        <pt x="617" y="14" on="0"/>
        <pt x="502" y="-18" on="0"/>
      </contour>
    </TTGlyph>
    <TTGlyph name="U.sc" xMin="124" yMin="-15" xMax="646" yMax="567">
      <component glyphName="u.sc" x="0" y="0" flags="0x204"/>
    </TTGlyph>
    <TTGlyph name="Uacute" xMin="120" yMin="-18" xMax="742" yMax="959">
      <component glyphName="U" x="0" y="0" flags="0x204"/>
      <component glyphName="acute" x="234" y="152" flags="0x4"/>
    </TTGlyph>
    <TTGlyph name="Uacute.sc" xMin="124" yMin="-15" xMax="646" yMax="827">
      <component glyphName="uacute.sc" x="0" y="0" flags="0x204"/>
    </TTGlyph>
    <TTGlyph name="Ubreve" xMin="120" yMin="-18" xMax="742" yMax="964">
      <component glyphName="U" x="0" y="0" flags="0x204"/>
      <component glyphName="breve" x="181" y="152" flags="0x4"/>
    </TTGlyph>
    <TTGlyph name="Ubreve.sc" xMin="124" yMin="-15" xMax="646" yMax="832">
      <component glyphName="ubreve.sc" x="0" y="0" flags="0x204"/>
    </TTGlyph>
    <TTGlyph name="Ucircumflex" xMin="120" yMin="-18" xMax="742" yMax="986">
      <component glyphName="U" x="0" y="0" flags="0x204"/>
      <component glyphName="circumflex" x="181" y="176" flags="0x4"/>
    </TTGlyph>
    <TTGlyph name="Ucircumflex.sc" xMin="124" yMin="-15" xMax="646" yMax="853">
      <component glyphName="ucircumflex.sc" x="0" y="0" flags="0x204"/>
    </TTGlyph>
    <TTGlyph name="Udieresis" xMin="120" yMin="-18" xMax="742" yMax="891">
      <component glyphName="U" x="0" y="0" flags="0x204"/>
      <component glyphName="dieresis" x="181" y="176" flags="0x4"/>
    </TTGlyph>
    <TTGlyph name="Udieresis.sc" xMin="124" yMin="-15" xMax="646" yMax="758">
      <component glyphName="udieresis.sc" x="0" y="0" flags="0x204"/>
    </TTGlyph>
    <TTGlyph name="Ugrave" xMin="120" yMin="-18" xMax="742" yMax="959">
      <component glyphName="U" x="0" y="0" flags="0x204"/>
      <component glyphName="grave" x="129" y="152" flags="0x4"/>
    </TTGlyph>
    <TTGlyph name="Ugrave.sc" xMin="124" yMin="-15" xMax="646" yMax="827">
      <component glyphName="ugrave.sc" x="0" y="0" flags="0x204"/>
    </TTGlyph>
    <TTGlyph name="Uhungarumlaut" xMin="120" yMin="-18" xMax="742" yMax="983">
      <component glyphName="U" x="0" y="0" flags="0x204"/>
      <component glyphName="hungarumlaut" x="236" y="176" flags="0x4"/>
    </TTGlyph>
    <TTGlyph name="Uhungarumlaut.sc" xMin="124" yMin="-15" xMax="654" yMax="850">
      <component glyphName="uhungarumlaut.sc" x="0" y="0" flags="0x204"/>
    </TTGlyph>
    <TTGlyph name="Umacron" xMin="120" yMin="-18" xMax="742" yMax="874">
      <component glyphName="U" x="0" y="0" flags="0x204"/>
      <component glyphName="macron" x="181" y="176" flags="0x4"/>
    </TTGlyph>
    <TTGlyph name="Umacron.sc" xMin="124" yMin="-15" xMax="646" yMax="741">
      <component glyphName="umacron.sc" x="0" y="0" flags="0x204"/>
    </TTGlyph>
    <TTGlyph name="Uogonek" xMin="120" yMin="-299" xMax="742" yMax="700">
      <contour>
        <pt x="432" y="-18" on="1"/>
        <pt x="362" y="-18" on="0"/>
        <pt x="246" y="14" on="0"/>
        <pt x="165" y="82" on="0"/>
        <pt x="120" y="189" on="0"/>
        <pt x="120" y="264" on="1"/>
        <pt x="120" y="700" on="1"/>
        <pt x="168" y="700" on="1"/>
        <pt x="168" y="268" on="1"/>
        <pt x="168" y="202" on="0"/>
        <pt x="207" y="109" on="0"/>
        <pt x="276" y="52" on="0"/>
        <pt x="374" y="26" on="0"/>
        <pt x="432" y="26" on="1"/>
        <pt x="490" y="26" on="0"/>
        <pt x="587" y="52" on="0"/>
        <pt x="657" y="109" on="0"/>
        <pt x="695" y="201" on="0"/>
        <pt x="695" y="267" on="1"/>
        <pt x="695" y="700" on="1"/>
        <pt x="742" y="700" on="1"/>
        <pt x="742" y="265" on="1"/>
        <pt x="742" y="134" on="0"/>
        <pt x="613" y="1" on="0"/>
        <pt x="503" y="-14" on="1"/>
        <pt x="449" y="-69" on="1"/>
        <pt x="401" y="-118" on="0"/>
        <pt x="370" y="-171" on="0"/>
        <pt x="370" y="-196" on="1"/>
        <pt x="370" y="-232" on="0"/>
        <pt x="423" y="-262" on="0"/>
        <pt x="458" y="-262" on="1"/>
        <pt x="483" y="-262" on="0"/>
        <pt x="532" y="-248" on="0"/>
        <pt x="553" y="-232" on="1"/>
        <pt x="553" y="-273" on="1"/>
        <pt x="531" y="-286" on="0"/>
        <pt x="480" y="-299" on="0"/>
        <pt x="452" y="-299" on="1"/>
        <pt x="395" y="-299" on="0"/>
        <pt x="327" y="-249" on="0"/>
        <pt x="327" y="-202" on="1"/>
        <pt x="327" y="-169" on="0"/>
        <pt x="369" y="-99" on="0"/>
        <pt x="420" y="-48" on="1"/>
        <pt x="451" y="-18" on="1"/>
        <pt x="447" y="-18" on="0"/>
        <pt x="436" y="-18" on="0"/>
      </contour>
    </TTGlyph>
    <TTGlyph name="Uogonek.sc" xMin="124" yMin="-292" xMax="646" yMax="567">
      <component glyphName="uogonek.sc" x="0" y="0" flags="0x204"/>
    </TTGlyph>
    <TTGlyph name="Uring" xMin="120" yMin="-18" xMax="742" yMax="1036">
      <component glyphName="U" x="0" y="0" flags="0x204"/>
      <component glyphName="ring" x="125" y="152" flags="0x4"/>
    </TTGlyph>
    <TTGlyph name="Uring.sc" xMin="124" yMin="-15" xMax="646" yMax="904">
      <component glyphName="uring.sc" x="0" y="0" flags="0x204"/>
    </TTGlyph>
    <TTGlyph name="V" xMin="67" yMin="0" xMax="746" yMax="700">
      <contour>
        <pt x="347" y="0" on="1"/>
        <pt x="67" y="700" on="1"/>
        <pt x="118" y="700" on="1"/>
        <pt x="381" y="44" on="1"/>
        <pt x="432" y="44" on="1"/>
        <pt x="696" y="700" on="1"/>
        <pt x="746" y="700" on="1"/>
        <pt x="467" y="0" on="1"/>
      </contour>
    </TTGlyph>
    <TTGlyph name="V.sc" xMin="66" yMin="0" xMax="656" yMax="567">
      <component glyphName="v.sc" x="0" y="0" flags="0x204"/>
    </TTGlyph>
    <TTGlyph name="W" xMin="79" yMin="0" xMax="1196" yMax="700">
      <contour>
        <pt x="295" y="0" on="1"/>
        <pt x="79" y="700" on="1"/>
        <pt x="130" y="700" on="1"/>
        <pt x="330" y="46" on="1"/>
        <pt x="375" y="46" on="1"/>
        <pt x="605" y="700" on="1"/>
        <pt x="673" y="700" on="1"/>
        <pt x="901" y="46" on="1"/>
        <pt x="946" y="46" on="1"/>
        <pt x="1146" y="700" on="1"/>
        <pt x="1196" y="700" on="1"/>
        <pt x="980" y="0" on="1"/>
        <pt x="870" y="0" on="1"/>
        <pt x="646" y="640" on="1"/>
        <pt x="630" y="640" on="1"/>
        <pt x="406" y="0" on="1"/>
      </contour>
    </TTGlyph>
    <TTGlyph name="W.sc" xMin="75" yMin="0" xMax="1013" yMax="567">
      <component glyphName="w.sc" x="0" y="0" flags="0x204"/>
    </TTGlyph>
    <TTGlyph name="Wacute" xMin="79" yMin="0" xMax="1196" yMax="983">
      <component glyphName="W" x="0" y="0" flags="0x204"/>
      <component glyphName="acute" x="455" y="176" flags="0x4"/>
    </TTGlyph>
    <TTGlyph name="Wacute.sc" xMin="75" yMin="0" xMax="1013" yMax="850">
      <component glyphName="wacute.sc" x="0" y="0" flags="0x204"/>
    </TTGlyph>
    <TTGlyph name="Wcircumflex" xMin="79" yMin="0" xMax="1196" yMax="986">
      <component glyphName="W" x="0" y="0" flags="0x204"/>
      <component glyphName="circumflex" x="387" y="176" flags="0x4"/>
    </TTGlyph>
    <TTGlyph name="Wcircumflex.sc" xMin="75" yMin="0" xMax="1013" yMax="853">
      <component glyphName="wcircumflex.sc" x="0" y="0" flags="0x204"/>
    </TTGlyph>
    <TTGlyph name="Wdieresis" xMin="79" yMin="0" xMax="1196" yMax="891">
      <component glyphName="W" x="0" y="0" flags="0x204"/>
      <component glyphName="dieresis" x="387" y="176" flags="0x4"/>
    </TTGlyph>
    <TTGlyph name="Wdieresis.sc" xMin="75" yMin="0" xMax="1013" yMax="758">
      <component glyphName="wdieresis.sc" x="0" y="0" flags="0x204"/>
    </TTGlyph>
    <TTGlyph name="Wgrave" xMin="79" yMin="0" xMax="1196" yMax="983">
      <component glyphName="W" x="0" y="0" flags="0x204"/>
      <component glyphName="grave" x="323" y="176" flags="0x4"/>
    </TTGlyph>
    <TTGlyph name="Wgrave.sc" xMin="75" yMin="0" xMax="1013" yMax="850">
      <component glyphName="wgrave.sc" x="0" y="0" flags="0x204"/>
    </TTGlyph>
    <TTGlyph name="X" xMin="62" yMin="0" xMax="746" yMax="700">
      <contour>
        <pt x="120" y="0" on="1"/>
        <pt x="62" y="0" on="1"/>
        <pt x="373" y="363" on="1"/>
        <pt x="83" y="700" on="1"/>
        <pt x="141" y="700" on="1"/>
        <pt x="405" y="392" on="1"/>
        <pt x="668" y="700" on="1"/>
        <pt x="726" y="700" on="1"/>
        <pt x="436" y="362" on="1"/>
        <pt x="746" y="0" on="1"/>
        <pt x="687" y="0" on="1"/>
        <pt x="403" y="331" on="1"/>
      </contour>
    </TTGlyph>
    <TTGlyph name="X.sc" xMin="73" yMin="0" xMax="645" yMax="567">
      <component glyphName="x.sc" x="0" y="0" flags="0x204"/>
    </TTGlyph>
    <TTGlyph name="Y" xMin="54" yMin="0" xMax="739" yMax="700">
      <contour>
        <pt x="373" y="0" on="1"/>
        <pt x="373" y="237" on="1"/>
        <pt x="54" y="700" on="1"/>
        <pt x="111" y="700" on="1"/>
        <pt x="396" y="284" on="1"/>
        <pt x="398" y="284" on="1"/>
        <pt x="684" y="700" on="1"/>
        <pt x="739" y="700" on="1"/>
        <pt x="420" y="238" on="1"/>
        <pt x="420" y="0" on="1"/>
      </contour>
    </TTGlyph>
    <TTGlyph name="Y.sc" xMin="52" yMin="0" xMax="638" yMax="567">
      <component glyphName="y.sc" x="0" y="0" flags="0x204"/>
    </TTGlyph>
    <TTGlyph name="Yacute" xMin="54" yMin="0" xMax="739" yMax="959">
      <component glyphName="Y" x="0" y="0" flags="0x204"/>
      <component glyphName="acute" x="200" y="152" flags="0x4"/>
    </TTGlyph>
    <TTGlyph name="Yacute.sc" xMin="52" yMin="0" xMax="638" yMax="827">
      <component glyphName="yacute.sc" x="0" y="0" flags="0x204"/>
    </TTGlyph>
    <TTGlyph name="Ycircumflex" xMin="54" yMin="0" xMax="739" yMax="986">
      <component glyphName="Y" x="0" y="0" flags="0x204"/>
      <component glyphName="circumflex" x="147" y="176" flags="0x4"/>
    </TTGlyph>
    <TTGlyph name="Ycircumflex.sc" xMin="52" yMin="0" xMax="638" yMax="853">
      <component glyphName="ycircumflex.sc" x="0" y="0" flags="0x204"/>
    </TTGlyph>
    <TTGlyph name="Ydieresis" xMin="54" yMin="0" xMax="739" yMax="891">
      <component glyphName="Y" x="0" y="0" flags="0x204"/>
      <component glyphName="dieresis" x="147" y="176" flags="0x4"/>
    </TTGlyph>
    <TTGlyph name="Ydieresis.sc" xMin="52" yMin="0" xMax="638" yMax="758">
      <component glyphName="ydieresis.sc" x="0" y="0" flags="0x204"/>
    </TTGlyph>
    <TTGlyph name="Ygrave" xMin="54" yMin="0" xMax="739" yMax="959">
      <component glyphName="Y" x="0" y="0" flags="0x204"/>
      <component glyphName="grave" x="95" y="152" flags="0x4"/>
    </TTGlyph>
    <TTGlyph name="Ygrave.sc" xMin="52" yMin="0" xMax="638" yMax="827">
      <component glyphName="ygrave.sc" x="0" y="0" flags="0x204"/>
    </TTGlyph>
    <TTGlyph name="Z" xMin="90" yMin="0" xMax="708" yMax="700">
      <contour>
        <pt x="90" y="0" on="1"/>
        <pt x="90" y="43" on="1"/>
        <pt x="644" y="657" on="1"/>
        <pt x="103" y="657" on="1"/>
        <pt x="107" y="700" on="1"/>
        <pt x="708" y="700" on="1"/>
        <pt x="708" y="660" on="1"/>
        <pt x="150" y="43" on="1"/>
        <pt x="708" y="43" on="1"/>
        <pt x="708" y="0" on="1"/>
      </contour>
    </TTGlyph>
    <TTGlyph name="Z.sc" xMin="80" yMin="0" xMax="594" yMax="567">
      <component glyphName="z.sc" x="0" y="0" flags="0x204"/>
    </TTGlyph>
    <TTGlyph name="Zacute" xMin="90" yMin="0" xMax="708" yMax="983">
      <component glyphName="Z" x="0" y="0" flags="0x204"/>
      <component glyphName="acute" x="206" y="176" flags="0x4"/>
    </TTGlyph>
    <TTGlyph name="Zacute.sc" xMin="80" yMin="0" xMax="594" yMax="850">
      <component glyphName="zacute.sc" x="0" y="0" flags="0x204"/>
    </TTGlyph>
    <TTGlyph name="Zcaron" xMin="90" yMin="0" xMax="708" yMax="986">
      <component glyphName="Z" x="0" y="0" flags="0x204"/>
      <component glyphName="caron" x="153" y="176" flags="0x4"/>
    </TTGlyph>
    <TTGlyph name="Zcaron.sc" xMin="80" yMin="0" xMax="594" yMax="853">
      <component glyphName="zcaron.sc" x="0" y="0" flags="0x204"/>
    </TTGlyph>
    <TTGlyph name="Zdotaccent" xMin="90" yMin="0" xMax="708" yMax="893">
      <component glyphName="Z" x="0" y="0" flags="0x204"/>
      <component glyphName="dotaccent" x="153" y="176" flags="0x4"/>
    </TTGlyph>
    <TTGlyph name="Zdotaccent.sc" xMin="80" yMin="0" xMax="594" yMax="760">
      <component glyphName="zdotaccent.sc" x="0" y="0" flags="0x204"/>
    </TTGlyph>
    <TTGlyph name="a" xMin="82" yMin="-13" xMax="535" yMax="537">
      <contour>
        <pt x="248" y="-13" on="1"/>
        <pt x="173" y="-13" on="0"/>
        <pt x="82" y="58" on="0"/>
        <pt x="82" y="121" on="1"/>
        <pt x="82" y="145" on="0"/>
        <pt x="100" y="195" on="0"/>
        <pt x="121" y="216" on="1"/>
        <pt x="161" y="256" on="0"/>
        <pt x="331" y="300" on="0"/>
        <pt x="490" y="308" on="1"/>
        <pt x="490" y="340" on="1"/>
        <pt x="490" y="420" on="0"/>
        <pt x="406" y="497" on="0"/>
        <pt x="328" y="497" on="1"/>
        <pt x="271" y="497" on="0"/>
        <pt x="154" y="451" on="0"/>
        <pt x="108" y="414" on="1"/>
        <pt x="107" y="414" on="1"/>
        <pt x="107" y="460" on="1"/>
        <pt x="154" y="496" on="0"/>
        <pt x="274" y="537" on="0"/>
        <pt x="334" y="537" on="1"/>
        <pt x="428" y="537" on="0"/>
        <pt x="535" y="441" on="0"/>
        <pt x="535" y="343" on="1"/>
        <pt x="535" y="0" on="1"/>
        <pt x="492" y="0" on="1"/>
        <pt x="491" y="107" on="1"/>
        <pt x="440" y="51" on="0"/>
        <pt x="321" y="-13" on="0"/>
      </contour>
      <contour>
        <pt x="256" y="24" on="1"/>
        <pt x="324" y="24" on="0"/>
        <pt x="440" y="90" on="0"/>
        <pt x="490" y="145" on="1"/>
        <pt x="490" y="274" on="1"/>
        <pt x="351" y="267" on="0"/>
        <pt x="194" y="231" on="0"/>
        <pt x="157" y="194" on="1"/>
        <pt x="140" y="177" on="0"/>
        <pt x="127" y="138" on="0"/>
        <pt x="127" y="122" on="1"/>
        <pt x="127" y="75" on="0"/>
        <pt x="200" y="24" on="0"/>
      </contour>
    </TTGlyph>
    <TTGlyph name="a.sc" xMin="65" yMin="0" xMax="673" yMax="567">
      <contour>
        <pt x="65" y="0" on="1"/>
        <pt x="303" y="567" on="1"/>
        <pt x="435" y="567" on="1"/>
        <pt x="673" y="0" on="1"/>
        <pt x="623" y="0" on="1"/>
        <pt x="558" y="158" on="1"/>
        <pt x="180" y="158" on="1"/>
        <pt x="115" y="0" on="1"/>
      </contour>
      <contour>
        <pt x="336" y="526" on="1"/>
        <pt x="197" y="198" on="1"/>
        <pt x="541" y="198" on="1"/>
        <pt x="402" y="526" on="1"/>
      </contour>
    </TTGlyph>
    <TTGlyph name="aacute" xMin="82" yMin="-13" xMax="535" yMax="821">
      <component glyphName="a" x="0" y="0" flags="0x204"/>
      <component glyphName="acute" x="130" y="14" flags="0x4"/>
    </TTGlyph>
    <TTGlyph name="aacute.sc" xMin="65" yMin="0" xMax="673" yMax="850">
      <component glyphName="a.sc" x="0" y="0" flags="0x204"/>
      <component glyphName="acute" x="174" y="43" flags="0x4"/>
    </TTGlyph>
    <TTGlyph name="abreve" xMin="82" yMin="-13" xMax="535" yMax="826">
      <component glyphName="a" x="0" y="0" flags="0x204"/>
      <component glyphName="breve" x="77" y="14" flags="0x4"/>
    </TTGlyph>
    <TTGlyph name="abreve.sc" xMin="65" yMin="0" xMax="673" yMax="855">
      <component glyphName="a.sc" x="0" y="0" flags="0x204"/>
      <component glyphName="breve" x="121" y="43" flags="0x4"/>
    </TTGlyph>
    <TTGlyph name="acircumflex" xMin="82" yMin="-13" xMax="535" yMax="824">
      <component glyphName="a" x="0" y="0" flags="0x204"/>
      <component glyphName="circumflex" x="77" y="14" flags="0x4"/>
    </TTGlyph>
    <TTGlyph name="acircumflex.sc" xMin="65" yMin="0" xMax="673" yMax="853">
      <component glyphName="a.sc" x="0" y="0" flags="0x204"/>
      <component glyphName="circumflex" x="121" y="43" flags="0x4"/>
    </TTGlyph>
    <TTGlyph name="acute" xMin="161" yMin="643" xMax="364" yMax="807">
      <contour>
        <pt x="161" y="643" on="1"/>
        <pt x="299" y="807" on="1"/>
        <pt x="364" y="807" on="1"/>
        <pt x="364" y="805" on="1"/>
        <pt x="206" y="643" on="1"/>
      </contour>
    </TTGlyph>
    <TTGlyph name="adieresis" xMin="82" yMin="-13" xMax="535" yMax="729">
      <component glyphName="a" x="0" y="0" flags="0x204"/>
      <component glyphName="dieresis" x="77" y="14" flags="0x4"/>
    </TTGlyph>
    <TTGlyph name="adieresis.sc" xMin="65" yMin="0" xMax="673" yMax="758">
      <component glyphName="a.sc" x="0" y="0" flags="0x204"/>
      <component glyphName="dieresis" x="121" y="43" flags="0x4"/>
    </TTGlyph>
    <TTGlyph name="ae" xMin="82" yMin="-13" xMax="996" yMax="537">
      <contour>
        <pt x="769" y="-12" on="1"/>
        <pt x="679" y="-12" on="0"/>
        <pt x="553" y="56" on="0"/>
        <pt x="522" y="116" on="1"/>
        <pt x="461" y="50" on="0"/>
        <pt x="325" y="-13" on="0"/>
        <pt x="249" y="-13" on="1"/>
        <pt x="172" y="-13" on="0"/>
        <pt x="82" y="56" on="0"/>
        <pt x="82" y="121" on="1"/>
        <pt x="82" y="149" on="0"/>
        <pt x="104" y="198" on="0"/>
        <pt x="123" y="215" on="1"/>
        <pt x="143" y="235" on="0"/>
        <pt x="201" y="265" on="0"/>
        <pt x="286" y="287" on="0"/>
        <pt x="408" y="301" on="0"/>
        <pt x="491" y="305" on="1"/>
        <pt x="491" y="347" on="1"/>
        <pt x="491" y="428" on="0"/>
        <pt x="400" y="497" on="0"/>
        <pt x="328" y="497" on="1"/>
        <pt x="269" y="497" on="0"/>
        <pt x="154" y="451" on="0"/>
        <pt x="108" y="414" on="1"/>
        <pt x="107" y="414" on="1"/>
        <pt x="107" y="459" on="1"/>
        <pt x="154" y="495" on="0"/>
        <pt x="273" y="537" on="0"/>
        <pt x="334" y="537" on="1"/>
        <pt x="412" y="537" on="0"/>
        <pt x="518" y="465" on="0"/>
        <pt x="526" y="390" on="1"/>
        <pt x="556" y="456" on="0"/>
        <pt x="678" y="537" on="0"/>
        <pt x="754" y="537" on="1"/>
        <pt x="818" y="537" on="0"/>
        <pt x="910" y="493" on="0"/>
        <pt x="969" y="421" on="0"/>
        <pt x="996" y="328" on="0"/>
        <pt x="996" y="279" on="1"/>
        <pt x="996" y="268" on="1"/>
        <pt x="535" y="268" on="1"/>
        <pt x="535" y="265" on="0"/>
        <pt x="535" y="259" on="0"/>
        <pt x="535" y="256" on="1"/>
        <pt x="535" y="254" on="1"/>
        <pt x="535" y="147" on="0"/>
        <pt x="664" y="27" on="0"/>
        <pt x="770" y="27" on="1"/>
        <pt x="824" y="27" on="0"/>
        <pt x="925" y="60" on="0"/>
        <pt x="973" y="93" on="1"/>
        <pt x="974" y="93" on="1"/>
        <pt x="974" y="48" on="1"/>
        <pt x="934" y="20" on="0"/>
        <pt x="825" y="-12" on="0"/>
      </contour>
      <contour>
        <pt x="753" y="499" on="1"/>
        <pt x="671" y="499" on="0"/>
        <pt x="552" y="388" on="0"/>
        <pt x="539" y="303" on="1"/>
        <pt x="951" y="303" on="1"/>
        <pt x="948" y="340" on="0"/>
        <pt x="924" y="411" on="0"/>
        <pt x="876" y="466" on="0"/>
        <pt x="803" y="499" on="0"/>
      </contour>
      <contour>
        <pt x="127" y="122" on="1"/>
        <pt x="127" y="72" on="0"/>
        <pt x="200" y="24" on="0"/>
        <pt x="256" y="24" on="1"/>
        <pt x="328" y="24" on="0"/>
        <pt x="453" y="86" on="0"/>
        <pt x="508" y="146" on="1"/>
        <pt x="499" y="170" on="0"/>
        <pt x="490" y="224" on="0"/>
        <pt x="490" y="253" on="1"/>
        <pt x="490" y="271" on="1"/>
        <pt x="415" y="267" on="0"/>
        <pt x="306" y="255" on="0"/>
        <pt x="229" y="237" on="0"/>
        <pt x="177" y="212" on="0"/>
        <pt x="159" y="194" on="1"/>
        <pt x="145" y="180" on="0"/>
        <pt x="127" y="144" on="0"/>
      </contour>
    </TTGlyph>
    <TTGlyph name="ae.sc" xMin="43" yMin="0" xMax="1029" yMax="567">
      <contour>
        <pt x="544" y="0" on="1"/>
        <pt x="544" y="160" on="1"/>
        <pt x="208" y="160" on="1"/>
        <pt x="95" y="0" on="1"/>
        <pt x="43" y="0" on="1"/>
        <pt x="442" y="567" on="1"/>
        <pt x="1011" y="567" on="1"/>
        <pt x="1013" y="527" on="1"/>
        <pt x="590" y="527" on="1"/>
        <pt x="590" y="312" on="1"/>
        <pt x="938" y="312" on="1"/>
        <pt x="938" y="272" on="1"/>
        <pt x="590" y="272" on="1"/>
        <pt x="590" y="40" on="1"/>
        <pt x="1029" y="40" on="1"/>
        <pt x="1026" y="0" on="1"/>
      </contour>
      <contour>
        <pt x="467" y="527" on="1"/>
        <pt x="235" y="200" on="1"/>
        <pt x="544" y="200" on="1"/>
        <pt x="544" y="527" on="1"/>
      </contour>
    </TTGlyph>
    <TTGlyph name="aeacute" xMin="82" yMin="-13" xMax="996" yMax="805">
      <component glyphName="ae" x="0" y="0" flags="0x204"/>
      <component glyphName="acute" x="357" y="-2" flags="0x4"/>
    </TTGlyph>
    <TTGlyph name="aeacute.sc" xMin="43" yMin="0" xMax="1029" yMax="850">
      <component glyphName="ae.sc" x="0" y="0" flags="0x204"/>
      <component glyphName="acute" x="418" y="43" flags="0x4"/>
    </TTGlyph>
    <TTGlyph name="agrave" xMin="82" yMin="-13" xMax="535" yMax="821">
      <component glyphName="a" x="0" y="0" flags="0x204"/>
      <component glyphName="grave" x="25" y="14" flags="0x4"/>
    </TTGlyph>
    <TTGlyph name="agrave.sc" xMin="65" yMin="0" xMax="673" yMax="850">
      <component glyphName="a.sc" x="0" y="0" flags="0x204"/>
      <component glyphName="grave" x="69" y="43" flags="0x4"/>
    </TTGlyph>
    <TTGlyph name="amacron" xMin="82" yMin="-13" xMax="535" yMax="712">
      <component glyphName="a" x="0" y="0" flags="0x204"/>
      <component glyphName="macron" x="77" y="14" flags="0x4"/>
    </TTGlyph>
    <TTGlyph name="amacron.sc" xMin="65" yMin="0" xMax="673" yMax="741">
      <component glyphName="a.sc" x="0" y="0" flags="0x204"/>
      <component glyphName="macron" x="121" y="43" flags="0x4"/>
    </TTGlyph>
    <TTGlyph name="ampersand" xMin="82" yMin="-16" xMax="818" yMax="700">
      <contour>
        <pt x="271" y="-16" on="1"/>
        <pt x="191" y="-16" on="0"/>
        <pt x="82" y="67" on="0"/>
        <pt x="82" y="146" on="1"/>
        <pt x="82" y="219" on="0"/>
        <pt x="192" y="339" on="0"/>
        <pt x="305" y="408" on="1"/>
        <pt x="358" y="439" on="1"/>
        <pt x="166" y="656" on="1"/>
        <pt x="166" y="700" on="1"/>
        <pt x="682" y="700" on="1"/>
        <pt x="686" y="659" on="1"/>
        <pt x="222" y="659" on="1"/>
        <pt x="616" y="213" on="1"/>
        <pt x="817" y="400" on="1"/>
        <pt x="818" y="400" on="1"/>
        <pt x="818" y="345" on="1"/>
        <pt x="642" y="182" on="1"/>
        <pt x="803" y="0" on="1"/>
        <pt x="746" y="0" on="1"/>
        <pt x="611" y="153" on="1"/>
        <pt x="521" y="78" on="0"/>
        <pt x="361" y="-16" on="0"/>
      </contour>
      <contour>
        <pt x="129" y="149" on="1"/>
        <pt x="129" y="89" on="0"/>
        <pt x="215" y="25" on="0"/>
        <pt x="276" y="25" on="1"/>
        <pt x="351" y="25" on="0"/>
        <pt x="497" y="112" on="0"/>
        <pt x="584" y="184" on="1"/>
        <pt x="385" y="409" on="1"/>
        <pt x="334" y="378" on="1"/>
        <pt x="229" y="314" on="0"/>
        <pt x="129" y="212" on="0"/>
      </contour>
    </TTGlyph>
    <TTGlyph name="ampersand.sc" xMin="80" yMin="-14" xMax="710" yMax="567">
      <contour>
        <pt x="231" y="-14" on="1"/>
        <pt x="166" y="-14" on="0"/>
        <pt x="80" y="52" on="0"/>
        <pt x="80" y="115" on="1"/>
        <pt x="80" y="172" on="0"/>
        <pt x="169" y="271" on="0"/>
        <pt x="268" y="336" on="1"/>
        <pt x="308" y="362" on="1"/>
        <pt x="152" y="526" on="1"/>
        <pt x="152" y="567" on="1"/>
        <pt x="591" y="567" on="1"/>
        <pt x="594" y="528" on="1"/>
        <pt x="208" y="528" on="1"/>
        <pt x="533" y="185" on="1"/>
        <pt x="699" y="325" on="1"/>
        <pt x="699" y="273" on="1"/>
        <pt x="560" y="156" on="1"/>
        <pt x="710" y="0" on="1"/>
        <pt x="653" y="0" on="1"/>
        <pt x="529" y="130" on="1"/>
        <pt x="428" y="46" on="0"/>
        <pt x="297" y="-14" on="0"/>
      </contour>
      <contour>
        <pt x="126" y="119" on="1"/>
        <pt x="126" y="73" on="0"/>
        <pt x="188" y="26" on="0"/>
        <pt x="234" y="26" on="1"/>
        <pt x="288" y="26" on="0"/>
        <pt x="405" y="80" on="0"/>
        <pt x="501" y="159" on="1"/>
        <pt x="336" y="333" on="1"/>
        <pt x="296" y="308" on="1"/>
        <pt x="206" y="250" on="0"/>
        <pt x="126" y="165" on="0"/>
      </contour>
    </TTGlyph>
    <TTGlyph name="aogonek" xMin="82" yMin="-289" xMax="581" yMax="537">
      <contour>
        <pt x="248" y="-13" on="1"/>
        <pt x="173" y="-13" on="0"/>
        <pt x="82" y="58" on="0"/>
        <pt x="82" y="121" on="1"/>
        <pt x="82" y="145" on="0"/>
        <pt x="100" y="195" on="0"/>
        <pt x="121" y="216" on="1"/>
        <pt x="161" y="256" on="0"/>
        <pt x="331" y="300" on="0"/>
        <pt x="490" y="308" on="1"/>
        <pt x="490" y="340" on="1"/>
        <pt x="490" y="420" on="0"/>
        <pt x="406" y="497" on="0"/>
        <pt x="328" y="497" on="1"/>
        <pt x="271" y="497" on="0"/>
        <pt x="154" y="451" on="0"/>
        <pt x="108" y="414" on="1"/>
        <pt x="107" y="414" on="1"/>
        <pt x="107" y="460" on="1"/>
        <pt x="154" y="496" on="0"/>
        <pt x="274" y="537" on="0"/>
        <pt x="334" y="537" on="1"/>
        <pt x="428" y="537" on="0"/>
        <pt x="535" y="441" on="0"/>
        <pt x="535" y="343" on="1"/>
        <pt x="535" y="0" on="1"/>
        <pt x="477" y="-59" on="1"/>
        <pt x="429" y="-108" on="0"/>
        <pt x="398" y="-161" on="0"/>
        <pt x="398" y="-186" on="1"/>
        <pt x="398" y="-222" on="0"/>
        <pt x="451" y="-252" on="0"/>
        <pt x="486" y="-252" on="1"/>
        <pt x="511" y="-252" on="0"/>
        <pt x="560" y="-238" on="0"/>
        <pt x="581" y="-222" on="1"/>
        <pt x="581" y="-263" on="1"/>
        <pt x="559" y="-276" on="0"/>
        <pt x="508" y="-289" on="0"/>
        <pt x="480" y="-289" on="1"/>
        <pt x="423" y="-289" on="0"/>
        <pt x="355" y="-239" on="0"/>
        <pt x="355" y="-192" on="1"/>
        <pt x="355" y="-159" on="0"/>
        <pt x="397" y="-89" on="0"/>
        <pt x="448" y="-38" on="1"/>
        <pt x="492" y="5" on="1"/>
        <pt x="491" y="107" on="1"/>
        <pt x="440" y="51" on="0"/>
        <pt x="321" y="-13" on="0"/>
      </contour>
      <contour>
        <pt x="256" y="24" on="1"/>
        <pt x="324" y="24" on="0"/>
        <pt x="440" y="90" on="0"/>
        <pt x="490" y="145" on="1"/>
        <pt x="490" y="274" on="1"/>
        <pt x="351" y="267" on="0"/>
        <pt x="194" y="231" on="0"/>
        <pt x="157" y="194" on="1"/>
        <pt x="140" y="177" on="0"/>
        <pt x="127" y="138" on="0"/>
        <pt x="127" y="122" on="1"/>
        <pt x="127" y="75" on="0"/>
        <pt x="200" y="24" on="0"/>
      </contour>
    </TTGlyph>
    <TTGlyph name="aogonek.sc" xMin="65" yMin="-289" xMax="719" yMax="567">
      <contour>
        <pt x="65" y="0" on="1"/>
        <pt x="303" y="567" on="1"/>
        <pt x="435" y="567" on="1"/>
        <pt x="673" y="0" on="1"/>
        <pt x="615" y="-59" on="1"/>
        <pt x="567" y="-108" on="0"/>
        <pt x="536" y="-161" on="0"/>
        <pt x="536" y="-186" on="1"/>
        <pt x="536" y="-222" on="0"/>
        <pt x="589" y="-252" on="0"/>
        <pt x="624" y="-252" on="1"/>
        <pt x="649" y="-252" on="0"/>
        <pt x="698" y="-238" on="0"/>
        <pt x="719" y="-222" on="1"/>
        <pt x="719" y="-263" on="1"/>
        <pt x="697" y="-276" on="0"/>
        <pt x="646" y="-289" on="0"/>
        <pt x="618" y="-289" on="1"/>
        <pt x="561" y="-289" on="0"/>
        <pt x="493" y="-239" on="0"/>
        <pt x="493" y="-192" on="1"/>
        <pt x="493" y="-159" on="0"/>
        <pt x="535" y="-89" on="0"/>
        <pt x="586" y="-38" on="1"/>
        <pt x="624" y="-1" on="1"/>
        <pt x="558" y="158" on="1"/>
        <pt x="180" y="158" on="1"/>
        <pt x="115" y="0" on="1"/>
      </contour>
      <contour>
        <pt x="336" y="526" on="1"/>
        <pt x="197" y="198" on="1"/>
        <pt x="541" y="198" on="1"/>
        <pt x="402" y="526" on="1"/>
      </contour>
    </TTGlyph>
    <TTGlyph name="aring" xMin="82" yMin="-13" xMax="535" yMax="898">
      <component glyphName="a" x="0" y="0" flags="0x204"/>
      <component glyphName="ring" x="21" y="14" flags="0x4"/>
    </TTGlyph>
    <TTGlyph name="aring.sc" xMin="65" yMin="0" xMax="673" yMax="927">
      <component glyphName="a.sc" x="0" y="0" flags="0x204"/>
      <component glyphName="ring" x="65" y="43" flags="0x4"/>
    </TTGlyph>
    <TTGlyph name="aringacute" xMin="82" yMin="-13" xMax="535" yMax="1153">
      <component glyphName="a" x="0" y="0" flags="0x204"/>
      <component glyphName="ring" x="21" y="14" flags="0x4"/>
      <component glyphName="acute" x="133" y="346" flags="0x4"/>
    </TTGlyph>
    <TTGlyph name="aringacute.sc" xMin="65" yMin="0" xMax="673" yMax="1182">
      <component glyphName="a.sc" x="0" y="0" flags="0x204"/>
      <component glyphName="ring" x="65" y="43" flags="0x4"/>
      <component glyphName="acute" x="174" y="375" flags="0x4"/>
    </TTGlyph>
    <TTGlyph name="asciicircum" xMin="98" yMin="388" xMax="581" yMax="700">
      <contour>
        <pt x="98" y="388" on="1"/>
        <pt x="288" y="700" on="1"/>
        <pt x="390" y="700" on="1"/>
        <pt x="581" y="388" on="1"/>
        <pt x="529" y="388" on="1"/>
        <pt x="365" y="657" on="1"/>
        <pt x="312" y="657" on="1"/>
        <pt x="149" y="388" on="1"/>
      </contour>
    </TTGlyph>
    <TTGlyph name="asciicircum.tab" xMin="121" yMin="388" xMax="604" yMax="700">
      <component glyphName="asciicircum" x="23" y="0" flags="0x4"/>
    </TTGlyph>
    <TTGlyph name="asciitilde" xMin="90" yMin="272" xMax="651" yMax="429">
      <contour>
        <pt x="90" y="334" on="1"/>
        <pt x="118" y="377" on="0"/>
        <pt x="194" y="426" on="0"/>
        <pt x="238" y="426" on="1"/>
        <pt x="273" y="426" on="0"/>
        <pt x="331" y="402" on="0"/>
        <pt x="380" y="371" on="1"/>
        <pt x="428" y="340" on="0"/>
        <pt x="476" y="320" on="0"/>
        <pt x="505" y="320" on="1"/>
        <pt x="546" y="320" on="0"/>
        <pt x="619" y="379" on="0"/>
        <pt x="650" y="429" on="1"/>
        <pt x="651" y="429" on="1"/>
        <pt x="651" y="367" on="1"/>
        <pt x="623" y="324" on="0"/>
        <pt x="548" y="274" on="0"/>
        <pt x="504" y="274" on="1"/>
        <pt x="468" y="274" on="0"/>
        <pt x="410" y="299" on="0"/>
        <pt x="361" y="330" on="1"/>
        <pt x="314" y="361" on="0"/>
        <pt x="265" y="381" on="0"/>
        <pt x="236" y="381" on="1"/>
        <pt x="195" y="381" on="0"/>
        <pt x="122" y="322" on="0"/>
        <pt x="91" y="272" on="1"/>
        <pt x="90" y="272" on="1"/>
      </contour>
    </TTGlyph>
    <TTGlyph name="asciitilde.tab" xMin="81" yMin="272" xMax="642" yMax="429">
      <component glyphName="asciitilde" x="-9" y="0" flags="0x4"/>
    </TTGlyph>
    <TTGlyph name="asterisk" xMin="75" yMin="367" xMax="420" yMax="718">
      <contour>
        <pt x="345" y="395" on="1"/>
        <pt x="252" y="491" on="1"/>
        <pt x="211" y="367" on="1"/>
        <pt x="191" y="370" on="1"/>
        <pt x="209" y="501" on="1"/>
        <pt x="84" y="454" on="1"/>
        <pt x="75" y="473" on="1"/>
        <pt x="190" y="542" on="1"/>
        <pt x="77" y="609" on="1"/>
        <pt x="85" y="628" on="1"/>
        <pt x="208" y="583" on="1"/>
        <pt x="190" y="713" on="1"/>
        <pt x="211" y="718" on="1"/>
        <pt x="253" y="592" on="1"/>
        <pt x="346" y="687" on="1"/>
        <pt x="361" y="675" on="1"/>
        <pt x="289" y="565" on="1"/>
        <pt x="420" y="553" on="1"/>
        <pt x="420" y="532" on="1"/>
        <pt x="288" y="520" on="1"/>
        <pt x="362" y="410" on="1"/>
      </contour>
    </TTGlyph>
    <TTGlyph name="at" xMin="109" yMin="-111" xMax="1006" yMax="755">
      <contour>
        <pt x="825" y="126" on="1"/>
        <pt x="780" y="126" on="0"/>
        <pt x="709" y="167" on="0"/>
        <pt x="699" y="216" on="1"/>
        <pt x="657" y="173" on="0"/>
        <pt x="565" y="127" on="0"/>
        <pt x="515" y="127" on="1"/>
        <pt x="458" y="127" on="0"/>
        <pt x="390" y="181" on="0"/>
        <pt x="390" y="227" on="1"/>
        <pt x="390" y="246" on="0"/>
        <pt x="404" y="284" on="0"/>
        <pt x="419" y="299" on="1"/>
        <pt x="450" y="330" on="0"/>
        <pt x="574" y="361" on="0"/>
        <pt x="693" y="368" on="1"/>
        <pt x="693" y="390" on="1"/>
        <pt x="693" y="449" on="0"/>
        <pt x="631" y="502" on="0"/>
        <pt x="580" y="502" on="1"/>
        <pt x="534" y="502" on="0"/>
        <pt x="449" y="468" on="0"/>
        <pt x="415" y="440" on="1"/>
        <pt x="414" y="440" on="1"/>
        <pt x="414" y="480" on="1"/>
        <pt x="449" y="507" on="0"/>
        <pt x="537" y="537" on="0"/>
        <pt x="583" y="537" on="1"/>
        <pt x="653" y="537" on="0"/>
        <pt x="733" y="464" on="0"/>
        <pt x="733" y="392" on="1"/>
        <pt x="733" y="262" on="1"/>
        <pt x="733" y="205" on="0"/>
        <pt x="787" y="161" on="0"/>
        <pt x="826" y="161" on="1"/>
        <pt x="889" y="161" on="0"/>
        <pt x="966" y="266" on="0"/>
        <pt x="966" y="380" on="1"/>
        <pt x="966" y="449" on="0"/>
        <pt x="918" y="573" on="0"/>
        <pt x="824" y="664" on="0"/>
        <pt x="683" y="718" on="0"/>
        <pt x="591" y="718" on="1"/>
        <pt x="493" y="718" on="0"/>
        <pt x="330" y="662" on="0"/>
        <pt x="215" y="556" on="0"/>
        <pt x="151" y="401" on="0"/>
        <pt x="151" y="304" on="1"/>
        <pt x="151" y="209" on="0"/>
        <pt x="211" y="67" on="0"/>
        <pt x="318" y="-27" on="0"/>
        <pt x="469" y="-74" on="0"/>
        <pt x="559" y="-74" on="1"/>
        <pt x="638" y="-74" on="0"/>
        <pt x="792" y="-41" on="0"/>
        <pt x="868" y="-1" on="1"/>
        <pt x="868" y="-41" on="1"/>
        <pt x="800" y="-77" on="0"/>
        <pt x="638" y="-111" on="0"/>
        <pt x="559" y="-111" on="1"/>
        <pt x="456" y="-111" on="0"/>
        <pt x="289" y="-57" on="0"/>
        <pt x="173" y="48" on="0"/>
        <pt x="110" y="204" on="0"/>
        <pt x="110" y="304" on="1"/>
        <pt x="111" y="410" on="0"/>
        <pt x="182" y="578" on="0"/>
        <pt x="308" y="693" on="0"/>
        <pt x="485" y="755" on="0"/>
        <pt x="591" y="755" on="1"/>
        <pt x="690" y="755" on="0"/>
        <pt x="845" y="698" on="0"/>
        <pt x="950" y="598" on="0"/>
        <pt x="1006" y="461" on="0"/>
        <pt x="1006" y="381" on="1"/>
        <pt x="1006" y="256" on="0"/>
        <pt x="909" y="126" on="0"/>
      </contour>
      <contour>
        <pt x="521" y="160" on="1"/>
        <pt x="567" y="160" on="0"/>
        <pt x="652" y="203" on="0"/>
        <pt x="693" y="245" on="1"/>
        <pt x="693" y="338" on="1"/>
        <pt x="588" y="332" on="0"/>
        <pt x="476" y="306" on="0"/>
        <pt x="452" y="281" on="1"/>
        <pt x="439" y="268" on="0"/>
        <pt x="430" y="241" on="0"/>
        <pt x="430" y="229" on="1"/>
        <pt x="430" y="195" on="0"/>
        <pt x="480" y="160" on="0"/>
      </contour>
    </TTGlyph>
    <TTGlyph name="at.cap" xMin="109" yMin="-83" xMax="1006" yMax="783">
      <component glyphName="at" x="0" y="28" flags="0x4"/>
    </TTGlyph>
    <TTGlyph name="atilde" xMin="82" yMin="-13" xMax="535" yMax="769">
      <component glyphName="a" x="0" y="0" flags="0x204"/>
      <component glyphName="tilde" x="77" y="14" flags="0x4"/>
    </TTGlyph>
    <TTGlyph name="atilde.sc" xMin="65" yMin="0" xMax="673" yMax="798">
      <component glyphName="a.sc" x="0" y="0" flags="0x204"/>
      <component glyphName="tilde" x="121" y="43" flags="0x4"/>
    </TTGlyph>
    <TTGlyph name="b" xMin="112" yMin="-14" xMax="626" yMax="742">
      <contour>
        <pt x="158" y="742" on="1"/>
        <pt x="158" y="438" on="1"/>
        <pt x="191" y="475" on="0"/>
        <pt x="301" y="537" on="0"/>
        <pt x="374" y="537" on="1"/>
        <pt x="428" y="537" on="0"/>
        <pt x="521" y="499" on="0"/>
        <pt x="588" y="431" on="0"/>
        <pt x="626" y="335" on="0"/>
        <pt x="626" y="276" on="1"/>
        <pt x="626" y="211" on="0"/>
        <pt x="584" y="104" on="0"/>
        <pt x="509" y="28" on="0"/>
        <pt x="404" y="-14" on="0"/>
        <pt x="343" y="-14" on="1"/>
        <pt x="286" y="-14" on="0"/>
        <pt x="194" y="16" on="0"/>
        <pt x="150" y="39" on="1"/>
        <pt x="112" y="39" on="1"/>
        <pt x="112" y="742" on="1"/>
      </contour>
      <contour>
        <pt x="366" y="498" on="1"/>
        <pt x="300" y="498" on="0"/>
        <pt x="192" y="436" on="0"/>
        <pt x="158" y="394" on="1"/>
        <pt x="158" y="83" on="1"/>
        <pt x="198" y="58" on="0"/>
        <pt x="288" y="25" on="0"/>
        <pt x="343" y="25" on="1"/>
        <pt x="393" y="25" on="0"/>
        <pt x="480" y="61" on="0"/>
        <pt x="543" y="126" on="0"/>
        <pt x="579" y="218" on="0"/>
        <pt x="579" y="274" on="1"/>
        <pt x="579" y="375" on="0"/>
        <pt x="460" y="498" on="0"/>
      </contour>
    </TTGlyph>
    <TTGlyph name="b.sc" xMin="135" yMin="0" xMax="650" yMax="567">
      <contour>
        <pt x="135" y="0" on="1"/>
        <pt x="135" y="567" on="1"/>
        <pt x="435" y="567" on="1"/>
        <pt x="541" y="567" on="0"/>
        <pt x="638" y="494" on="0"/>
        <pt x="638" y="426" on="1"/>
        <pt x="638" y="375" on="0"/>
        <pt x="578" y="305" on="0"/>
        <pt x="505" y="292" on="1"/>
        <pt x="577" y="278" on="0"/>
        <pt x="650" y="210" on="0"/>
        <pt x="650" y="154" on="1"/>
        <pt x="650" y="76" on="0"/>
        <pt x="539" y="0" on="0"/>
        <pt x="420" y="0" on="1"/>
      </contour>
      <contour>
        <pt x="180" y="310" on="1"/>
        <pt x="416" y="310" on="1"/>
        <pt x="505" y="310" on="0"/>
        <pt x="592" y="367" on="0"/>
        <pt x="592" y="421" on="1"/>
        <pt x="592" y="475" on="0"/>
        <pt x="515" y="527" on="0"/>
        <pt x="433" y="527" on="1"/>
        <pt x="180" y="527" on="1"/>
      </contour>
      <contour>
        <pt x="180" y="40" on="1"/>
        <pt x="421" y="40" on="1"/>
        <pt x="521" y="41" on="0"/>
        <pt x="604" y="100" on="0"/>
        <pt x="604" y="159" on="1"/>
        <pt x="604" y="215" on="0"/>
        <pt x="506" y="273" on="0"/>
        <pt x="418" y="273" on="1"/>
        <pt x="180" y="273" on="1"/>
      </contour>
    </TTGlyph>
    <TTGlyph name="backslash" xMin="73" yMin="-182" xMax="428" yMax="742">
      <contour>
        <pt x="428" y="-182" on="1"/>
        <pt x="383" y="-182" on="1"/>
        <pt x="73" y="742" on="1"/>
        <pt x="118" y="742" on="1"/>
      </contour>
    </TTGlyph>
    <TTGlyph name="backslash.cap" xMin="78" yMin="-112" xMax="433" yMax="812">
      <component glyphName="backslash" x="5" y="70" flags="0x4"/>
    </TTGlyph>
    <TTGlyph name="bar" xMin="236" yMin="-182" xMax="281" yMax="742">
      <contour>
        <pt x="236" y="-182" on="1"/>
        <pt x="236" y="742" on="1"/>
        <pt x="281" y="742" on="1"/>
        <pt x="281" y="-182" on="1"/>
      </contour>
    </TTGlyph>
    <TTGlyph name="bar.cap" xMin="236" yMin="-112" xMax="281" yMax="812">
      <component glyphName="bar" x="0" y="70" flags="0x4"/>
    </TTGlyph>
    <TTGlyph name="bar.tab" xMin="249" yMin="-112" xMax="294" yMax="812">
      <component glyphName="bar" x="13" y="70" flags="0x4"/>
    </TTGlyph>
    <TTGlyph name="braceleft" xMin="54" yMin="-191" xMax="450" yMax="751">
      <contour>
        <pt x="54" y="276" on="1"/>
        <pt x="54" y="284" on="1"/>
        <pt x="200" y="407" on="1"/>
        <pt x="189" y="482" on="0"/>
        <pt x="181" y="554" on="0"/>
        <pt x="181" y="568" on="1"/>
        <pt x="177" y="661" on="0"/>
        <pt x="272" y="751" on="0"/>
        <pt x="357" y="751" on="1"/>
        <pt x="381" y="751" on="0"/>
        <pt x="428" y="745" on="0"/>
        <pt x="450" y="739" on="1"/>
        <pt x="450" y="699" on="1"/>
        <pt x="449" y="699" on="1"/>
        <pt x="426" y="705" on="0"/>
        <pt x="381" y="711" on="0"/>
        <pt x="362" y="711" on="1"/>
        <pt x="297" y="711" on="0"/>
        <pt x="224" y="644" on="0"/>
        <pt x="226" y="567" on="1"/>
        <pt x="226" y="550" on="0"/>
        <pt x="236" y="474" on="0"/>
        <pt x="247" y="390" on="1"/>
        <pt x="112" y="280" on="1"/>
        <pt x="247" y="170" on="1"/>
        <pt x="236" y="86" on="0"/>
        <pt x="226" y="10" on="0"/>
        <pt x="226" y="-7" on="1"/>
        <pt x="224" y="-84" on="0"/>
        <pt x="297" y="-150" on="0"/>
        <pt x="362" y="-150" on="1"/>
        <pt x="381" y="-150" on="0"/>
        <pt x="426" y="-144" on="0"/>
        <pt x="449" y="-138" on="1"/>
        <pt x="450" y="-138" on="1"/>
        <pt x="450" y="-179" on="1"/>
        <pt x="428" y="-185" on="0"/>
        <pt x="381" y="-191" on="0"/>
        <pt x="357" y="-191" on="1"/>
        <pt x="272" y="-191" on="0"/>
        <pt x="177" y="-101" on="0"/>
        <pt x="181" y="-8" on="1"/>
        <pt x="181" y="6" on="0"/>
        <pt x="189" y="78" on="0"/>
        <pt x="200" y="153" on="1"/>
      </contour>
    </TTGlyph>
    <TTGlyph name="braceleft.cap" xMin="54" yMin="-121" xMax="450" yMax="821">
      <component glyphName="braceleft" x="0" y="70" flags="0x4"/>
    </TTGlyph>
    <TTGlyph name="braceright" xMin="85" yMin="-191" xMax="481" yMax="751">
      <contour>
        <pt x="481" y="284" on="1"/>
        <pt x="481" y="276" on="1"/>
        <pt x="335" y="153" on="1"/>
        <pt x="346" y="78" on="0"/>
        <pt x="354" y="6" on="0"/>
        <pt x="354" y="-8" on="1"/>
        <pt x="358" y="-101" on="0"/>
        <pt x="263" y="-191" on="0"/>
        <pt x="178" y="-191" on="1"/>
        <pt x="154" y="-191" on="0"/>
        <pt x="107" y="-185" on="0"/>
        <pt x="85" y="-179" on="1"/>
        <pt x="85" y="-139" on="1"/>
        <pt x="86" y="-139" on="1"/>
        <pt x="109" y="-145" on="0"/>
        <pt x="154" y="-151" on="0"/>
        <pt x="173" y="-151" on="1"/>
        <pt x="238" y="-151" on="0"/>
        <pt x="311" y="-84" on="0"/>
        <pt x="309" y="-7" on="1"/>
        <pt x="309" y="10" on="0"/>
        <pt x="299" y="86" on="0"/>
        <pt x="288" y="170" on="1"/>
        <pt x="423" y="280" on="1"/>
        <pt x="288" y="390" on="1"/>
        <pt x="299" y="474" on="0"/>
        <pt x="309" y="550" on="0"/>
        <pt x="309" y="567" on="1"/>
        <pt x="311" y="644" on="0"/>
        <pt x="238" y="710" on="0"/>
        <pt x="173" y="710" on="1"/>
        <pt x="154" y="710" on="0"/>
        <pt x="109" y="704" on="0"/>
        <pt x="86" y="698" on="1"/>
        <pt x="85" y="698" on="1"/>
        <pt x="85" y="739" on="1"/>
        <pt x="107" y="745" on="0"/>
        <pt x="154" y="751" on="0"/>
        <pt x="178" y="751" on="1"/>
        <pt x="263" y="751" on="0"/>
        <pt x="358" y="661" on="0"/>
        <pt x="354" y="568" on="1"/>
        <pt x="354" y="554" on="0"/>
        <pt x="346" y="482" on="0"/>
        <pt x="335" y="407" on="1"/>
      </contour>
    </TTGlyph>
    <TTGlyph name="braceright.cap" xMin="85" yMin="-121" xMax="481" yMax="821">
      <component glyphName="braceright" x="0" y="70" flags="0x4"/>
    </TTGlyph>
    <TTGlyph name="bracketleft" xMin="125" yMin="-182" xMax="382" yMax="742">
      <contour>
        <pt x="125" y="-182" on="1"/>
        <pt x="125" y="742" on="1"/>
        <pt x="382" y="742" on="1"/>
        <pt x="382" y="703" on="1"/>
        <pt x="170" y="703" on="1"/>
        <pt x="170" y="-143" on="1"/>
        <pt x="382" y="-143" on="1"/>
        <pt x="382" y="-182" on="1"/>
      </contour>
    </TTGlyph>
    <TTGlyph name="bracketleft.cap" xMin="125" yMin="-112" xMax="382" yMax="812">
      <component glyphName="bracketleft" x="0" y="70" flags="0x4"/>
    </TTGlyph>
    <TTGlyph name="bracketright" xMin="85" yMin="-182" xMax="342" yMax="742">
      <contour>
        <pt x="342" y="742" on="1"/>
        <pt x="342" y="-182" on="1"/>
        <pt x="85" y="-182" on="1"/>
        <pt x="85" y="-143" on="1"/>
        <pt x="297" y="-143" on="1"/>
        <pt x="297" y="703" on="1"/>
        <pt x="85" y="703" on="1"/>
        <pt x="85" y="742" on="1"/>
      </contour>
    </TTGlyph>
    <TTGlyph name="bracketright.cap" xMin="85" yMin="-112" xMax="342" yMax="812">
      <component glyphName="bracketright" x="0" y="70" flags="0x4"/>
    </TTGlyph>
    <TTGlyph name="breve" xMin="87" yMin="635" xMax="413" yMax="812">
      <contour>
        <pt x="250" y="635" on="1"/>
        <pt x="180" y="635" on="0"/>
        <pt x="87" y="703" on="0"/>
        <pt x="87" y="772" on="1"/>
        <pt x="87" y="782" on="0"/>
        <pt x="89" y="802" on="0"/>
        <pt x="91" y="812" on="1"/>
        <pt x="131" y="812" on="1"/>
        <pt x="129" y="801" on="0"/>
        <pt x="127" y="784" on="0"/>
        <pt x="127" y="777" on="1"/>
        <pt x="127" y="720" on="0"/>
        <pt x="202" y="671" on="0"/>
        <pt x="250" y="671" on="1"/>
        <pt x="298" y="671" on="0"/>
        <pt x="372" y="720" on="0"/>
        <pt x="372" y="777" on="1"/>
        <pt x="372" y="784" on="0"/>
        <pt x="370" y="801" on="0"/>
        <pt x="369" y="812" on="1"/>
        <pt x="408" y="812" on="1"/>
        <pt x="411" y="802" on="0"/>
        <pt x="413" y="782" on="0"/>
        <pt x="413" y="772" on="1"/>
        <pt x="413" y="703" on="0"/>
        <pt x="320" y="635" on="0"/>
      </contour>
    </TTGlyph>
    <TTGlyph name="bullet" xMin="109" yMin="242" xMax="263" yMax="386">
      <contour>
        <pt x="186" y="242" on="1"/>
        <pt x="150" y="242" on="0"/>
        <pt x="109" y="285" on="0"/>
        <pt x="109" y="314" on="1"/>
        <pt x="109" y="343" on="0"/>
        <pt x="150" y="386" on="0"/>
        <pt x="186" y="386" on="1"/>
        <pt x="223" y="386" on="0"/>
        <pt x="263" y="343" on="0"/>
        <pt x="263" y="314" on="1"/>
        <pt x="263" y="285" on="0"/>
        <pt x="223" y="242" on="0"/>
      </contour>
    </TTGlyph>
    <TTGlyph name="bullet.cap" xMin="109" yMin="278" xMax="263" yMax="422">
      <component glyphName="bullet" x="0" y="36" flags="0x4"/>
    </TTGlyph>
    <TTGlyph name="c" xMin="69" yMin="-12" xMax="544" yMax="536">
      <contour>
        <pt x="349" y="-12" on="1"/>
        <pt x="222" y="-12" on="0"/>
        <pt x="69" y="135" on="0"/>
        <pt x="69" y="261" on="1"/>
        <pt x="69" y="321" on="0"/>
        <pt x="111" y="422" on="0"/>
        <pt x="185" y="495" on="0"/>
        <pt x="290" y="536" on="0"/>
        <pt x="353" y="536" on="1"/>
        <pt x="404" y="536" on="0"/>
        <pt x="501" y="506" on="0"/>
        <pt x="544" y="475" on="1"/>
        <pt x="544" y="428" on="1"/>
        <pt x="543" y="428" on="1"/>
        <pt x="494" y="465" on="0"/>
        <pt x="401" y="496" on="0"/>
        <pt x="355" y="496" on="1"/>
        <pt x="301" y="496" on="0"/>
        <pt x="212" y="461" on="0"/>
        <pt x="150" y="399" on="0"/>
        <pt x="115" y="313" on="0"/>
        <pt x="115" y="262" on="1"/>
        <pt x="115" y="155" on="0"/>
        <pt x="244" y="28" on="0"/>
        <pt x="351" y="28" on="1"/>
        <pt x="397" y="28" on="0"/>
        <pt x="494" y="59" on="0"/>
        <pt x="543" y="96" on="1"/>
        <pt x="544" y="96" on="1"/>
        <pt x="544" y="49" on="1"/>
        <pt x="501" y="18" on="0"/>
        <pt x="399" y="-12" on="0"/>
      </contour>
    </TTGlyph>
    <TTGlyph name="c.sc" xMin="83" yMin="-11" xMax="633" yMax="578">
      <contour>
        <pt x="394" y="-11" on="1"/>
        <pt x="319" y="-11" on="0"/>
        <pt x="202" y="33" on="0"/>
        <pt x="124" y="111" on="0"/>
        <pt x="83" y="220" on="0"/>
        <pt x="83" y="283" on="1"/>
        <pt x="83" y="346" on="0"/>
        <pt x="127" y="454" on="0"/>
        <pt x="209" y="533" on="0"/>
        <pt x="327" y="578" on="0"/>
        <pt x="399" y="578" on="1"/>
        <pt x="474" y="578" on="0"/>
        <pt x="593" y="532" on="0"/>
        <pt x="633" y="499" on="1"/>
        <pt x="633" y="450" on="1"/>
        <pt x="632" y="450" on="1"/>
        <pt x="583" y="490" on="0"/>
        <pt x="466" y="536" on="0"/>
        <pt x="398" y="536" on="1"/>
        <pt x="337" y="536" on="0"/>
        <pt x="237" y="497" on="0"/>
        <pt x="168" y="430" on="0"/>
        <pt x="130" y="337" on="0"/>
        <pt x="130" y="284" on="1"/>
        <pt x="130" y="229" on="0"/>
        <pt x="164" y="136" on="0"/>
        <pt x="230" y="69" on="0"/>
        <pt x="330" y="31" on="0"/>
        <pt x="395" y="31" on="1"/>
        <pt x="464" y="31" on="0"/>
        <pt x="584" y="78" on="0"/>
        <pt x="632" y="117" on="1"/>
        <pt x="633" y="117" on="1"/>
        <pt x="633" y="67" on="1"/>
        <pt x="594" y="36" on="0"/>
        <pt x="470" y="-11" on="0"/>
      </contour>
    </TTGlyph>
    <TTGlyph name="cacute" xMin="69" yMin="-12" xMax="544" yMax="819">
      <component glyphName="c" x="0" y="0" flags="0x204"/>
      <component glyphName="acute" x="151" y="12" flags="0x4"/>
    </TTGlyph>
    <TTGlyph name="cacute.sc" xMin="83" yMin="-11" xMax="633" yMax="861">
      <component glyphName="c.sc" x="0" y="0" flags="0x204"/>
      <component glyphName="acute" x="198" y="54" flags="0x4"/>
    </TTGlyph>
    <TTGlyph name="caron" xMin="67" yMin="643" xMax="433" yMax="810">
      <contour>
        <pt x="433" y="810" on="1"/>
        <pt x="292" y="643" on="1"/>
        <pt x="208" y="643" on="1"/>
        <pt x="67" y="810" on="1"/>
        <pt x="118" y="810" on="1"/>
        <pt x="230" y="678" on="1"/>
        <pt x="270" y="678" on="1"/>
        <pt x="382" y="810" on="1"/>
      </contour>
    </TTGlyph>
    <TTGlyph name="caron.alt" xMin="189" yMin="620" xMax="239" yMax="789">
      <contour>
        <pt x="189" y="620" on="1"/>
        <pt x="189" y="789" on="1"/>
        <pt x="239" y="789" on="1"/>
        <pt x="239" y="786" on="1"/>
        <pt x="218" y="620" on="1"/>
      </contour>
    </TTGlyph>
    <TTGlyph name="ccaron" xMin="69" yMin="-12" xMax="544" yMax="822">
      <component glyphName="c" x="0" y="0" flags="0x204"/>
      <component glyphName="caron" x="98" y="12" flags="0x4"/>
    </TTGlyph>
    <TTGlyph name="ccaron.sc" xMin="83" yMin="-11" xMax="633" yMax="864">
      <component glyphName="c.sc" x="0" y="0" flags="0x204"/>
      <component glyphName="caron" x="145" y="54" flags="0x4"/>
    </TTGlyph>
    <TTGlyph name="ccedilla" xMin="69" yMin="-193" xMax="544" yMax="536">
      <contour>
        <pt x="544" y="49" on="1"/>
        <pt x="506" y="21" on="0"/>
        <pt x="418" y="-8" on="0"/>
        <pt x="374" y="-11" on="1"/>
        <pt x="242" y="-193" on="1"/>
        <pt x="180" y="-193" on="1"/>
        <pt x="180" y="-191" on="1"/>
        <pt x="331" y="-12" on="1"/>
        <pt x="212" y="-7" on="0"/>
        <pt x="69" y="139" on="0"/>
        <pt x="69" y="261" on="1"/>
        <pt x="69" y="321" on="0"/>
        <pt x="111" y="422" on="0"/>
        <pt x="185" y="495" on="0"/>
        <pt x="290" y="536" on="0"/>
        <pt x="353" y="536" on="1"/>
        <pt x="404" y="536" on="0"/>
        <pt x="501" y="506" on="0"/>
        <pt x="544" y="475" on="1"/>
        <pt x="544" y="428" on="1"/>
        <pt x="543" y="428" on="1"/>
        <pt x="494" y="465" on="0"/>
        <pt x="401" y="496" on="0"/>
        <pt x="355" y="496" on="1"/>
        <pt x="301" y="496" on="0"/>
        <pt x="212" y="461" on="0"/>
        <pt x="150" y="399" on="0"/>
        <pt x="115" y="313" on="0"/>
        <pt x="115" y="262" on="1"/>
        <pt x="115" y="155" on="0"/>
        <pt x="244" y="28" on="0"/>
        <pt x="351" y="28" on="1"/>
        <pt x="397" y="28" on="0"/>
        <pt x="494" y="59" on="0"/>
        <pt x="543" y="96" on="1"/>
        <pt x="544" y="96" on="1"/>
      </contour>
    </TTGlyph>
    <TTGlyph name="ccedilla.sc" xMin="83" yMin="-193" xMax="633" yMax="578">
      <contour>
        <pt x="633" y="67" on="1"/>
        <pt x="599" y="40" on="0"/>
        <pt x="497" y="-3" on="0"/>
        <pt x="434" y="-9" on="1"/>
        <pt x="300" y="-193" on="1"/>
        <pt x="238" y="-193" on="1"/>
        <pt x="238" y="-191" on="1"/>
        <pt x="390" y="-11" on="1"/>
        <pt x="315" y="-10" on="0"/>
        <pt x="200" y="34" on="0"/>
        <pt x="123" y="112" on="0"/>
        <pt x="83" y="220" on="0"/>
        <pt x="83" y="283" on="1"/>
        <pt x="83" y="346" on="0"/>
        <pt x="127" y="454" on="0"/>
        <pt x="209" y="533" on="0"/>
        <pt x="327" y="578" on="0"/>
        <pt x="399" y="578" on="1"/>
        <pt x="474" y="578" on="0"/>
        <pt x="593" y="532" on="0"/>
        <pt x="633" y="499" on="1"/>
        <pt x="633" y="450" on="1"/>
        <pt x="632" y="450" on="1"/>
        <pt x="583" y="490" on="0"/>
        <pt x="466" y="536" on="0"/>
        <pt x="398" y="536" on="1"/>
        <pt x="337" y="536" on="0"/>
        <pt x="237" y="497" on="0"/>
        <pt x="168" y="430" on="0"/>
        <pt x="130" y="337" on="0"/>
        <pt x="130" y="284" on="1"/>
        <pt x="130" y="229" on="0"/>
        <pt x="164" y="136" on="0"/>
        <pt x="230" y="69" on="0"/>
        <pt x="330" y="31" on="0"/>
        <pt x="395" y="31" on="1"/>
        <pt x="464" y="31" on="0"/>
        <pt x="584" y="78" on="0"/>
        <pt x="632" y="117" on="1"/>
        <pt x="633" y="117" on="1"/>
      </contour>
    </TTGlyph>
    <TTGlyph name="cdotaccent" xMin="69" yMin="-12" xMax="544" yMax="729">
      <component glyphName="c" x="0" y="0" flags="0x204"/>
      <component glyphName="dotaccent" x="98" y="12" flags="0x4"/>
    </TTGlyph>
    <TTGlyph name="cdotaccent.sc" xMin="83" yMin="-11" xMax="633" yMax="771">
      <component glyphName="c.sc" x="0" y="0" flags="0x204"/>
      <component glyphName="dotaccent" x="145" y="54" flags="0x4"/>
    </TTGlyph>
    <TTGlyph name="cedilla" xMin="105" yMin="-195" xMax="303" yMax="-8">
      <contour>
        <pt x="303" y="-8" on="1"/>
        <pt x="167" y="-195" on="1"/>
        <pt x="105" y="-195" on="1"/>
        <pt x="105" y="-193" on="1"/>
        <pt x="261" y="-8" on="1"/>
      </contour>
    </TTGlyph>
    <TTGlyph name="cent" xMin="82" yMin="-31" xMax="519" yMax="708">
      <contour>
        <pt x="315" y="-31" on="1"/>
        <pt x="315" y="113" on="1"/>
        <pt x="211" y="119" on="0"/>
        <pt x="82" y="245" on="0"/>
        <pt x="82" y="347" on="1"/>
        <pt x="82" y="396" on="0"/>
        <pt x="117" y="481" on="0"/>
        <pt x="179" y="544" on="0"/>
        <pt x="266" y="583" on="0"/>
        <pt x="317" y="587" on="1"/>
        <pt x="317" y="708" on="1"/>
        <pt x="360" y="708" on="1"/>
        <pt x="360" y="588" on="1"/>
        <pt x="404" y="586" on="0"/>
        <pt x="483" y="562" on="0"/>
        <pt x="519" y="540" on="1"/>
        <pt x="519" y="495" on="1"/>
        <pt x="518" y="495" on="1"/>
        <pt x="475" y="524" on="0"/>
        <pt x="384" y="548" on="0"/>
        <pt x="344" y="548" on="1"/>
        <pt x="298" y="548" on="0"/>
        <pt x="218" y="519" on="0"/>
        <pt x="161" y="467" on="0"/>
        <pt x="128" y="393" on="0"/>
        <pt x="128" y="349" on="1"/>
        <pt x="128" y="259" on="0"/>
        <pt x="246" y="152" on="0"/>
        <pt x="342" y="152" on="1"/>
        <pt x="383" y="152" on="0"/>
        <pt x="471" y="175" on="0"/>
        <pt x="517" y="205" on="1"/>
        <pt x="518" y="205" on="1"/>
        <pt x="518" y="160" on="1"/>
        <pt x="482" y="138" on="0"/>
        <pt x="401" y="114" on="0"/>
        <pt x="358" y="112" on="1"/>
        <pt x="358" y="-26" on="1"/>
      </contour>
    </TTGlyph>
    <TTGlyph name="cent.tab" xMin="135" yMin="-31" xMax="582" yMax="708">
      <contour>
        <pt x="372" y="-31" on="1"/>
        <pt x="372" y="110" on="1"/>
        <pt x="265" y="116" on="0"/>
        <pt x="135" y="243" on="0"/>
        <pt x="135" y="347" on="1"/>
        <pt x="135" y="448" on="0"/>
        <pt x="268" y="583" on="0"/>
        <pt x="375" y="590" on="1"/>
        <pt x="375" y="708" on="1"/>
        <pt x="418" y="708" on="1"/>
        <pt x="418" y="591" on="1"/>
        <pt x="464" y="589" on="0"/>
        <pt x="546" y="565" on="0"/>
        <pt x="582" y="543" on="1"/>
        <pt x="582" y="498" on="1"/>
        <pt x="581" y="498" on="1"/>
        <pt x="537" y="528" on="0"/>
        <pt x="444" y="552" on="0"/>
        <pt x="401" y="552" on="1"/>
        <pt x="353" y="552" on="0"/>
        <pt x="272" y="523" on="0"/>
        <pt x="213" y="470" on="0"/>
        <pt x="180" y="395" on="0"/>
        <pt x="180" y="349" on="1"/>
        <pt x="180" y="257" on="0"/>
        <pt x="299" y="148" on="0"/>
        <pt x="400" y="148" on="1"/>
        <pt x="445" y="148" on="0"/>
        <pt x="534" y="172" on="0"/>
        <pt x="579" y="202" on="1"/>
        <pt x="580" y="202" on="1"/>
        <pt x="580" y="157" on="1"/>
        <pt x="543" y="135" on="0"/>
        <pt x="461" y="111" on="0"/>
        <pt x="415" y="109" on="1"/>
        <pt x="415" y="-26" on="1"/>
      </contour>
    </TTGlyph>
    <TTGlyph name="circle.checked" xMin="126" yMin="-46" xMax="952" yMax="746">
      <contour>
        <pt x="539" y="-46" on="1"/>
        <pt x="445" y="-46" on="0"/>
        <pt x="291" y="11" on="0"/>
        <pt x="184" y="113" on="0"/>
        <pt x="126" y="260" on="0"/>
        <pt x="126" y="350" on="1"/>
        <pt x="126" y="439" on="0"/>
        <pt x="184" y="586" on="0"/>
        <pt x="291" y="689" on="0"/>
        <pt x="445" y="746" on="0"/>
        <pt x="539" y="746" on="1"/>
        <pt x="634" y="746" on="0"/>
        <pt x="787" y="689" on="0"/>
        <pt x="894" y="587" on="0"/>
        <pt x="952" y="440" on="0"/>
        <pt x="952" y="350" on="1"/>
        <pt x="952" y="261" on="0"/>
        <pt x="894" y="114" on="0"/>
        <pt x="787" y="11" on="0"/>
        <pt x="633" y="-46" on="0"/>
      </contour>
      <contour>
        <pt x="539" y="-3" on="1"/>
        <pt x="623" y="-3" on="0"/>
        <pt x="758" y="47" on="0"/>
        <pt x="852" y="139" on="0"/>
        <pt x="903" y="270" on="0"/>
        <pt x="903" y="350" on="1"/>
        <pt x="903" y="430" on="0"/>
        <pt x="852" y="561" on="0"/>
        <pt x="758" y="653" on="0"/>
        <pt x="623" y="703" on="0"/>
        <pt x="539" y="703" on="1"/>
        <pt x="455" y="703" on="0"/>
        <pt x="320" y="653" on="0"/>
        <pt x="226" y="561" on="0"/>
        <pt x="175" y="430" on="0"/>
        <pt x="175" y="350" on="1"/>
        <pt x="175" y="270" on="0"/>
        <pt x="226" y="139" on="0"/>
        <pt x="320" y="47" on="0"/>
        <pt x="455" y="-3" on="0"/>
      </contour>
      <contour>
        <pt x="539" y="186" on="1"/>
        <pt x="463" y="186" on="0"/>
        <pt x="375" y="275" on="0"/>
        <pt x="375" y="350" on="1"/>
        <pt x="375" y="425" on="0"/>
        <pt x="463" y="514" on="0"/>
        <pt x="539" y="514" on="1"/>
        <pt x="617" y="514" on="0"/>
        <pt x="703" y="425" on="0"/>
        <pt x="703" y="350" on="1"/>
        <pt x="703" y="275" on="0"/>
        <pt x="617" y="186" on="0"/>
      </contour>
    </TTGlyph>
    <TTGlyph name="circle.half" xMin="126" yMin="-46" xMax="952" yMax="746">
      <contour>
        <pt x="539" y="-46" on="1"/>
        <pt x="445" y="-46" on="0"/>
        <pt x="291" y="11" on="0"/>
        <pt x="184" y="113" on="0"/>
        <pt x="126" y="260" on="0"/>
        <pt x="126" y="350" on="1"/>
        <pt x="126" y="439" on="0"/>
        <pt x="184" y="586" on="0"/>
        <pt x="291" y="689" on="0"/>
        <pt x="445" y="746" on="0"/>
        <pt x="539" y="746" on="1"/>
        <pt x="634" y="746" on="0"/>
        <pt x="787" y="689" on="0"/>
        <pt x="894" y="587" on="0"/>
        <pt x="952" y="440" on="0"/>
        <pt x="952" y="350" on="1"/>
        <pt x="952" y="261" on="0"/>
        <pt x="894" y="114" on="0"/>
        <pt x="787" y="11" on="0"/>
        <pt x="633" y="-46" on="0"/>
      </contour>
      <contour>
        <pt x="539" y="-3" on="1"/>
        <pt x="623" y="-3" on="0"/>
        <pt x="758" y="47" on="0"/>
        <pt x="852" y="139" on="0"/>
        <pt x="903" y="270" on="0"/>
        <pt x="903" y="350" on="1"/>
        <pt x="903" y="430" on="0"/>
        <pt x="852" y="561" on="0"/>
        <pt x="758" y="653" on="0"/>
        <pt x="623" y="703" on="0"/>
        <pt x="539" y="703" on="1"/>
      </contour>
    </TTGlyph>
    <TTGlyph name="circle.open" xMin="126" yMin="-46" xMax="952" yMax="746">
      <contour>
        <pt x="539" y="-46" on="1"/>
        <pt x="445" y="-46" on="0"/>
        <pt x="291" y="11" on="0"/>
        <pt x="184" y="113" on="0"/>
        <pt x="126" y="260" on="0"/>
        <pt x="126" y="350" on="1"/>
        <pt x="126" y="439" on="0"/>
        <pt x="184" y="586" on="0"/>
        <pt x="291" y="689" on="0"/>
        <pt x="445" y="746" on="0"/>
        <pt x="539" y="746" on="1"/>
        <pt x="634" y="746" on="0"/>
        <pt x="787" y="689" on="0"/>
        <pt x="894" y="587" on="0"/>
        <pt x="952" y="440" on="0"/>
        <pt x="952" y="350" on="1"/>
        <pt x="952" y="261" on="0"/>
        <pt x="894" y="114" on="0"/>
        <pt x="787" y="11" on="0"/>
        <pt x="633" y="-46" on="0"/>
      </contour>
      <contour>
        <pt x="539" y="-3" on="1"/>
        <pt x="623" y="-3" on="0"/>
        <pt x="758" y="47" on="0"/>
        <pt x="852" y="139" on="0"/>
        <pt x="903" y="270" on="0"/>
        <pt x="903" y="350" on="1"/>
        <pt x="903" y="430" on="0"/>
        <pt x="852" y="561" on="0"/>
        <pt x="758" y="653" on="0"/>
        <pt x="623" y="703" on="0"/>
        <pt x="539" y="703" on="1"/>
        <pt x="455" y="703" on="0"/>
        <pt x="320" y="653" on="0"/>
        <pt x="226" y="561" on="0"/>
        <pt x="175" y="430" on="0"/>
        <pt x="175" y="350" on="1"/>
        <pt x="175" y="270" on="0"/>
        <pt x="226" y="139" on="0"/>
        <pt x="320" y="47" on="0"/>
        <pt x="455" y="-3" on="0"/>
      </contour>
    </TTGlyph>
    <TTGlyph name="circle.solid" xMin="126" yMin="-46" xMax="952" yMax="746">
      <contour>
        <pt x="539" y="-46" on="1"/>
        <pt x="445" y="-46" on="0"/>
        <pt x="291" y="11" on="0"/>
        <pt x="184" y="113" on="0"/>
        <pt x="126" y="260" on="0"/>
        <pt x="126" y="350" on="1"/>
        <pt x="126" y="439" on="0"/>
        <pt x="184" y="586" on="0"/>
        <pt x="291" y="689" on="0"/>
        <pt x="445" y="746" on="0"/>
        <pt x="539" y="746" on="1"/>
        <pt x="634" y="746" on="0"/>
        <pt x="787" y="689" on="0"/>
        <pt x="894" y="587" on="0"/>
        <pt x="952" y="440" on="0"/>
        <pt x="952" y="350" on="1"/>
        <pt x="952" y="261" on="0"/>
        <pt x="894" y="114" on="0"/>
        <pt x="787" y="11" on="0"/>
        <pt x="633" y="-46" on="0"/>
      </contour>
    </TTGlyph>
    <TTGlyph name="circumflex" xMin="67" yMin="643" xMax="433" yMax="810">
      <contour>
        <pt x="67" y="643" on="1"/>
        <pt x="208" y="810" on="1"/>
        <pt x="292" y="810" on="1"/>
        <pt x="433" y="643" on="1"/>
        <pt x="382" y="643" on="1"/>
        <pt x="270" y="775" on="1"/>
        <pt x="230" y="775" on="1"/>
        <pt x="118" y="643" on="1"/>
      </contour>
    </TTGlyph>
    <TTGlyph name="colon" xMin="117" yMin="-13" xMax="205" yMax="428">
      <contour>
        <pt x="161" y="346" on="1"/>
        <pt x="140" y="346" on="0"/>
        <pt x="117" y="371" on="0"/>
        <pt x="117" y="387" on="1"/>
        <pt x="117" y="403" on="0"/>
        <pt x="140" y="428" on="0"/>
        <pt x="161" y="428" on="1"/>
        <pt x="182" y="428" on="0"/>
        <pt x="205" y="403" on="0"/>
        <pt x="205" y="387" on="1"/>
        <pt x="205" y="371" on="0"/>
        <pt x="182" y="346" on="0"/>
      </contour>
      <contour>
        <pt x="161" y="-13" on="1"/>
        <pt x="140" y="-13" on="0"/>
        <pt x="117" y="12" on="0"/>
        <pt x="117" y="28" on="1"/>
        <pt x="117" y="29" on="1"/>
        <pt x="117" y="45" on="0"/>
        <pt x="140" y="69" on="0"/>
        <pt x="161" y="69" on="1"/>
        <pt x="182" y="69" on="0"/>
        <pt x="205" y="45" on="0"/>
        <pt x="205" y="29" on="1"/>
        <pt x="205" y="28" on="1"/>
        <pt x="205" y="12" on="0"/>
        <pt x="182" y="-13" on="0"/>
      </contour>
    </TTGlyph>
    <TTGlyph name="colon.fig" xMin="117" yMin="129" xMax="205" yMax="570">
      <component glyphName="colon" x="0" y="142" flags="0x4"/>
    </TTGlyph>
    <TTGlyph name="colon.tab" xMin="137" yMin="-13" xMax="225" yMax="428">
      <component glyphName="colon" x="20" y="0" flags="0x4"/>
    </TTGlyph>
    <TTGlyph name="colonmonetary" xMin="103" yMin="-108" xMax="703" yMax="805">
      <contour>
        <pt x="226" y="-108" on="1"/>
        <pt x="268" y="44" on="1"/>
        <pt x="188" y="86" on="0"/>
        <pt x="103" y="240" on="0"/>
        <pt x="103" y="337" on="1"/>
        <pt x="103" y="411" on="0"/>
        <pt x="152" y="540" on="0"/>
        <pt x="240" y="635" on="0"/>
        <pt x="367" y="694" on="0"/>
        <pt x="444" y="697" on="1"/>
        <pt x="473" y="805" on="1"/>
        <pt x="514" y="805" on="1"/>
        <pt x="484" y="696" on="1"/>
        <pt x="520" y="695" on="0"/>
        <pt x="592" y="679" on="0"/>
        <pt x="625" y="666" on="1"/>
        <pt x="663" y="805" on="1"/>
        <pt x="703" y="805" on="1"/>
        <pt x="497" y="46" on="1"/>
        <pt x="535" y="50" on="0"/>
        <pt x="610" y="71" on="0"/>
        <pt x="647" y="89" on="1"/>
        <pt x="648" y="89" on="1"/>
        <pt x="648" y="44" on="1"/>
        <pt x="611" y="28" on="0"/>
        <pt x="529" y="7" on="0"/>
        <pt x="485" y="4" on="1"/>
        <pt x="455" y="-108" on="1"/>
        <pt x="416" y="-108" on="1"/>
        <pt x="446" y="3" on="1"/>
        <pt x="406" y="4" on="0"/>
        <pt x="333" y="17" on="0"/>
        <pt x="302" y="29" on="1"/>
        <pt x="265" y="-108" on="1"/>
      </contour>
      <contour>
        <pt x="148" y="339" on="1"/>
        <pt x="148" y="255" on="0"/>
        <pt x="217" y="124" on="0"/>
        <pt x="280" y="87" on="1"/>
        <pt x="433" y="656" on="1"/>
        <pt x="369" y="651" on="0"/>
        <pt x="263" y="599" on="0"/>
        <pt x="189" y="516" on="0"/>
        <pt x="148" y="404" on="0"/>
      </contour>
      <contour>
        <pt x="454" y="44" on="1"/>
        <pt x="455" y="44" on="0"/>
        <pt x="458" y="44" on="0"/>
        <pt x="459" y="44" on="1"/>
        <pt x="616" y="625" on="1"/>
        <pt x="582" y="638" on="0"/>
        <pt x="508" y="654" on="0"/>
        <pt x="472" y="655" on="1"/>
        <pt x="313" y="71" on="1"/>
        <pt x="344" y="58" on="0"/>
        <pt x="414" y="44" on="0"/>
      </contour>
    </TTGlyph>
    <TTGlyph name="comma" xMin="65" yMin="-171" xMax="196" yMax="97">
      <contour>
        <pt x="65" y="-171" on="1"/>
        <pt x="132" y="97" on="1"/>
        <pt x="196" y="97" on="1"/>
        <pt x="196" y="95" on="1"/>
        <pt x="98" y="-171" on="1"/>
      </contour>
    </TTGlyph>
    <TTGlyph name="comma.tab" xMin="106" yMin="-171" xMax="237" yMax="97">
      <component glyphName="comma" x="41" y="0" flags="0x4"/>
    </TTGlyph>
    <TTGlyph name="copyright" xMin="65" yMin="-45" xMax="904" yMax="745">
      <contour>
        <pt x="485" y="-45" on="1"/>
        <pt x="389" y="-45" on="0"/>
        <pt x="233" y="11" on="0"/>
        <pt x="125" y="114" on="0"/>
        <pt x="65" y="260" on="0"/>
        <pt x="65" y="350" on="1"/>
        <pt x="65" y="440" on="0"/>
        <pt x="125" y="586" on="0"/>
        <pt x="233" y="689" on="0"/>
        <pt x="389" y="745" on="0"/>
        <pt x="485" y="745" on="1"/>
        <pt x="581" y="745" on="0"/>
        <pt x="736" y="689" on="0"/>
        <pt x="845" y="586" on="0"/>
        <pt x="904" y="440" on="0"/>
        <pt x="904" y="350" on="1"/>
        <pt x="904" y="260" on="0"/>
        <pt x="845" y="114" on="0"/>
        <pt x="736" y="11" on="0"/>
        <pt x="581" y="-45" on="0"/>
      </contour>
      <contour>
        <pt x="485" y="-10" on="1"/>
        <pt x="572" y="-10" on="0"/>
        <pt x="713" y="41" on="0"/>
        <pt x="811" y="135" on="0"/>
        <pt x="864" y="269" on="0"/>
        <pt x="864" y="350" on="1"/>
        <pt x="864" y="431" on="0"/>
        <pt x="811" y="565" on="0"/>
        <pt x="713" y="659" on="0"/>
        <pt x="572" y="710" on="0"/>
        <pt x="485" y="710" on="1"/>
        <pt x="398" y="710" on="0"/>
        <pt x="257" y="659" on="0"/>
        <pt x="158" y="565" on="0"/>
        <pt x="105" y="431" on="0"/>
        <pt x="105" y="350" on="1"/>
        <pt x="105" y="269" on="0"/>
        <pt x="158" y="135" on="0"/>
        <pt x="257" y="41" on="0"/>
        <pt x="398" y="-10" on="0"/>
      </contour>
      <contour>
        <pt x="497" y="165" on="1"/>
        <pt x="404" y="165" on="0"/>
        <pt x="299" y="271" on="0"/>
        <pt x="299" y="352" on="1"/>
        <pt x="299" y="392" on="0"/>
        <pt x="328" y="462" on="0"/>
        <pt x="380" y="514" on="0"/>
        <pt x="454" y="543" on="0"/>
        <pt x="499" y="543" on="1"/>
        <pt x="541" y="543" on="0"/>
        <pt x="615" y="517" on="0"/>
        <pt x="642" y="495" on="1"/>
        <pt x="642" y="456" on="1"/>
        <pt x="641" y="456" on="1"/>
        <pt x="612" y="480" on="0"/>
        <pt x="541" y="508" on="0"/>
        <pt x="500" y="508" on="1"/>
        <pt x="428" y="508" on="0"/>
        <pt x="338" y="419" on="0"/>
        <pt x="338" y="352" on="1"/>
        <pt x="338" y="284" on="0"/>
        <pt x="425" y="199" on="0"/>
        <pt x="501" y="199" on="1"/>
        <pt x="547" y="199" on="0"/>
        <pt x="614" y="229" on="0"/>
        <pt x="643" y="253" on="1"/>
        <pt x="644" y="253" on="1"/>
        <pt x="644" y="214" on="1"/>
        <pt x="616" y="192" on="0"/>
        <pt x="545" y="165" on="0"/>
      </contour>
    </TTGlyph>
    <TTGlyph name="d" xMin="69" yMin="-14" xMax="583" yMax="742">
      <contour>
        <pt x="583" y="742" on="1"/>
        <pt x="583" y="0" on="1"/>
        <pt x="538" y="0" on="1"/>
        <pt x="538" y="92" on="1"/>
        <pt x="506" y="54" on="0"/>
        <pt x="392" y="-14" on="0"/>
        <pt x="317" y="-14" on="1"/>
        <pt x="266" y="-14" on="0"/>
        <pt x="175" y="22" on="0"/>
        <pt x="108" y="91" on="0"/>
        <pt x="69" y="194" on="0"/>
        <pt x="69" y="260" on="1"/>
        <pt x="69" y="317" on="0"/>
        <pt x="110" y="418" on="0"/>
        <pt x="182" y="493" on="0"/>
        <pt x="283" y="537" on="0"/>
        <pt x="343" y="537" on="1"/>
        <pt x="408" y="537" on="0"/>
        <pt x="502" y="494" on="0"/>
        <pt x="537" y="461" on="1"/>
        <pt x="537" y="742" on="1"/>
      </contour>
      <contour>
        <pt x="346" y="498" on="1"/>
        <pt x="295" y="498" on="0"/>
        <pt x="209" y="460" on="0"/>
        <pt x="149" y="396" on="0"/>
        <pt x="115" y="310" on="0"/>
        <pt x="115" y="261" on="1"/>
        <pt x="115" y="202" on="0"/>
        <pt x="149" y="113" on="0"/>
        <pt x="207" y="55" on="0"/>
        <pt x="284" y="26" on="0"/>
        <pt x="327" y="26" on="1"/>
        <pt x="391" y="26" on="0"/>
        <pt x="503" y="88" on="0"/>
        <pt x="537" y="131" on="1"/>
        <pt x="537" y="409" on="1"/>
        <pt x="500" y="450" on="0"/>
        <pt x="408" y="498" on="0"/>
      </contour>
    </TTGlyph>
    <TTGlyph name="d.sc" xMin="135" yMin="0" xMax="686" yMax="567">
      <contour>
        <pt x="135" y="0" on="1"/>
        <pt x="135" y="567" on="1"/>
        <pt x="380" y="567" on="1"/>
        <pt x="531" y="567" on="0"/>
        <pt x="686" y="413" on="0"/>
        <pt x="686" y="284" on="1"/>
        <pt x="686" y="155" on="0"/>
        <pt x="531" y="0" on="0"/>
        <pt x="380" y="0" on="1"/>
      </contour>
      <contour>
        <pt x="181" y="41" on="1"/>
        <pt x="374" y="41" on="1"/>
        <pt x="511" y="41" on="0"/>
        <pt x="639" y="173" on="0"/>
        <pt x="639" y="283" on="1"/>
        <pt x="639" y="393" on="0"/>
        <pt x="511" y="526" on="0"/>
        <pt x="375" y="526" on="1"/>
        <pt x="181" y="526" on="1"/>
      </contour>
    </TTGlyph>
    <TTGlyph name="dagger" xMin="97" yMin="232" xMax="462" yMax="724">
      <contour>
        <pt x="260" y="232" on="1"/>
        <pt x="260" y="540" on="1"/>
        <pt x="97" y="540" on="1"/>
        <pt x="101" y="577" on="1"/>
        <pt x="260" y="577" on="1"/>
        <pt x="260" y="724" on="1"/>
        <pt x="302" y="724" on="1"/>
        <pt x="302" y="577" on="1"/>
        <pt x="462" y="577" on="1"/>
        <pt x="462" y="540" on="1"/>
        <pt x="302" y="540" on="1"/>
        <pt x="302" y="232" on="1"/>
      </contour>
    </TTGlyph>
    <TTGlyph name="daggerdbl" xMin="97" yMin="182" xMax="465" yMax="724">
      <contour>
        <pt x="260" y="182" on="1"/>
        <pt x="260" y="330" on="1"/>
        <pt x="100" y="330" on="1"/>
        <pt x="100" y="367" on="1"/>
        <pt x="260" y="367" on="1"/>
        <pt x="260" y="540" on="1"/>
        <pt x="97" y="540" on="1"/>
        <pt x="101" y="577" on="1"/>
        <pt x="260" y="577" on="1"/>
        <pt x="260" y="724" on="1"/>
        <pt x="302" y="724" on="1"/>
        <pt x="302" y="577" on="1"/>
        <pt x="462" y="577" on="1"/>
        <pt x="462" y="540" on="1"/>
        <pt x="302" y="540" on="1"/>
        <pt x="302" y="367" on="1"/>
        <pt x="465" y="367" on="1"/>
        <pt x="462" y="330" on="1"/>
        <pt x="302" y="330" on="1"/>
        <pt x="302" y="182" on="1"/>
      </contour>
    </TTGlyph>
    <TTGlyph name="dcaron" xMin="69" yMin="-14" xMax="746" yMax="742">
      <component glyphName="d" x="0" y="0" flags="0x204"/>
      <component glyphName="caron.alt" x="507" y="-47" flags="0x4"/>
    </TTGlyph>
    <TTGlyph name="dcaron.sc" xMin="135" yMin="0" xMax="686" yMax="853">
      <component glyphName="d.sc" x="0" y="0" flags="0x204"/>
      <component glyphName="caron" x="129" y="43" flags="0x4"/>
    </TTGlyph>
    <TTGlyph name="dcroat" xMin="69" yMin="-14" xMax="688" yMax="742">
      <contour>
        <pt x="688" y="606" on="1"/>
        <pt x="583" y="606" on="1"/>
        <pt x="583" y="0" on="1"/>
        <pt x="538" y="0" on="1"/>
        <pt x="538" y="92" on="1"/>
        <pt x="504" y="52" on="0"/>
        <pt x="393" y="-14" on="0"/>
        <pt x="320" y="-14" on="1"/>
        <pt x="263" y="-14" on="0"/>
        <pt x="169" y="23" on="0"/>
        <pt x="104" y="89" on="0"/>
        <pt x="69" y="183" on="0"/>
        <pt x="69" y="239" on="1"/>
        <pt x="69" y="298" on="0"/>
        <pt x="111" y="397" on="0"/>
        <pt x="185" y="468" on="0"/>
        <pt x="289" y="507" on="0"/>
        <pt x="349" y="507" on="1"/>
        <pt x="406" y="507" on="0"/>
        <pt x="501" y="469" on="0"/>
        <pt x="537" y="438" on="1"/>
        <pt x="537" y="606" on="1"/>
        <pt x="333" y="606" on="1"/>
        <pt x="333" y="640" on="1"/>
        <pt x="537" y="640" on="1"/>
        <pt x="537" y="742" on="1"/>
        <pt x="583" y="742" on="1"/>
        <pt x="583" y="640" on="1"/>
        <pt x="685" y="640" on="1"/>
      </contour>
      <contour>
        <pt x="350" y="467" on="1"/>
        <pt x="246" y="467" on="0"/>
        <pt x="115" y="340" on="0"/>
        <pt x="115" y="240" on="1"/>
        <pt x="115" y="144" on="0"/>
        <pt x="231" y="26" on="0"/>
        <pt x="330" y="26" on="1"/>
        <pt x="396" y="26" on="0"/>
        <pt x="500" y="87" on="0"/>
        <pt x="537" y="130" on="1"/>
        <pt x="537" y="388" on="1"/>
        <pt x="498" y="429" on="0"/>
        <pt x="401" y="467" on="0"/>
      </contour>
    </TTGlyph>
    <TTGlyph name="dcroat.sc" xMin="47" yMin="0" xMax="709" yMax="567">
      <component glyphName="eth.sc" x="0" y="0" flags="0x204"/>
    </TTGlyph>
    <TTGlyph name="degree" xMin="64" yMin="333" xMax="463" yMax="714">
      <contour>
        <pt x="263" y="333" on="1"/>
        <pt x="176" y="333" on="0"/>
        <pt x="64" y="435" on="0"/>
        <pt x="64" y="522" on="1"/>
        <pt x="64" y="607" on="0"/>
        <pt x="176" y="714" on="0"/>
        <pt x="263" y="714" on="1"/>
        <pt x="350" y="714" on="0"/>
        <pt x="463" y="613" on="0"/>
        <pt x="463" y="526" on="1"/>
        <pt x="463" y="440" on="0"/>
        <pt x="350" y="333" on="0"/>
      </contour>
      <contour>
        <pt x="264" y="370" on="1"/>
        <pt x="328" y="370" on="0"/>
        <pt x="421" y="453" on="0"/>
        <pt x="421" y="525" on="1"/>
        <pt x="421" y="597" on="0"/>
        <pt x="330" y="678" on="0"/>
        <pt x="262" y="678" on="1"/>
        <pt x="198" y="678" on="0"/>
        <pt x="105" y="595" on="0"/>
        <pt x="105" y="523" on="1"/>
        <pt x="105" y="451" on="0"/>
        <pt x="196" y="370" on="0"/>
      </contour>
    </TTGlyph>
    <TTGlyph name="degree.tab" xMin="118" yMin="333" xMax="517" yMax="714">
      <component glyphName="degree" x="54" y="0" flags="0x4"/>
    </TTGlyph>
    <TTGlyph name="dieresis" xMin="86" yMin="646" xMax="414" yMax="715">
      <contour>
        <pt x="123" y="646" on="1"/>
        <pt x="106" y="646" on="0"/>
        <pt x="86" y="667" on="0"/>
        <pt x="86" y="681" on="1"/>
        <pt x="86" y="694" on="0"/>
        <pt x="106" y="715" on="0"/>
        <pt x="123" y="715" on="1"/>
        <pt x="141" y="715" on="0"/>
        <pt x="161" y="694" on="0"/>
        <pt x="161" y="681" on="1"/>
        <pt x="161" y="667" on="0"/>
        <pt x="141" y="646" on="0"/>
      </contour>
      <contour>
        <pt x="377" y="646" on="1"/>
        <pt x="360" y="646" on="0"/>
        <pt x="339" y="667" on="0"/>
        <pt x="339" y="681" on="1"/>
        <pt x="339" y="694" on="0"/>
        <pt x="360" y="715" on="0"/>
        <pt x="376" y="715" on="1"/>
        <pt x="394" y="715" on="0"/>
        <pt x="414" y="694" on="0"/>
        <pt x="414" y="681" on="1"/>
        <pt x="414" y="667" on="0"/>
        <pt x="394" y="646" on="0"/>
      </contour>
    </TTGlyph>
    <TTGlyph name="divide" xMin="110" yMin="87" xMax="662" yMax="613">
      <contour>
        <pt x="386" y="613" on="1"/>
        <pt x="405" y="613" on="0"/>
        <pt x="427" y="590" on="0"/>
        <pt x="427" y="575" on="1"/>
        <pt x="427" y="559" on="0"/>
        <pt x="405" y="537" on="0"/>
        <pt x="386" y="537" on="1"/>
        <pt x="367" y="537" on="0"/>
        <pt x="345" y="559" on="0"/>
        <pt x="345" y="575" on="1"/>
        <pt x="345" y="590" on="0"/>
        <pt x="367" y="613" on="0"/>
      </contour>
      <contour>
        <pt x="110" y="329" on="1"/>
        <pt x="110" y="371" on="1"/>
        <pt x="662" y="371" on="1"/>
        <pt x="662" y="329" on="1"/>
      </contour>
      <contour>
        <pt x="387" y="87" on="1"/>
        <pt x="368" y="87" on="0"/>
        <pt x="346" y="110" on="0"/>
        <pt x="346" y="125" on="1"/>
        <pt x="346" y="141" on="0"/>
        <pt x="367" y="163" on="0"/>
        <pt x="386" y="163" on="1"/>
        <pt x="406" y="163" on="0"/>
        <pt x="428" y="141" on="0"/>
        <pt x="428" y="125" on="1"/>
        <pt x="428" y="110" on="0"/>
        <pt x="406" y="87" on="0"/>
      </contour>
    </TTGlyph>
    <TTGlyph name="divide.tab" xMin="86" yMin="87" xMax="638" yMax="613">
      <component glyphName="divide" x="-24" y="0" flags="0x4"/>
    </TTGlyph>
    <TTGlyph name="dollar" xMin="95" yMin="-112" xMax="641" yMax="805">
      <contour>
        <pt x="354" y="-112" on="1"/>
        <pt x="354" y="17" on="1"/>
        <pt x="281" y="21" on="0"/>
        <pt x="147" y="65" on="0"/>
        <pt x="95" y="99" on="1"/>
        <pt x="95" y="148" on="1"/>
        <pt x="96" y="148" on="1"/>
        <pt x="159" y="105" on="0"/>
        <pt x="313" y="58" on="0"/>
        <pt x="385" y="58" on="1"/>
        <pt x="487" y="58" on="0"/>
        <pt x="594" y="135" on="0"/>
        <pt x="594" y="196" on="1"/>
        <pt x="594" y="222" on="0"/>
        <pt x="573" y="264" on="0"/>
        <pt x="523" y="298" on="0"/>
        <pt x="438" y="325" on="0"/>
        <pt x="373" y="337" on="1"/>
        <pt x="239" y="362" on="0"/>
        <pt x="117" y="433" on="0"/>
        <pt x="117" y="508" on="1"/>
        <pt x="117" y="583" on="0"/>
        <pt x="248" y="681" on="0"/>
        <pt x="356" y="684" on="1"/>
        <pt x="356" y="805" on="1"/>
        <pt x="399" y="805" on="1"/>
        <pt x="399" y="683" on="1"/>
        <pt x="456" y="679" on="0"/>
        <pt x="572" y="646" on="0"/>
        <pt x="622" y="615" on="1"/>
        <pt x="622" y="566" on="1"/>
        <pt x="621" y="566" on="1"/>
        <pt x="562" y="606" on="0"/>
        <pt x="427" y="642" on="0"/>
        <pt x="367" y="642" on="1"/>
        <pt x="278" y="642" on="0"/>
        <pt x="164" y="572" on="0"/>
        <pt x="164" y="512" on="1"/>
        <pt x="164" y="458" on="0"/>
        <pt x="263" y="401" on="0"/>
        <pt x="392" y="376" on="1"/>
        <pt x="526" y="351" on="0"/>
        <pt x="641" y="271" on="0"/>
        <pt x="641" y="199" on="1"/>
        <pt x="641" y="163" on="0"/>
        <pt x="612" y="97" on="0"/>
        <pt x="552" y="48" on="0"/>
        <pt x="460" y="17" on="0"/>
        <pt x="397" y="16" on="1"/>
        <pt x="397" y="-107" on="1"/>
      </contour>
    </TTGlyph>
    <TTGlyph name="dollar.tab" xMin="103" yMin="-112" xMax="635" yMax="805">
      <contour>
        <pt x="355" y="-112" on="1"/>
        <pt x="355" y="17" on="1"/>
        <pt x="286" y="21" on="0"/>
        <pt x="155" y="65" on="0"/>
        <pt x="103" y="99" on="1"/>
        <pt x="103" y="148" on="1"/>
        <pt x="104" y="148" on="1"/>
        <pt x="167" y="105" on="0"/>
        <pt x="320" y="58" on="0"/>
        <pt x="386" y="58" on="1"/>
        <pt x="483" y="58" on="0"/>
        <pt x="588" y="135" on="0"/>
        <pt x="588" y="196" on="1"/>
        <pt x="588" y="250" on="0"/>
        <pt x="497" y="313" on="0"/>
        <pt x="374" y="337" on="1"/>
        <pt x="243" y="362" on="0"/>
        <pt x="125" y="433" on="0"/>
        <pt x="125" y="508" on="1"/>
        <pt x="125" y="583" on="0"/>
        <pt x="254" y="681" on="0"/>
        <pt x="357" y="684" on="1"/>
        <pt x="357" y="805" on="1"/>
        <pt x="400" y="805" on="1"/>
        <pt x="400" y="683" on="1"/>
        <pt x="452" y="679" on="0"/>
        <pt x="567" y="646" on="0"/>
        <pt x="616" y="615" on="1"/>
        <pt x="616" y="566" on="1"/>
        <pt x="615" y="566" on="1"/>
        <pt x="556" y="606" on="0"/>
        <pt x="423" y="642" on="0"/>
        <pt x="368" y="642" on="1"/>
        <pt x="327" y="642" on="0"/>
        <pt x="255" y="624" on="0"/>
        <pt x="202" y="591" on="0"/>
        <pt x="172" y="542" on="0"/>
        <pt x="172" y="511" on="1"/>
        <pt x="172" y="454" on="0"/>
        <pt x="277" y="399" on="0"/>
        <pt x="393" y="376" on="1"/>
        <pt x="524" y="351" on="0"/>
        <pt x="635" y="271" on="0"/>
        <pt x="635" y="199" on="1"/>
        <pt x="635" y="163" on="0"/>
        <pt x="606" y="98" on="0"/>
        <pt x="547" y="48" on="0"/>
        <pt x="458" y="17" on="0"/>
        <pt x="398" y="16" on="1"/>
        <pt x="398" y="-107" on="1"/>
      </contour>
    </TTGlyph>
    <TTGlyph name="dotaccent" xMin="211" yMin="646" xMax="289" yMax="717">
      <contour>
        <pt x="250" y="646" on="1"/>
        <pt x="232" y="646" on="0"/>
        <pt x="211" y="668" on="0"/>
        <pt x="211" y="682" on="1"/>
        <pt x="211" y="696" on="0"/>
        <pt x="232" y="717" on="0"/>
        <pt x="250" y="717" on="1"/>
        <pt x="268" y="717" on="0"/>
        <pt x="289" y="696" on="0"/>
        <pt x="289" y="682" on="1"/>
        <pt x="289" y="668" on="0"/>
        <pt x="268" y="646" on="0"/>
      </contour>
    </TTGlyph>
    <TTGlyph name="dotlessi" xMin="116" yMin="0" xMax="161" yMax="524">
      <contour>
        <pt x="116" y="0" on="1"/>
        <pt x="116" y="524" on="1"/>
        <pt x="161" y="524" on="1"/>
        <pt x="161" y="0" on="1"/>
      </contour>
    </TTGlyph>
    <TTGlyph name="dotlessi.sc" xMin="139" yMin="0" xMax="185" yMax="567">
      <component glyphName="i.sc" x="0" y="0" flags="0x204"/>
    </TTGlyph>
    <TTGlyph name="dotmath" xMin="103" yMin="309" xMax="191" yMax="391">
      <contour>
        <pt x="147" y="309" on="1"/>
        <pt x="126" y="309" on="0"/>
        <pt x="103" y="334" on="0"/>
        <pt x="103" y="350" on="1"/>
        <pt x="103" y="366" on="0"/>
        <pt x="126" y="391" on="0"/>
        <pt x="147" y="391" on="1"/>
        <pt x="168" y="391" on="0"/>
        <pt x="191" y="366" on="0"/>
        <pt x="191" y="350" on="1"/>
        <pt x="191" y="334" on="0"/>
        <pt x="168" y="309" on="0"/>
      </contour>
    </TTGlyph>
    <TTGlyph name="dotmath.tab" xMin="137" yMin="309" xMax="225" yMax="391">
      <component glyphName="dotmath" x="34" y="0" flags="0x4"/>
    </TTGlyph>
    <TTGlyph name="e" xMin="69" yMin="-12" xMax="575" yMax="537">
      <contour>
        <pt x="335" y="537" on="1"/>
        <pt x="399" y="537" on="0"/>
        <pt x="491" y="493" on="0"/>
        <pt x="548" y="420" on="0"/>
        <pt x="575" y="325" on="0"/>
        <pt x="575" y="275" on="1"/>
        <pt x="575" y="264" on="1"/>
        <pt x="114" y="264" on="1"/>
        <pt x="114" y="263" on="0"/>
        <pt x="114" y="258" on="0"/>
        <pt x="114" y="256" on="1"/>
        <pt x="114" y="255" on="1"/>
        <pt x="114" y="154" on="0"/>
        <pt x="237" y="27" on="0"/>
        <pt x="349" y="27" on="1"/>
        <pt x="403" y="27" on="0"/>
        <pt x="503" y="59" on="0"/>
        <pt x="552" y="93" on="1"/>
        <pt x="553" y="93" on="1"/>
        <pt x="553" y="48" on="1"/>
        <pt x="513" y="20" on="0"/>
        <pt x="404" y="-12" on="0"/>
        <pt x="347" y="-12" on="1"/>
        <pt x="281" y="-12" on="0"/>
        <pt x="177" y="27" on="0"/>
        <pt x="106" y="97" on="0"/>
        <pt x="69" y="194" on="0"/>
        <pt x="69" y="252" on="1"/>
        <pt x="69" y="314" on="0"/>
        <pt x="108" y="419" on="0"/>
        <pt x="178" y="494" on="0"/>
        <pt x="276" y="537" on="0"/>
      </contour>
      <contour>
        <pt x="334" y="499" on="1"/>
        <pt x="247" y="499" on="0"/>
        <pt x="129" y="388" on="0"/>
        <pt x="117" y="298" on="1"/>
        <pt x="531" y="298" on="1"/>
        <pt x="529" y="335" on="0"/>
        <pt x="505" y="408" on="0"/>
        <pt x="458" y="464" on="0"/>
        <pt x="385" y="499" on="0"/>
      </contour>
    </TTGlyph>
    <TTGlyph name="e.sc" xMin="135" yMin="0" xMax="620" yMax="567">
      <contour>
        <pt x="135" y="0" on="1"/>
        <pt x="135" y="567" on="1"/>
        <pt x="602" y="567" on="1"/>
        <pt x="604" y="527" on="1"/>
        <pt x="181" y="527" on="1"/>
        <pt x="181" y="312" on="1"/>
        <pt x="529" y="312" on="1"/>
        <pt x="529" y="272" on="1"/>
        <pt x="181" y="272" on="1"/>
        <pt x="181" y="40" on="1"/>
        <pt x="620" y="40" on="1"/>
        <pt x="617" y="0" on="1"/>
      </contour>
    </TTGlyph>
    <TTGlyph name="eacute" xMin="69" yMin="-12" xMax="575" yMax="821">
      <component glyphName="e" x="0" y="0" flags="0x204"/>
      <component glyphName="acute" x="139" y="14" flags="0x4"/>
    </TTGlyph>
    <TTGlyph name="eacute.sc" xMin="135" yMin="0" xMax="620" yMax="850">
      <component glyphName="e.sc" x="0" y="0" flags="0x204"/>
      <component glyphName="acute" x="177" y="43" flags="0x4"/>
    </TTGlyph>
    <TTGlyph name="ebreve" xMin="69" yMin="-12" xMax="575" yMax="826">
      <component glyphName="e" x="0" y="0" flags="0x204"/>
      <component glyphName="breve" x="86" y="14" flags="0x4"/>
    </TTGlyph>
    <TTGlyph name="ebreve.sc" xMin="135" yMin="0" xMax="620" yMax="855">
      <component glyphName="e.sc" x="0" y="0" flags="0x204"/>
      <component glyphName="breve" x="124" y="43" flags="0x4"/>
    </TTGlyph>
    <TTGlyph name="ecaron" xMin="69" yMin="-12" xMax="575" yMax="824">
      <component glyphName="e" x="0" y="0" flags="0x204"/>
      <component glyphName="caron" x="86" y="14" flags="0x4"/>
    </TTGlyph>
    <TTGlyph name="ecaron.sc" xMin="135" yMin="0" xMax="620" yMax="853">
      <component glyphName="e.sc" x="0" y="0" flags="0x204"/>
      <component glyphName="caron" x="124" y="43" flags="0x4"/>
    </TTGlyph>
    <TTGlyph name="ecircumflex" xMin="69" yMin="-12" xMax="575" yMax="824">
      <component glyphName="e" x="0" y="0" flags="0x204"/>
      <component glyphName="circumflex" x="86" y="14" flags="0x4"/>
    </TTGlyph>
    <TTGlyph name="ecircumflex.sc" xMin="135" yMin="0" xMax="620" yMax="853">
      <component glyphName="e.sc" x="0" y="0" flags="0x204"/>
      <component glyphName="circumflex" x="124" y="43" flags="0x4"/>
    </TTGlyph>
    <TTGlyph name="edieresis" xMin="69" yMin="-12" xMax="575" yMax="729">
      <component glyphName="e" x="0" y="0" flags="0x204"/>
      <component glyphName="dieresis" x="86" y="14" flags="0x4"/>
    </TTGlyph>
    <TTGlyph name="edieresis.sc" xMin="135" yMin="0" xMax="620" yMax="758">
      <component glyphName="e.sc" x="0" y="0" flags="0x204"/>
      <component glyphName="dieresis" x="124" y="43" flags="0x4"/>
    </TTGlyph>
    <TTGlyph name="edotaccent" xMin="69" yMin="-12" xMax="575" yMax="731">
      <component glyphName="e" x="0" y="0" flags="0x204"/>
      <component glyphName="dotaccent" x="86" y="14" flags="0x4"/>
    </TTGlyph>
    <TTGlyph name="edotaccent.sc" xMin="135" yMin="0" xMax="620" yMax="760">
      <component glyphName="e.sc" x="0" y="0" flags="0x204"/>
      <component glyphName="dotaccent" x="124" y="43" flags="0x4"/>
    </TTGlyph>
    <TTGlyph name="egrave" xMin="69" yMin="-12" xMax="575" yMax="821">
      <component glyphName="e" x="0" y="0" flags="0x204"/>
      <component glyphName="grave" x="34" y="14" flags="0x4"/>
    </TTGlyph>
    <TTGlyph name="egrave.sc" xMin="135" yMin="0" xMax="620" yMax="850">
      <component glyphName="e.sc" x="0" y="0" flags="0x204"/>
      <component glyphName="grave" x="72" y="43" flags="0x4"/>
    </TTGlyph>
    <TTGlyph name="eight" xMin="80" yMin="-21" xMax="654" yMax="718">
      <contour>
        <pt x="367" y="-21" on="1"/>
        <pt x="229" y="-21" on="0"/>
        <pt x="80" y="89" on="0"/>
        <pt x="80" y="173" on="1"/>
        <pt x="80" y="242" on="0"/>
        <pt x="181" y="334" on="0"/>
        <pt x="265" y="351" on="1"/>
        <pt x="182" y="368" on="0"/>
        <pt x="97" y="457" on="0"/>
        <pt x="97" y="522" on="1"/>
        <pt x="97" y="609" on="0"/>
        <pt x="244" y="718" on="0"/>
        <pt x="367" y="718" on="1"/>
        <pt x="490" y="718" on="0"/>
        <pt x="637" y="609" on="0"/>
        <pt x="637" y="522" on="1"/>
        <pt x="637" y="457" on="0"/>
        <pt x="553" y="368" on="0"/>
        <pt x="469" y="351" on="1"/>
        <pt x="553" y="334" on="0"/>
        <pt x="654" y="242" on="0"/>
        <pt x="654" y="173" on="1"/>
        <pt x="654" y="89" on="0"/>
        <pt x="507" y="-21" on="0"/>
      </contour>
      <contour>
        <pt x="367" y="368" on="1"/>
        <pt x="468" y="368" on="0"/>
        <pt x="590" y="448" on="0"/>
        <pt x="590" y="520" on="1"/>
        <pt x="590" y="591" on="0"/>
        <pt x="469" y="679" on="0"/>
        <pt x="367" y="679" on="1"/>
        <pt x="265" y="679" on="0"/>
        <pt x="144" y="592" on="0"/>
        <pt x="144" y="520" on="1"/>
        <pt x="144" y="448" on="0"/>
        <pt x="266" y="368" on="0"/>
      </contour>
      <contour>
        <pt x="367" y="19" on="1"/>
        <pt x="478" y="19" on="0"/>
        <pt x="606" y="104" on="0"/>
        <pt x="606" y="175" on="1"/>
        <pt x="606" y="212" on="0"/>
        <pt x="570" y="271" on="0"/>
        <pt x="507" y="311" on="0"/>
        <pt x="419" y="332" on="0"/>
        <pt x="367" y="332" on="1"/>
        <pt x="315" y="332" on="0"/>
        <pt x="227" y="311" on="0"/>
        <pt x="164" y="272" on="0"/>
        <pt x="128" y="213" on="0"/>
        <pt x="128" y="175" on="1"/>
        <pt x="128" y="104" on="0"/>
        <pt x="256" y="19" on="0"/>
      </contour>
    </TTGlyph>
    <TTGlyph name="eight.den" xMin="30" yMin="-12" xMax="364" yMax="406">
      <component glyphName="eight.small" x="-20" y="0" flags="0x4"/>
    </TTGlyph>
    <TTGlyph name="eight.inf" xMin="70" yMin="-194" xMax="404" yMax="224">
      <component glyphName="eight.small" x="20" y="-182" flags="0x4"/>
    </TTGlyph>
    <TTGlyph name="eight.num" xMin="70" yMin="292" xMax="404" yMax="710">
      <component glyphName="eight.small" x="20" y="304" flags="0x4"/>
    </TTGlyph>
    <TTGlyph name="eight.osf" xMin="85" yMin="-21" xMax="623" yMax="718">
      <contour>
        <pt x="354" y="-21" on="1"/>
        <pt x="229" y="-21" on="0"/>
        <pt x="85" y="86" on="0"/>
        <pt x="85" y="171" on="1"/>
        <pt x="85" y="231" on="0"/>
        <pt x="168" y="331" on="0"/>
        <pt x="255" y="351" on="1"/>
        <pt x="177" y="373" on="0"/>
        <pt x="102" y="464" on="0"/>
        <pt x="102" y="524" on="1"/>
        <pt x="102" y="563" on="0"/>
        <pt x="136" y="634" on="0"/>
        <pt x="200" y="687" on="0"/>
        <pt x="294" y="718" on="0"/>
        <pt x="354" y="718" on="1"/>
        <pt x="414" y="718" on="0"/>
        <pt x="508" y="687" on="0"/>
        <pt x="572" y="634" on="0"/>
        <pt x="606" y="563" on="0"/>
        <pt x="606" y="524" on="1"/>
        <pt x="606" y="464" on="0"/>
        <pt x="531" y="373" on="0"/>
        <pt x="453" y="351" on="1"/>
        <pt x="540" y="331" on="0"/>
        <pt x="623" y="231" on="0"/>
        <pt x="623" y="171" on="1"/>
        <pt x="623" y="86" on="0"/>
        <pt x="479" y="-21" on="0"/>
      </contour>
      <contour>
        <pt x="354" y="369" on="1"/>
        <pt x="453" y="369" on="0"/>
        <pt x="560" y="458" on="0"/>
        <pt x="560" y="521" on="1"/>
        <pt x="560" y="587" on="0"/>
        <pt x="449" y="679" on="0"/>
        <pt x="354" y="679" on="1"/>
        <pt x="258" y="679" on="0"/>
        <pt x="148" y="587" on="0"/>
        <pt x="148" y="521" on="1"/>
        <pt x="148" y="458" on="0"/>
        <pt x="255" y="369" on="0"/>
      </contour>
      <contour>
        <pt x="354" y="18" on="1"/>
        <pt x="456" y="18" on="0"/>
        <pt x="576" y="106" on="0"/>
        <pt x="576" y="175" on="1"/>
        <pt x="576" y="241" on="0"/>
        <pt x="458" y="334" on="0"/>
        <pt x="354" y="334" on="1"/>
        <pt x="249" y="334" on="0"/>
        <pt x="132" y="241" on="0"/>
        <pt x="132" y="175" on="1"/>
        <pt x="132" y="106" on="0"/>
        <pt x="251" y="18" on="0"/>
      </contour>
    </TTGlyph>
    <TTGlyph name="eight.small" xMin="50" yMin="-12" xMax="384" yMax="406">
      <contour>
        <pt x="217" y="-12" on="1"/>
        <pt x="136" y="-12" on="0"/>
        <pt x="50" y="49" on="0"/>
        <pt x="50" y="98" on="1"/>
        <pt x="50" y="136" on="0"/>
        <pt x="105" y="188" on="0"/>
        <pt x="154" y="198" on="1"/>
        <pt x="105" y="208" on="0"/>
        <pt x="60" y="258" on="0"/>
        <pt x="60" y="295" on="1"/>
        <pt x="60" y="344" on="0"/>
        <pt x="145" y="406" on="0"/>
        <pt x="217" y="406" on="1"/>
        <pt x="289" y="406" on="0"/>
        <pt x="374" y="344" on="0"/>
        <pt x="374" y="295" on="1"/>
        <pt x="374" y="258" on="0"/>
        <pt x="329" y="208" on="0"/>
        <pt x="280" y="198" on="1"/>
        <pt x="329" y="188" on="0"/>
        <pt x="384" y="136" on="0"/>
        <pt x="384" y="98" on="1"/>
        <pt x="384" y="49" on="0"/>
        <pt x="298" y="-12" on="0"/>
      </contour>
      <contour>
        <pt x="217" y="212" on="1"/>
        <pt x="272" y="212" on="0"/>
        <pt x="336" y="254" on="0"/>
        <pt x="336" y="290" on="1"/>
        <pt x="336" y="327" on="0"/>
        <pt x="272" y="373" on="0"/>
        <pt x="217" y="373" on="1"/>
        <pt x="162" y="373" on="0"/>
        <pt x="98" y="327" on="0"/>
        <pt x="98" y="290" on="1"/>
        <pt x="98" y="254" on="0"/>
        <pt x="162" y="212" on="0"/>
      </contour>
      <contour>
        <pt x="217" y="20" on="1"/>
        <pt x="277" y="20" on="0"/>
        <pt x="345" y="65" on="0"/>
        <pt x="345" y="102" on="1"/>
        <pt x="345" y="140" on="0"/>
        <pt x="274" y="183" on="0"/>
        <pt x="217" y="183" on="1"/>
        <pt x="160" y="183" on="0"/>
        <pt x="89" y="140" on="0"/>
        <pt x="89" y="102" on="1"/>
        <pt x="89" y="65" on="0"/>
        <pt x="157" y="20" on="0"/>
      </contour>
    </TTGlyph>
    <TTGlyph name="eight.sup" xMin="70" yMin="344" xMax="404" yMax="762">
      <component glyphName="eight.small" x="20" y="356" flags="0x4"/>
    </TTGlyph>
    <TTGlyph name="eight.tab" xMin="78" yMin="-21" xMax="646" yMax="718">
      <contour>
        <pt x="362" y="-21" on="1"/>
        <pt x="225" y="-21" on="0"/>
        <pt x="78" y="89" on="0"/>
        <pt x="78" y="173" on="1"/>
        <pt x="78" y="242" on="0"/>
        <pt x="178" y="334" on="0"/>
        <pt x="260" y="351" on="1"/>
        <pt x="179" y="368" on="0"/>
        <pt x="95" y="457" on="0"/>
        <pt x="95" y="522" on="1"/>
        <pt x="95" y="609" on="0"/>
        <pt x="241" y="718" on="0"/>
        <pt x="362" y="718" on="1"/>
        <pt x="483" y="718" on="0"/>
        <pt x="629" y="609" on="0"/>
        <pt x="629" y="522" on="1"/>
        <pt x="629" y="457" on="0"/>
        <pt x="545" y="368" on="0"/>
        <pt x="464" y="351" on="1"/>
        <pt x="546" y="334" on="0"/>
        <pt x="646" y="242" on="0"/>
        <pt x="646" y="173" on="1"/>
        <pt x="646" y="89" on="0"/>
        <pt x="499" y="-21" on="0"/>
      </contour>
      <contour>
        <pt x="362" y="368" on="1"/>
        <pt x="461" y="368" on="0"/>
        <pt x="582" y="448" on="0"/>
        <pt x="582" y="520" on="1"/>
        <pt x="582" y="591" on="0"/>
        <pt x="462" y="679" on="0"/>
        <pt x="362" y="679" on="1"/>
        <pt x="261" y="679" on="0"/>
        <pt x="142" y="592" on="0"/>
        <pt x="142" y="520" on="1"/>
        <pt x="142" y="448" on="0"/>
        <pt x="263" y="368" on="0"/>
      </contour>
      <contour>
        <pt x="362" y="19" on="1"/>
        <pt x="471" y="19" on="0"/>
        <pt x="598" y="104" on="0"/>
        <pt x="598" y="175" on="1"/>
        <pt x="598" y="212" on="0"/>
        <pt x="562" y="271" on="0"/>
        <pt x="500" y="311" on="0"/>
        <pt x="413" y="332" on="0"/>
        <pt x="362" y="332" on="1"/>
        <pt x="311" y="332" on="0"/>
        <pt x="224" y="311" on="0"/>
        <pt x="162" y="272" on="0"/>
        <pt x="126" y="213" on="0"/>
        <pt x="126" y="175" on="1"/>
        <pt x="126" y="104" on="0"/>
        <pt x="253" y="19" on="0"/>
      </contour>
    </TTGlyph>
    <TTGlyph name="ellipsis" xMin="117" yMin="-13" xMax="851" yMax="69">
      <component glyphName="period" x="0" y="0" flags="0x4"/>
      <component glyphName="period" x="323" y="0" flags="0x4"/>
      <component glyphName="period" x="646" y="0" flags="0x4"/>
    </TTGlyph>
    <TTGlyph name="emacron" xMin="69" yMin="-12" xMax="575" yMax="712">
      <component glyphName="e" x="0" y="0" flags="0x204"/>
      <component glyphName="macron" x="86" y="14" flags="0x4"/>
    </TTGlyph>
    <TTGlyph name="emacron.sc" xMin="135" yMin="0" xMax="620" yMax="741">
      <component glyphName="e.sc" x="0" y="0" flags="0x204"/>
      <component glyphName="macron" x="124" y="43" flags="0x4"/>
    </TTGlyph>
    <TTGlyph name="emdash" xMin="78" yMin="293" xMax="780" yMax="336">
      <contour>
        <pt x="78" y="293" on="1"/>
        <pt x="78" y="336" on="1"/>
        <pt x="780" y="336" on="1"/>
        <pt x="780" y="293" on="1"/>
      </contour>
    </TTGlyph>
    <TTGlyph name="emdash.cap" xMin="78" yMin="328" xMax="780" yMax="371">
      <component glyphName="emdash" x="0" y="35" flags="0x4"/>
    </TTGlyph>
    <TTGlyph name="endash" xMin="78" yMin="293" xMax="614" yMax="336">
      <contour>
        <pt x="78" y="293" on="1"/>
        <pt x="78" y="336" on="1"/>
        <pt x="614" y="336" on="1"/>
        <pt x="614" y="293" on="1"/>
      </contour>
    </TTGlyph>
    <TTGlyph name="endash.cap" xMin="78" yMin="328" xMax="614" yMax="371">
      <component glyphName="endash" x="0" y="35" flags="0x4"/>
    </TTGlyph>
    <TTGlyph name="endash.tab" xMin="76" yMin="328" xMax="648" yMax="372">
      <contour>
        <pt x="76" y="328" on="1"/>
        <pt x="76" y="372" on="1"/>
        <pt x="648" y="372" on="1"/>
        <pt x="648" y="328" on="1"/>
      </contour>
    </TTGlyph>
    <TTGlyph name="eogonek" xMin="69" yMin="-291" xMax="575" yMax="537">
      <contour>
        <pt x="347" y="-12" on="1"/>
        <pt x="281" y="-12" on="0"/>
        <pt x="177" y="27" on="0"/>
        <pt x="106" y="96" on="0"/>
        <pt x="69" y="194" on="0"/>
        <pt x="69" y="252" on="1"/>
        <pt x="69" y="314" on="0"/>
        <pt x="108" y="419" on="0"/>
        <pt x="178" y="494" on="0"/>
        <pt x="276" y="537" on="0"/>
        <pt x="335" y="537" on="1"/>
        <pt x="399" y="537" on="0"/>
        <pt x="491" y="493" on="0"/>
        <pt x="548" y="420" on="0"/>
        <pt x="575" y="325" on="0"/>
        <pt x="575" y="275" on="1"/>
        <pt x="575" y="264" on="1"/>
        <pt x="114" y="264" on="1"/>
        <pt x="114" y="263" on="0"/>
        <pt x="114" y="258" on="0"/>
        <pt x="114" y="256" on="1"/>
        <pt x="114" y="255" on="1"/>
        <pt x="114" y="153" on="0"/>
        <pt x="237" y="27" on="0"/>
        <pt x="349" y="27" on="1"/>
        <pt x="403" y="27" on="0"/>
        <pt x="503" y="59" on="0"/>
        <pt x="552" y="93" on="1"/>
        <pt x="553" y="93" on="1"/>
        <pt x="553" y="48" on="1"/>
        <pt x="542" y="34" on="1"/>
        <pt x="461" y="-42" on="0"/>
        <pt x="379" y="-142" on="0"/>
        <pt x="379" y="-187" on="1"/>
        <pt x="379" y="-221" on="0"/>
        <pt x="433" y="-255" on="0"/>
        <pt x="470" y="-255" on="1"/>
        <pt x="493" y="-255" on="0"/>
        <pt x="542" y="-244" on="0"/>
        <pt x="562" y="-233" on="1"/>
        <pt x="562" y="-272" on="1"/>
        <pt x="540" y="-282" on="0"/>
        <pt x="491" y="-291" on="0"/>
        <pt x="464" y="-291" on="1"/>
        <pt x="404" y="-291" on="0"/>
        <pt x="336" y="-238" on="0"/>
        <pt x="336" y="-192" on="1"/>
        <pt x="336" y="-146" on="0"/>
        <pt x="408" y="-50" on="0"/>
        <pt x="468" y="7" on="1"/>
        <pt x="440" y="-2" on="0"/>
        <pt x="378" y="-12" on="0"/>
      </contour>
      <contour>
        <pt x="334" y="499" on="1"/>
        <pt x="247" y="499" on="0"/>
        <pt x="129" y="388" on="0"/>
        <pt x="117" y="298" on="1"/>
        <pt x="531" y="298" on="1"/>
        <pt x="529" y="335" on="0"/>
        <pt x="505" y="408" on="0"/>
        <pt x="458" y="464" on="0"/>
        <pt x="385" y="499" on="0"/>
      </contour>
    </TTGlyph>
    <TTGlyph name="eogonek.sc" xMin="135" yMin="-289" xMax="663" yMax="567">
      <contour>
        <pt x="135" y="0" on="1"/>
        <pt x="135" y="567" on="1"/>
        <pt x="602" y="567" on="1"/>
        <pt x="604" y="527" on="1"/>
        <pt x="181" y="527" on="1"/>
        <pt x="181" y="312" on="1"/>
        <pt x="529" y="312" on="1"/>
        <pt x="529" y="272" on="1"/>
        <pt x="181" y="272" on="1"/>
        <pt x="181" y="40" on="1"/>
        <pt x="620" y="40" on="1"/>
        <pt x="617" y="0" on="1"/>
        <pt x="559" y="-59" on="1"/>
        <pt x="511" y="-108" on="0"/>
        <pt x="480" y="-161" on="0"/>
        <pt x="480" y="-186" on="1"/>
        <pt x="480" y="-222" on="0"/>
        <pt x="533" y="-252" on="0"/>
        <pt x="568" y="-252" on="1"/>
        <pt x="593" y="-252" on="0"/>
        <pt x="642" y="-238" on="0"/>
        <pt x="663" y="-222" on="1"/>
        <pt x="663" y="-263" on="1"/>
        <pt x="641" y="-276" on="0"/>
        <pt x="590" y="-289" on="0"/>
        <pt x="562" y="-289" on="1"/>
        <pt x="505" y="-289" on="0"/>
        <pt x="437" y="-239" on="0"/>
        <pt x="437" y="-192" on="1"/>
        <pt x="437" y="-159" on="0"/>
        <pt x="479" y="-89" on="0"/>
        <pt x="530" y="-38" on="1"/>
        <pt x="569" y="0" on="1"/>
      </contour>
    </TTGlyph>
    <TTGlyph name="equal" xMin="122" yMin="191" xMax="646" yMax="509">
      <contour>
        <pt x="122" y="467" on="1"/>
        <pt x="122" y="509" on="1"/>
        <pt x="646" y="509" on="1"/>
        <pt x="646" y="467" on="1"/>
      </contour>
      <contour>
        <pt x="122" y="191" on="1"/>
        <pt x="122" y="233" on="1"/>
        <pt x="646" y="233" on="1"/>
        <pt x="646" y="191" on="1"/>
      </contour>
    </TTGlyph>
    <TTGlyph name="equal.tab" xMin="104" yMin="191" xMax="628" yMax="509">
      <component glyphName="equal" x="-18" y="0" flags="0x4"/>
    </TTGlyph>
    <TTGlyph name="eth" xMin="70" yMin="-14" xMax="600" yMax="743">
      <contour>
        <pt x="331" y="-14" on="1"/>
        <pt x="273" y="-14" on="0"/>
        <pt x="177" y="22" on="0"/>
        <pt x="108" y="87" on="0"/>
        <pt x="70" y="179" on="0"/>
        <pt x="70" y="235" on="1"/>
        <pt x="70" y="293" on="0"/>
        <pt x="111" y="386" on="0"/>
        <pt x="181" y="451" on="0"/>
        <pt x="276" y="486" on="0"/>
        <pt x="330" y="486" on="1"/>
        <pt x="402" y="486" on="0"/>
        <pt x="516" y="421" on="0"/>
        <pt x="553" y="364" on="1"/>
        <pt x="537" y="445" on="0"/>
        <pt x="463" y="580" on="0"/>
        <pt x="396" y="637" on="1"/>
        <pt x="219" y="565" on="1"/>
        <pt x="219" y="599" on="1"/>
        <pt x="368" y="660" on="1"/>
        <pt x="340" y="681" on="0"/>
        <pt x="273" y="720" on="0"/>
        <pt x="235" y="739" on="1"/>
        <pt x="235" y="742" on="1"/>
        <pt x="297" y="742" on="1"/>
        <pt x="328" y="728" on="0"/>
        <pt x="383" y="695" on="0"/>
        <pt x="407" y="676" on="1"/>
        <pt x="572" y="743" on="1"/>
        <pt x="572" y="709" on="1"/>
        <pt x="435" y="653" on="1"/>
        <pt x="517" y="581" on="0"/>
        <pt x="600" y="392" on="0"/>
        <pt x="600" y="291" on="1"/>
        <pt x="600" y="223" on="0"/>
        <pt x="562" y="110" on="0"/>
        <pt x="493" y="30" on="0"/>
        <pt x="393" y="-14" on="0"/>
      </contour>
      <contour>
        <pt x="116" y="236" on="1"/>
        <pt x="116" y="188" on="0"/>
        <pt x="149" y="110" on="0"/>
        <pt x="206" y="56" on="0"/>
        <pt x="285" y="26" on="0"/>
        <pt x="331" y="26" on="1"/>
        <pt x="384" y="26" on="0"/>
        <pt x="467" y="65" on="0"/>
        <pt x="524" y="134" on="0"/>
        <pt x="554" y="230" on="0"/>
        <pt x="554" y="287" on="1"/>
        <pt x="554" y="291" on="0"/>
        <pt x="554" y="307" on="0"/>
        <pt x="553" y="315" on="1"/>
        <pt x="519" y="378" on="0"/>
        <pt x="403" y="449" on="0"/>
        <pt x="335" y="449" on="1"/>
        <pt x="289" y="449" on="0"/>
        <pt x="209" y="420" on="0"/>
        <pt x="150" y="366" on="0"/>
        <pt x="116" y="286" on="0"/>
      </contour>
    </TTGlyph>
    <TTGlyph name="eth.sc" xMin="47" yMin="0" xMax="709" yMax="567">
      <contour>
        <pt x="157" y="0" on="1"/>
        <pt x="157" y="271" on="1"/>
        <pt x="47" y="271" on="1"/>
        <pt x="52" y="307" on="1"/>
        <pt x="157" y="307" on="1"/>
        <pt x="157" y="567" on="1"/>
        <pt x="402" y="567" on="1"/>
        <pt x="554" y="567" on="0"/>
        <pt x="709" y="413" on="0"/>
        <pt x="709" y="284" on="1"/>
        <pt x="709" y="155" on="0"/>
        <pt x="554" y="0" on="0"/>
        <pt x="402" y="0" on="1"/>
      </contour>
      <contour>
        <pt x="203" y="41" on="1"/>
        <pt x="397" y="41" on="1"/>
        <pt x="533" y="41" on="0"/>
        <pt x="662" y="173" on="0"/>
        <pt x="662" y="283" on="1"/>
        <pt x="662" y="393" on="0"/>
        <pt x="533" y="526" on="0"/>
        <pt x="398" y="526" on="1"/>
        <pt x="203" y="526" on="1"/>
        <pt x="203" y="307" on="1"/>
        <pt x="398" y="307" on="1"/>
        <pt x="398" y="271" on="1"/>
        <pt x="203" y="271" on="1"/>
      </contour>
    </TTGlyph>
    <TTGlyph name="exclam" xMin="135" yMin="-13" xMax="224" yMax="700">
      <contour>
        <pt x="160" y="206" on="1"/>
        <pt x="149" y="699" on="1"/>
        <pt x="149" y="700" on="1"/>
        <pt x="209" y="700" on="1"/>
        <pt x="209" y="699" on="1"/>
        <pt x="198" y="206" on="1"/>
      </contour>
      <contour>
        <pt x="179" y="-13" on="1"/>
        <pt x="158" y="-13" on="0"/>
        <pt x="135" y="12" on="0"/>
        <pt x="135" y="28" on="1"/>
        <pt x="135" y="29" on="1"/>
        <pt x="135" y="45" on="0"/>
        <pt x="158" y="69" on="0"/>
        <pt x="179" y="69" on="1"/>
        <pt x="200" y="69" on="0"/>
        <pt x="224" y="45" on="0"/>
        <pt x="224" y="29" on="1"/>
        <pt x="224" y="28" on="1"/>
        <pt x="224" y="12" on="0"/>
        <pt x="200" y="-13" on="0"/>
      </contour>
    </TTGlyph>
    <TTGlyph name="exclamdown" xMin="135" yMin="-175" xMax="224" yMax="537">
      <contour>
        <pt x="180" y="537" on="1"/>
        <pt x="201" y="537" on="0"/>
        <pt x="224" y="513" on="0"/>
        <pt x="224" y="497" on="1"/>
        <pt x="224" y="496" on="1"/>
        <pt x="224" y="480" on="0"/>
        <pt x="201" y="456" on="0"/>
        <pt x="180" y="456" on="1"/>
        <pt x="159" y="456" on="0"/>
        <pt x="135" y="480" on="0"/>
        <pt x="135" y="496" on="1"/>
        <pt x="135" y="497" on="1"/>
        <pt x="135" y="513" on="0"/>
        <pt x="159" y="537" on="0"/>
      </contour>
      <contour>
        <pt x="199" y="319" on="1"/>
        <pt x="210" y="-175" on="1"/>
        <pt x="150" y="-175" on="1"/>
        <pt x="161" y="319" on="1"/>
      </contour>
    </TTGlyph>
    <TTGlyph name="exclamdown.cap" xMin="135" yMin="0" xMax="224" yMax="713">
      <contour>
        <pt x="180" y="713" on="1"/>
        <pt x="201" y="713" on="0"/>
        <pt x="224" y="688" on="0"/>
        <pt x="224" y="672" on="1"/>
        <pt x="224" y="671" on="1"/>
        <pt x="224" y="655" on="0"/>
        <pt x="201" y="631" on="0"/>
        <pt x="180" y="631" on="1"/>
        <pt x="159" y="631" on="0"/>
        <pt x="135" y="655" on="0"/>
        <pt x="135" y="671" on="1"/>
        <pt x="135" y="672" on="1"/>
        <pt x="135" y="688" on="0"/>
        <pt x="159" y="713" on="0"/>
      </contour>
      <contour>
        <pt x="199" y="494" on="1"/>
        <pt x="210" y="1" on="1"/>
        <pt x="210" y="0" on="1"/>
        <pt x="150" y="0" on="1"/>
        <pt x="150" y="1" on="1"/>
        <pt x="161" y="494" on="1"/>
      </contour>
    </TTGlyph>
    <TTGlyph name="f" xMin="45" yMin="0" xMax="388" yMax="755">
      <contour>
        <pt x="156" y="0" on="1"/>
        <pt x="156" y="485" on="1"/>
        <pt x="45" y="485" on="1"/>
        <pt x="53" y="524" on="1"/>
        <pt x="156" y="524" on="1"/>
        <pt x="156" y="575" on="1"/>
        <pt x="156" y="659" on="0"/>
        <pt x="231" y="755" on="0"/>
        <pt x="306" y="755" on="1"/>
        <pt x="325" y="755" on="0"/>
        <pt x="367" y="747" on="0"/>
        <pt x="384" y="739" on="1"/>
        <pt x="384" y="699" on="1"/>
        <pt x="383" y="699" on="1"/>
        <pt x="367" y="707" on="0"/>
        <pt x="329" y="716" on="0"/>
        <pt x="311" y="716" on="1"/>
        <pt x="257" y="716" on="0"/>
        <pt x="201" y="646" on="0"/>
        <pt x="201" y="574" on="1"/>
        <pt x="201" y="524" on="1"/>
        <pt x="388" y="524" on="1"/>
        <pt x="388" y="485" on="1"/>
        <pt x="201" y="485" on="1"/>
        <pt x="201" y="0" on="1"/>
      </contour>
    </TTGlyph>
    <TTGlyph name="f.sc" xMin="135" yMin="0" xMax="595" yMax="567">
      <contour>
        <pt x="135" y="0" on="1"/>
        <pt x="135" y="567" on="1"/>
        <pt x="590" y="567" on="1"/>
        <pt x="595" y="526" on="1"/>
        <pt x="181" y="526" on="1"/>
        <pt x="181" y="308" on="1"/>
        <pt x="524" y="308" on="1"/>
        <pt x="524" y="268" on="1"/>
        <pt x="181" y="268" on="1"/>
        <pt x="181" y="0" on="1"/>
      </contour>
    </TTGlyph>
    <TTGlyph name="five" xMin="83" yMin="-16" xMax="628" yMax="700">
      <contour>
        <pt x="348" y="-16" on="1"/>
        <pt x="291" y="-16" on="0"/>
        <pt x="152" y="11" on="0"/>
        <pt x="83" y="42" on="1"/>
        <pt x="83" y="89" on="1"/>
        <pt x="84" y="89" on="1"/>
        <pt x="151" y="58" on="0"/>
        <pt x="290" y="26" on="0"/>
        <pt x="348" y="26" on="1"/>
        <pt x="409" y="26" on="0"/>
        <pt x="497" y="54" on="0"/>
        <pt x="553" y="101" on="0"/>
        <pt x="579" y="163" on="0"/>
        <pt x="579" y="196" on="1"/>
        <pt x="579" y="228" on="0"/>
        <pt x="562" y="278" on="0"/>
        <pt x="543" y="297" on="1"/>
        <pt x="512" y="327" on="0"/>
        <pt x="395" y="357" on="0"/>
        <pt x="294" y="357" on="1"/>
        <pt x="118" y="357" on="1"/>
        <pt x="128" y="700" on="1"/>
        <pt x="592" y="700" on="1"/>
        <pt x="596" y="658" on="1"/>
        <pt x="171" y="658" on="1"/>
        <pt x="163" y="399" on="1"/>
        <pt x="304" y="399" on="1"/>
        <pt x="409" y="399" on="0"/>
        <pt x="544" y="364" on="0"/>
        <pt x="582" y="326" on="1"/>
        <pt x="605" y="302" on="0"/>
        <pt x="628" y="238" on="0"/>
        <pt x="628" y="198" on="1"/>
        <pt x="628" y="152" on="0"/>
        <pt x="592" y="74" on="0"/>
        <pt x="521" y="17" on="0"/>
        <pt x="416" y="-16" on="0"/>
      </contour>
    </TTGlyph>
    <TTGlyph name="five.den" xMin="41" yMin="-10" xMax="355" yMax="396">
      <component glyphName="five.small" x="-20" y="0" flags="0x4"/>
    </TTGlyph>
    <TTGlyph name="five.inf" xMin="81" yMin="-192" xMax="395" yMax="214">
      <component glyphName="five.small" x="20" y="-182" flags="0x4"/>
    </TTGlyph>
    <TTGlyph name="five.num" xMin="81" yMin="294" xMax="395" yMax="700">
      <component glyphName="five.small" x="20" y="304" flags="0x4"/>
    </TTGlyph>
    <TTGlyph name="five.osf" xMin="92" yMin="-151" xMax="582" yMax="567">
      <contour>
        <pt x="321" y="-151" on="1"/>
        <pt x="263" y="-151" on="0"/>
        <pt x="151" y="-127" on="0"/>
        <pt x="92" y="-105" on="1"/>
        <pt x="92" y="-59" on="1"/>
        <pt x="93" y="-59" on="1"/>
        <pt x="153" y="-84" on="0"/>
        <pt x="266" y="-110" on="0"/>
        <pt x="322" y="-110" on="1"/>
        <pt x="422" y="-110" on="0"/>
        <pt x="536" y="-10" on="0"/>
        <pt x="536" y="63" on="1"/>
        <pt x="536" y="95" on="0"/>
        <pt x="517" y="147" on="0"/>
        <pt x="498" y="166" on="1"/>
        <pt x="469" y="195" on="0"/>
        <pt x="356" y="226" on="0"/>
        <pt x="262" y="226" on="1"/>
        <pt x="127" y="226" on="1"/>
        <pt x="132" y="567" on="1"/>
        <pt x="558" y="567" on="1"/>
        <pt x="561" y="526" on="1"/>
        <pt x="174" y="526" on="1"/>
        <pt x="171" y="266" on="1"/>
        <pt x="284" y="265" on="1"/>
        <pt x="437" y="264" on="0"/>
        <pt x="582" y="163" on="0"/>
        <pt x="582" y="64" on="1"/>
        <pt x="582" y="18" on="0"/>
        <pt x="545" y="-61" on="0"/>
        <pt x="478" y="-118" on="0"/>
        <pt x="381" y="-151" on="0"/>
      </contour>
    </TTGlyph>
    <TTGlyph name="five.small" xMin="61" yMin="-10" xMax="375" yMax="396">
      <contour>
        <pt x="215" y="-10" on="1"/>
        <pt x="174" y="-10" on="0"/>
        <pt x="99" y="8" on="0"/>
        <pt x="61" y="26" on="1"/>
        <pt x="61" y="64" on="1"/>
        <pt x="62" y="64" on="1"/>
        <pt x="99" y="46" on="0"/>
        <pt x="174" y="25" on="0"/>
        <pt x="214" y="25" on="1"/>
        <pt x="278" y="25" on="0"/>
        <pt x="335" y="78" on="0"/>
        <pt x="335" y="112" on="1"/>
        <pt x="335" y="129" on="0"/>
        <pt x="326" y="155" on="0"/>
        <pt x="316" y="165" on="1"/>
        <pt x="300" y="181" on="0"/>
        <pt x="234" y="196" on="0"/>
        <pt x="176" y="196" on="1"/>
        <pt x="78" y="196" on="1"/>
        <pt x="83" y="396" on="1"/>
        <pt x="354" y="396" on="1"/>
        <pt x="357" y="362" on="1"/>
        <pt x="120" y="362" on="1"/>
        <pt x="117" y="228" on="1"/>
        <pt x="187" y="228" on="1"/>
        <pt x="249" y="228" on="0"/>
        <pt x="326" y="208" on="0"/>
        <pt x="348" y="186" on="1"/>
        <pt x="361" y="173" on="0"/>
        <pt x="375" y="138" on="0"/>
        <pt x="375" y="113" on="1"/>
        <pt x="375" y="59" on="0"/>
        <pt x="292" y="-10" on="0"/>
      </contour>
    </TTGlyph>
    <TTGlyph name="five.sup" xMin="81" yMin="346" xMax="395" yMax="752">
      <component glyphName="five.small" x="20" y="356" flags="0x4"/>
    </TTGlyph>
    <TTGlyph name="five.tab" xMin="87" yMin="-16" xMax="635" yMax="700">
      <contour>
        <pt x="357" y="-16" on="1"/>
        <pt x="291" y="-16" on="0"/>
        <pt x="156" y="16" on="0"/>
        <pt x="87" y="50" on="1"/>
        <pt x="87" y="98" on="1"/>
        <pt x="88" y="98" on="1"/>
        <pt x="156" y="64" on="0"/>
        <pt x="290" y="26" on="0"/>
        <pt x="357" y="26" on="1"/>
        <pt x="418" y="26" on="0"/>
        <pt x="505" y="54" on="0"/>
        <pt x="561" y="101" on="0"/>
        <pt x="587" y="163" on="0"/>
        <pt x="587" y="196" on="1"/>
        <pt x="587" y="228" on="0"/>
        <pt x="569" y="278" on="0"/>
        <pt x="550" y="297" on="1"/>
        <pt x="520" y="327" on="0"/>
        <pt x="402" y="357" on="0"/>
        <pt x="300" y="357" on="1"/>
        <pt x="119" y="357" on="1"/>
        <pt x="128" y="700" on="1"/>
        <pt x="600" y="700" on="1"/>
        <pt x="603" y="658" on="1"/>
        <pt x="171" y="658" on="1"/>
        <pt x="164" y="399" on="1"/>
        <pt x="310" y="399" on="1"/>
        <pt x="417" y="399" on="0"/>
        <pt x="552" y="364" on="0"/>
        <pt x="589" y="326" on="1"/>
        <pt x="612" y="302" on="0"/>
        <pt x="635" y="238" on="0"/>
        <pt x="635" y="198" on="1"/>
        <pt x="635" y="152" on="0"/>
        <pt x="599" y="74" on="0"/>
        <pt x="529" y="17" on="0"/>
        <pt x="425" y="-16" on="0"/>
      </contour>
    </TTGlyph>
    <TTGlyph name="fiveeighths" xMin="81" yMin="-12" xMax="1069" yMax="700">
      <component glyphName="five.num" x="0" y="0" flags="0x4"/>
      <component glyphName="fraction" x="433" y="0" flags="0x4"/>
      <component glyphName="eight.den" x="705" y="0" flags="0x4"/>
    </TTGlyph>
    <TTGlyph name="fiveeighths.tab" xMin="81" yMin="-12" xMax="1016" yMax="700">
      <component glyphName="five.num" x="0" y="0" flags="0x4"/>
      <component glyphName="fraction.tab" x="438" y="0" flags="0x4"/>
      <component glyphName="eight.den" x="652" y="0" flags="0x4"/>
    </TTGlyph>
    <TTGlyph name="four" xMin="74" yMin="2" xMax="722" yMax="700">
      <contour>
        <pt x="528" y="2" on="1"/>
        <pt x="528" y="187" on="1"/>
        <pt x="74" y="187" on="1"/>
        <pt x="74" y="223" on="1"/>
        <pt x="365" y="700" on="1"/>
        <pt x="573" y="700" on="1"/>
        <pt x="573" y="228" on="1"/>
        <pt x="722" y="228" on="1"/>
        <pt x="720" y="187" on="1"/>
        <pt x="573" y="187" on="1"/>
        <pt x="573" y="2" on="1"/>
      </contour>
      <contour>
        <pt x="528" y="658" on="1"/>
        <pt x="388" y="658" on="1"/>
        <pt x="127" y="228" on="1"/>
        <pt x="528" y="228" on="1"/>
      </contour>
    </TTGlyph>
    <TTGlyph name="four.den" xMin="16" yMin="1" xMax="395" yMax="396">
      <component glyphName="four.small" x="-20" y="0" flags="0x4"/>
    </TTGlyph>
    <TTGlyph name="four.inf" xMin="56" yMin="-181" xMax="435" yMax="214">
      <component glyphName="four.small" x="20" y="-182" flags="0x4"/>
    </TTGlyph>
    <TTGlyph name="four.num" xMin="56" yMin="305" xMax="435" yMax="700">
      <component glyphName="four.small" x="20" y="304" flags="0x4"/>
    </TTGlyph>
    <TTGlyph name="four.osf" xMin="67" yMin="-145" xMax="676" yMax="567">
      <contour>
        <pt x="488" y="-145" on="1"/>
        <pt x="488" y="56" on="1"/>
        <pt x="67" y="56" on="1"/>
        <pt x="67" y="91" on="1"/>
        <pt x="339" y="567" on="1"/>
        <pt x="532" y="567" on="1"/>
        <pt x="532" y="95" on="1"/>
        <pt x="676" y="95" on="1"/>
        <pt x="673" y="56" on="1"/>
        <pt x="532" y="56" on="1"/>
        <pt x="532" y="-145" on="1"/>
      </contour>
      <contour>
        <pt x="119" y="95" on="1"/>
        <pt x="488" y="95" on="1"/>
        <pt x="488" y="526" on="1"/>
        <pt x="364" y="526" on="1"/>
      </contour>
    </TTGlyph>
    <TTGlyph name="four.small" xMin="36" yMin="1" xMax="415" yMax="396">
      <contour>
        <pt x="297" y="1" on="1"/>
        <pt x="297" y="97" on="1"/>
        <pt x="36" y="97" on="1"/>
        <pt x="36" y="127" on="1"/>
        <pt x="188" y="396" on="1"/>
        <pt x="334" y="396" on="1"/>
        <pt x="334" y="130" on="1"/>
        <pt x="415" y="130" on="1"/>
        <pt x="413" y="97" on="1"/>
        <pt x="334" y="97" on="1"/>
        <pt x="334" y="1" on="1"/>
      </contour>
      <contour>
        <pt x="79" y="130" on="1"/>
        <pt x="297" y="130" on="1"/>
        <pt x="297" y="363" on="1"/>
        <pt x="212" y="363" on="1"/>
      </contour>
    </TTGlyph>
    <TTGlyph name="four.sup" xMin="56" yMin="357" xMax="435" yMax="752">
      <component glyphName="four.small" x="20" y="356" flags="0x4"/>
    </TTGlyph>
    <TTGlyph name="four.tab" xMin="56" yMin="2" xMax="696" yMax="700">
      <contour>
        <pt x="509" y="2" on="1"/>
        <pt x="509" y="182" on="1"/>
        <pt x="56" y="182" on="1"/>
        <pt x="56" y="218" on="1"/>
        <pt x="332" y="700" on="1"/>
        <pt x="554" y="700" on="1"/>
        <pt x="554" y="223" on="1"/>
        <pt x="696" y="223" on="1"/>
        <pt x="694" y="182" on="1"/>
        <pt x="554" y="182" on="1"/>
        <pt x="554" y="2" on="1"/>
      </contour>
      <contour>
        <pt x="109" y="223" on="1"/>
        <pt x="509" y="223" on="1"/>
        <pt x="509" y="658" on="1"/>
        <pt x="357" y="658" on="1"/>
      </contour>
    </TTGlyph>
    <TTGlyph name="fraction" xMin="-128" yMin="0" xMax="402" yMax="700">
      <contour>
        <pt x="-128" y="1" on="1"/>
        <pt x="358" y="700" on="1"/>
        <pt x="402" y="700" on="1"/>
        <pt x="402" y="699" on="1"/>
        <pt x="-85" y="0" on="1"/>
        <pt x="-128" y="0" on="1"/>
      </contour>
    </TTGlyph>
    <TTGlyph name="fraction.tab" xMin="-156" yMin="0" xMax="374" yMax="700">
      <contour>
        <pt x="-156" y="1" on="1"/>
        <pt x="330" y="700" on="1"/>
        <pt x="374" y="700" on="1"/>
        <pt x="374" y="699" on="1"/>
        <pt x="-113" y="0" on="1"/>
        <pt x="-156" y="0" on="1"/>
      </contour>
    </TTGlyph>
    <TTGlyph name="g" xMin="53" yMin="-198" xMax="585" yMax="627">
      <contour>
        <pt x="309" y="185" on="1"/>
        <pt x="292" y="185" on="0"/>
        <pt x="259" y="188" on="0"/>
        <pt x="244" y="191" on="1"/>
        <pt x="221" y="82" on="1"/>
        <pt x="303" y="77" on="0"/>
        <pt x="439" y="55" on="0"/>
        <pt x="533" y="20" on="0"/>
        <pt x="585" y="-30" on="0"/>
        <pt x="585" y="-64" on="1"/>
        <pt x="585" y="-93" on="0"/>
        <pt x="546" y="-143" on="0"/>
        <pt x="476" y="-178" on="0"/>
        <pt x="377" y="-198" on="0"/>
        <pt x="318" y="-198" on="1"/>
        <pt x="259" y="-198" on="0"/>
        <pt x="161" y="-181" on="0"/>
        <pt x="92" y="-148" on="0"/>
        <pt x="53" y="-99" on="0"/>
        <pt x="53" y="-67" on="1"/>
        <pt x="53" y="-26" on="0"/>
        <pt x="120" y="43" on="0"/>
        <pt x="181" y="68" on="1"/>
        <pt x="210" y="201" on="1"/>
        <pt x="153" y="221" on="0"/>
        <pt x="94" y="305" on="0"/>
        <pt x="94" y="356" on="1"/>
        <pt x="94" y="393" on="0"/>
        <pt x="123" y="459" on="0"/>
        <pt x="179" y="508" on="0"/>
        <pt x="262" y="537" on="0"/>
        <pt x="316" y="537" on="1"/>
        <pt x="347" y="537" on="0"/>
        <pt x="399" y="527" on="0"/>
        <pt x="421" y="518" on="1"/>
        <pt x="497" y="627" on="1"/>
        <pt x="549" y="627" on="1"/>
        <pt x="549" y="626" on="1"/>
        <pt x="452" y="502" on="1"/>
        <pt x="490" y="480" on="0"/>
        <pt x="531" y="408" on="0"/>
        <pt x="531" y="365" on="1"/>
        <pt x="531" y="328" on="0"/>
        <pt x="502" y="262" on="0"/>
        <pt x="446" y="214" on="0"/>
        <pt x="362" y="185" on="0"/>
      </contour>
      <contour>
        <pt x="310" y="220" on="1"/>
        <pt x="389" y="220" on="0"/>
        <pt x="487" y="298" on="0"/>
        <pt x="487" y="364" on="1"/>
        <pt x="487" y="426" on="0"/>
        <pt x="393" y="502" on="0"/>
        <pt x="316" y="502" on="1"/>
        <pt x="236" y="502" on="0"/>
        <pt x="138" y="424" on="0"/>
        <pt x="138" y="358" on="1"/>
        <pt x="138" y="295" on="0"/>
        <pt x="233" y="220" on="0"/>
      </contour>
      <contour>
        <pt x="322" y="-163" on="1"/>
        <pt x="366" y="-163" on="0"/>
        <pt x="446" y="-150" on="0"/>
        <pt x="506" y="-125" on="0"/>
        <pt x="541" y="-88" on="0"/>
        <pt x="541" y="-66" on="1"/>
        <pt x="541" y="-40" on="0"/>
        <pt x="490" y="-1" on="0"/>
        <pt x="399" y="26" on="0"/>
        <pt x="272" y="42" on="0"/>
        <pt x="198" y="46" on="1"/>
        <pt x="142" y="23" on="0"/>
        <pt x="94" y="-31" on="0"/>
        <pt x="94" y="-60" on="1"/>
        <pt x="94" y="-85" on="0"/>
        <pt x="130" y="-124" on="0"/>
        <pt x="191" y="-150" on="0"/>
        <pt x="275" y="-163" on="0"/>
      </contour>
    </TTGlyph>
    <TTGlyph name="g.sc" xMin="83" yMin="-16" xMax="690" yMax="578">
      <contour>
        <pt x="394" y="-16" on="1"/>
        <pt x="322" y="-16" on="0"/>
        <pt x="206" y="26" on="0"/>
        <pt x="126" y="102" on="0"/>
        <pt x="83" y="210" on="0"/>
        <pt x="83" y="275" on="1"/>
        <pt x="83" y="340" on="0"/>
        <pt x="129" y="451" on="0"/>
        <pt x="212" y="532" on="0"/>
        <pt x="330" y="578" on="0"/>
        <pt x="401" y="578" on="1"/>
        <pt x="478" y="578" on="0"/>
        <pt x="601" y="529" on="0"/>
        <pt x="640" y="498" on="1"/>
        <pt x="640" y="448" on="1"/>
        <pt x="639" y="448" on="1"/>
        <pt x="599" y="480" on="0"/>
        <pt x="478" y="536" on="0"/>
        <pt x="400" y="536" on="1"/>
        <pt x="341" y="536" on="0"/>
        <pt x="241" y="498" on="0"/>
        <pt x="170" y="429" on="0"/>
        <pt x="130" y="334" on="0"/>
        <pt x="130" y="277" on="1"/>
        <pt x="130" y="164" on="0"/>
        <pt x="272" y="25" on="0"/>
        <pt x="396" y="25" on="1"/>
        <pt x="514" y="25" on="0"/>
        <pt x="644" y="155" on="0"/>
        <pt x="644" y="256" on="1"/>
        <pt x="374" y="256" on="1"/>
        <pt x="374" y="295" on="1"/>
        <pt x="689" y="295" on="1"/>
        <pt x="689" y="291" on="0"/>
        <pt x="690" y="276" on="0"/>
        <pt x="690" y="268" on="1"/>
        <pt x="690" y="137" on="0"/>
        <pt x="528" y="-16" on="0"/>
      </contour>
    </TTGlyph>
    <TTGlyph name="gbreve" xMin="53" yMin="-198" xMax="585" yMax="826">
      <component glyphName="g" x="0" y="0" flags="0x204"/>
      <component glyphName="breve" x="60" y="14" flags="0x4"/>
    </TTGlyph>
    <TTGlyph name="gbreve.sc" xMin="83" yMin="-16" xMax="690" yMax="866">
      <component glyphName="g.sc" x="0" y="0" flags="0x204"/>
      <component glyphName="breve" x="139" y="54" flags="0x4"/>
    </TTGlyph>
    <TTGlyph name="gdotaccent" xMin="53" yMin="-198" xMax="585" yMax="731">
      <component glyphName="g" x="0" y="0" flags="0x204"/>
      <component glyphName="dotaccent" x="60" y="14" flags="0x4"/>
    </TTGlyph>
    <TTGlyph name="gdotaccent.sc" xMin="83" yMin="-16" xMax="690" yMax="771">
      <component glyphName="g.sc" x="0" y="0" flags="0x204"/>
      <component glyphName="dotaccent" x="138" y="54" flags="0x4"/>
    </TTGlyph>
</ttFont>
